<?xml version="1.0" encoding="UTF-8"?>
<svg id="_レイヤー_2" data-name="レイヤー 2" xmlns="http://www.w3.org/2000/svg" viewBox="0 0 48 48.93">
  <defs>
    <style>
      .cls-1 {
        fill: #749c69;
      }

      .cls-2 {
        fill: #778180;
      }
    </style>
  </defs>
  <g id="_テキスト" data-name="テキスト">
    <g>
      <g>
        <path class="cls-1" d="M21.42,10.83v11.48h-11.48v4.43h5.85c5.55,0,10.06-4.5,10.06-10.06v-5.85h-4.43Z"/>
        <path class="cls-1" d="M25.72,38.09v-11.48h11.48s0-4.43,0-4.43h-5.85c-5.55,0-10.06,4.5-10.06,10.06v5.85s4.43,0,4.43,0Z"/>
      </g>
      <g>
        <path class="cls-2" d="M4.62,15.37c-.23.46-.5.77-.95.92l-.2-.58c.29-.1.48-.33.62-.62.17-.35.13-.61-.12-.73-.11-.05-.21-.07-.3-.03-.09.03-.15.09-.24.22l-.23.35c-.17.24-.34.4-.54.47-.22.08-.45.05-.71-.07-.55-.27-.73-.86-.41-1.52.2-.42.46-.68.84-.82l.19.56c-.28.1-.42.32-.52.53-.15.32-.05.56.16.66.08.04.17.05.26.02.09-.03.18-.11.26-.23l.23-.34c.17-.26.34-.4.52-.47.23-.09.49-.05.76.08.59.29.69.95.38,1.59Z"/>
        <path class="cls-2" d="M6.67,11.92l-.17-.13c.04.23,0,.4-.16.64-.16.23-.34.35-.55.39-.19.03-.4-.03-.57-.16-.32-.23-.43-.64-.09-1.11l.34-.48-.1-.07c-.22-.16-.4-.12-.59.15-.14.19-.16.32-.11.51l-.55.1c-.08-.35,0-.59.25-.93.41-.57.86-.69,1.34-.35l1.33.96-.35.49ZM5.81,11.32l-.29.4c-.13.18-.12.35.03.45.14.1.3.07.44-.12.1-.14.15-.24.13-.39-.01-.09-.08-.17-.2-.26l-.11-.08Z"/>
        <path class="cls-2" d="M9.1,9.18l-1.17-.31.02.4.52.53-.44.44-2.4-2.42.44-.44,1.36,1.37-.13-1.31.53-.53.08,1.34,1.73.38-.55.54Z"/>
        <path class="cls-2" d="M11.84,6.99l-.13-.19c-.03.23-.17.44-.36.57-.2.14-.41.19-.61.16-.28-.05-.46-.21-.61-.43l-.91-1.3.51-.36.87,1.23c.2.28.44.25.6.14.16-.11.27-.33.08-.61l-.87-1.23.51-.36,1.43,2.04-.5.35Z"/>
        <path class="cls-2" d="M14.15,3.63c-.13-.04-.22-.06-.36.01-.17.08-.3.3-.16.59l.66,1.35-.56.27-1.09-2.24.55-.27.1.22c.04-.18.21-.4.45-.51.22-.11.4-.13.63-.05l-.22.63Z"/>
        <path class="cls-2" d="M17.72,4.25l-.06-.21c-.11.21-.24.32-.52.41-.27.08-.49.07-.67-.02-.17-.09-.3-.26-.36-.48-.12-.38.05-.77.6-.94l.56-.17-.04-.12c-.08-.26-.24-.34-.56-.24-.23.07-.32.16-.4.34l-.49-.25c.15-.33.36-.47.76-.59.67-.2,1.1-.03,1.27.53l.48,1.57-.58.18ZM17.4,3.24l-.47.14c-.22.07-.3.2-.25.37.05.16.19.24.43.17.16-.05.27-.1.34-.23.05-.08.04-.18,0-.33l-.04-.13Z"/>
        <path class="cls-2" d="M20.66,3.65c-.39.05-.75.06-1.1-.21l.35-.46c.23.18.5.17.69.14.21-.03.43-.13.4-.32-.02-.12-.09-.2-.29-.19l-.39.02c-.45.02-.75-.14-.82-.59-.07-.51.34-.85.85-.92.38-.05.72-.03.98.16l-.33.44c-.16-.11-.38-.12-.6-.09-.25.03-.34.16-.32.29.01.09.06.19.29.18l.39-.02c.5-.02.78.21.83.62.07.55-.35.87-.94.95Z"/>
        <path class="cls-2" d="M24.56,3.44l.04-1.52c0-.33-.2-.45-.39-.45-.2,0-.4.1-.41.43l-.04,1.52-.62-.02.09-3.41.62.02-.03,1.14c.17-.17.38-.25.6-.24.55.01.82.4.81.93l-.04,1.61-.62-.02Z"/>
        <path class="cls-2" d="M26.75,3.66l.41-2.46.61.1-.41,2.46-.61-.1ZM27.22.78l.08-.5.63.1-.08.5-.63-.1Z"/>
        <path class="cls-2" d="M30.33,4.53l.45-1.44c.1-.32-.07-.5-.26-.56-.19-.06-.43-.02-.53.31l-.45,1.44-.59-.19.75-2.38.58.18-.07.22c.21-.12.45-.13.67-.06.24.08.4.21.49.39.13.25.11.49.03.75l-.48,1.52-.59-.19Z"/>
        <path class="cls-2" d="M34.89,6.69l.74-1.31c.17-.3.04-.5-.14-.6-.17-.09-.42-.1-.58.18l-.75,1.33-.54-.31.74-1.31c.17-.3.04-.5-.14-.6s-.42-.1-.59.19l-.74,1.31-.54-.31,1.22-2.17.53.3-.11.2c.22-.07.47-.03.67.08.24.14.39.33.42.6.29-.09.53-.06.81.09.22.12.37.3.43.49.08.27.02.51-.11.75l-.78,1.39-.54-.31Z"/>
        <path class="cls-2" d="M37.61,8.79l.14-.16c-.24.02-.4-.03-.62-.22-.21-.18-.32-.37-.34-.58-.01-.19.07-.39.21-.56.26-.3.68-.37,1.12.01l.45.39.08-.09c.18-.21.16-.38-.09-.6-.18-.16-.3-.19-.5-.16l-.05-.55c.36-.04.59.06.91.33.53.46.61.92.23,1.36l-1.08,1.24-.46-.4ZM38.29,7.98l-.37-.32c-.17-.15-.33-.15-.45-.02-.11.13-.1.29.08.45.13.11.22.17.38.17.09,0,.18-.06.28-.18l.09-.1Z"/>
        <path class="cls-2" d="M39.78,11.09c-.32-.38-.51-1.03.26-1.68s1.37-.35,1.69.03c.22.26.31.53.27.85l-.59-.05c.02-.19,0-.31-.11-.43-.1-.11-.21-.17-.35-.17-.15,0-.31.08-.51.25s-.31.31-.34.46c-.03.14,0,.26.1.38.1.12.22.17.41.18l-.05.59c-.32-.02-.57-.15-.79-.41Z"/>
        <path class="cls-2" d="M41.87,14.07l1.31-.78c.28-.17.27-.41.17-.58-.1-.17-.3-.29-.58-.12l-1.31.78-.32-.53,2.93-1.75.32.53-.98.59c.23.06.42.19.53.38.28.47.1.91-.35,1.18l-1.39.83-.32-.53Z"/>
        <path class="cls-2" d="M42.86,16.04l2.3-.96.24.57-2.3.97-.24-.57ZM45.54,14.9l.47-.2.25.59-.47.2-.25-.59Z"/>
        <path class="cls-2" d="M45.29,20.78l.21-.56-.58.14-.09-.43.59-.09-.41-.44.33-.29.38.46.17-.57.42.14-.21.56.58-.14.09.43-.59.1.41.43-.33.29-.38-.47-.17.58-.41-.14Z"/>
        <path class="cls-2" d="M44.55,26.26l.61-.17.06-1.21-.59-.23.03-.69,3.35,1.4-.02.52-3.46,1.09.03-.69ZM46.98,25.58l-1.22-.49-.04.85,1.26-.36Z"/>
        <path class="cls-2" d="M43.98,29.62l1.47.34c.33.08.49-.11.54-.3.04-.19-.02-.43-.35-.51l-1.47-.34.14-.61,2.43.56-.14.59-.22-.05c.13.2.16.44.11.66-.06.24-.18.42-.35.52-.24.15-.48.15-.75.09l-1.55-.36.14-.61Z"/>
        <path class="cls-2" d="M43.32,31.73l2.33.89-.22.58-2.33-.89.22-.58ZM46.05,32.76l.47.18-.23.59-.47-.18.23-.59Z"/>
        <path class="cls-2" d="M41.02,36.27l1.29.78c.29.18.5.05.6-.12.1-.16.12-.42-.16-.58l-1.31-.78.32-.53,1.29.78c.29.18.5.05.6-.12.1-.17.12-.42-.18-.59l-1.29-.78.32-.53,2.14,1.28-.31.52-.2-.12c.06.23.02.47-.1.67-.14.24-.35.38-.61.4.08.29.05.54-.11.8-.13.21-.31.36-.5.41-.28.07-.51,0-.75-.13l-1.37-.82.32-.53Z"/>
        <path class="cls-2" d="M38.85,38.93l.16.15c-.01-.24.04-.4.24-.61.19-.21.38-.31.59-.32.19,0,.39.08.55.23.29.27.35.69-.04,1.12l-.4.43.09.08c.2.18.38.17.6-.08.16-.18.19-.3.17-.49l.55-.03c.03.36-.07.59-.35.9-.47.52-.94.58-1.37.19l-1.21-1.11.41-.45ZM39.63,39.63l.33-.36c.15-.17.16-.33.03-.45-.13-.12-.29-.11-.45.07-.12.13-.18.22-.18.37,0,.09.06.18.17.28l.1.09Z"/>
        <path class="cls-2" d="M36.71,40.89c.4-.33.79-.19,1.02.09l1.71,2.08-.48.4-1.69-2.05c-.09-.11-.19-.13-.31-.03l-.18.15-.33-.41.27-.23Z"/>
        <path class="cls-2" d="M31.32,44.05l.81,1.81.07-1.44.41-.18,1.12.91-.81-1.81.61-.27,1.39,3.11-.6.27-1.56-1.32-.06,2.04-.6.27-1.39-3.11.61-.27Z"/>
        <path class="cls-2" d="M28.91,45.91c-.07-.31-.31-.5-.65-.42-.27.06-.38.16-.5.35l-.45-.28c.19-.3.4-.49.84-.59.57-.13,1.18,0,1.41.99.18.79-.15,1.34-.78,1.48-.68.15-1.17-.26-1.32-.92l-.06-.27,1.52-.34ZM28.2,46.78c.1.13.26.21.46.16.21-.05.32-.18.35-.34.02-.1.02-.17,0-.27l-.92.21c.03.11.06.17.12.25Z"/>
        <path class="cls-2" d="M24.32,45.49v.23c.17-.2.35-.28.62-.3.24-.01.48.06.62.19.26.24.29.67.31,1.04.02.37.04.8-.2,1.06-.13.15-.35.24-.6.26-.25.01-.45-.04-.62-.22l.06,1.13-.62.03-.18-3.4.61-.03ZM24.86,47.43c.37-.02.4-.33.38-.73-.02-.41-.09-.71-.46-.69s-.41.33-.39.74.09.71.46.69Z"/>
        <path class="cls-2" d="M21.86,48.37l-.04.51-.63-.05.04-.51.63.05ZM22.09,45.45l-.21,2.49-.62-.05.21-2.49.62.05Z"/>
        <path class="cls-2" d="M18.91,44.96c.49.11,1.03.5.82,1.49-.21.99-.87,1.11-1.36,1.01-.34-.07-.57-.23-.73-.5l.5-.32c.1.16.19.24.35.28.15.03.27,0,.38-.08.12-.1.2-.25.25-.51s.05-.43-.02-.57c-.07-.13-.17-.2-.31-.23-.16-.03-.28,0-.43.11l-.32-.5c.26-.18.54-.23.88-.16Z"/>
        <path class="cls-2" d="M15.6,43.94l-.08.2c.22-.1.39-.1.66,0,.26.1.43.24.51.44.07.18.07.39-.01.6-.14.37-.52.57-1.06.36l-.55-.21-.05.12c-.1.25-.02.41.29.53.22.09.35.07.52-.02l.23.51c-.33.16-.58.15-.96,0-.65-.25-.88-.66-.67-1.21l.6-1.53.57.22ZM15.23,44.93l.46.18c.21.08.36.03.43-.14.06-.16,0-.31-.23-.4-.16-.06-.27-.09-.41-.03-.09.03-.14.12-.2.26l-.05.12Z"/>
        <path class="cls-2" d="M13,42.66c.45.25.46.67.28.98l-1.33,2.35-.54-.31,1.31-2.31c.07-.13.06-.23-.08-.3l-.21-.12.26-.46.31.17Z"/>
        <path class="cls-2" d="M9.03,39.63c.26.25.4.55.41.9,0,.21-.05.4-.15.56-.1.16-.29.38-.54.65-.26.27-.47.46-.63.57-.16.12-.34.17-.55.18-.35,0-.66-.11-.92-.36-.47-.45-.56-1.06-.16-1.64l.49.47c-.15.26-.15.52.08.75.13.13.28.18.43.17.2-.01.33-.1.79-.58.46-.48.54-.61.54-.81,0-.16-.05-.3-.19-.42-.23-.22-.5-.21-.75-.05l-.49-.47c.56-.42,1.18-.36,1.65.09Z"/>
        <path class="cls-2" d="M6.05,37.93c.26-.19.33-.49.12-.77-.16-.22-.3-.28-.52-.32l.07-.52c.35.05.61.17.88.53.35.47.47,1.09-.35,1.69-.66.48-1.29.4-1.67-.12-.41-.56-.24-1.18.32-1.58l.22-.16.92,1.26ZM4.96,37.63c-.08.14-.09.32.04.49.12.17.3.22.46.18.1-.02.16-.05.25-.11l-.56-.76c-.09.07-.13.12-.18.21Z"/>
        <path class="cls-2" d="M4.56,33.5l-1.35.68c-.3.15-.31.4-.22.57.09.18.29.32.59.17l1.35-.68.28.56-2.23,1.12-.27-.54.21-.1c-.23-.07-.41-.23-.51-.44-.11-.22-.13-.44-.07-.62.09-.27.28-.42.52-.54l1.42-.71.28.56Z"/>
        <path class="cls-2" d="M3.47,30.72c.16.48-.12.8-.45.91l-1.17.38.08.25-.45.15-.08-.25-.7.23-.19-.59.7-.23-.14-.42.45-.15.14.42,1.14-.37c.14-.04.19-.13.15-.27l-.07-.21.5-.16.11.32Z"/>
        <path class="cls-2" d="M1.87,28.68c.32-.05.51-.29.46-.63-.05-.27-.14-.39-.33-.52l.3-.43c.29.21.47.42.55.87.1.58-.07,1.18-1.07,1.35-.8.14-1.33-.22-1.44-.86-.12-.68.32-1.16.99-1.27l.27-.05.26,1.54ZM1.04,27.92c-.14.09-.22.25-.18.45.04.21.17.33.32.37.1.02.16.03.27.01l-.16-.93c-.11.02-.17.05-.25.1Z"/>
        <path class="cls-2" d="M.71,24.17c-.09.1-.15.18-.14.33,0,.19.15.4.47.39l1.5-.02v.62s-2.48.04-2.48.04v-.61s.23,0,.23,0c-.15-.12-.27-.35-.28-.62,0-.24.06-.42.23-.59l.48.46Z"/>
        <path class="cls-2" d="M2.14,19.33l-.41.43.59.1-.09.43-.58-.14.21.56-.41.14-.17-.57-.38.46-.33-.29.42-.43-.59-.1.09-.43.58.14-.21-.56.42-.14.17.58.38-.46.33.29Z"/>
      </g>
    </g>
  </g>
</svg>