<?xml version="1.0" encoding="UTF-8"?>
<svg id="_レイヤー_2" data-name="レイヤー 2" xmlns="http://www.w3.org/2000/svg" viewBox="0 0 68.21 69.53">
  <defs>
    <style>
      .cls-1 {
        fill: #bdcebb;
      }
    </style>
  </defs>
  <g id="_テキスト" data-name="テキスト">
    <g>
      <g>
        <path class="cls-1" d="M30.44,15.4v16.31H14.12v6.29h8.31c7.89,0,14.29-6.4,14.29-14.29v-8.32h-6.29Z"/>
        <path class="cls-1" d="M36.54,54.13v-16.31h16.31s0-6.29,0-6.29h-8.31c-7.89,0-14.29,6.4-14.29,14.29v8.32s6.29,0,6.29,0Z"/>
      </g>
      <g>
        <path class="cls-1" d="M6.57,21.84c-.32.66-.7,1.09-1.35,1.31l-.28-.82c.41-.14.68-.47.88-.87.24-.5.18-.86-.16-1.03-.15-.07-.3-.09-.43-.04-.12.05-.21.12-.34.31l-.33.49c-.24.35-.49.57-.77.67-.31.11-.64.07-1.01-.1-.78-.38-1.04-1.22-.59-2.16.29-.6.65-.96,1.19-1.16l.27.8c-.4.15-.59.46-.73.75-.22.45-.08.79.22.94.11.05.24.07.37.02.12-.05.26-.16.37-.32l.32-.48c.25-.37.48-.57.74-.67.33-.13.7-.08,1.09.11.84.41.98,1.34.54,2.26Z"/>
        <path class="cls-1" d="M9.48,16.94l-.25-.18c.05.33,0,.57-.23.91-.23.33-.49.5-.78.55-.27.04-.56-.04-.82-.23-.46-.33-.61-.91-.13-1.58l.49-.68-.14-.1c-.31-.23-.56-.17-.84.21-.2.28-.22.45-.16.72l-.78.14c-.11-.5,0-.84.35-1.32.58-.81,1.22-.98,1.9-.5l1.9,1.36-.5.7ZM8.25,16.09l-.41.57c-.19.26-.17.49.04.64.2.14.43.11.63-.18.14-.2.22-.34.19-.55-.02-.13-.11-.24-.29-.37l-.15-.11Z"/>
        <path class="cls-1" d="M12.94,13.04l-1.66-.43.03.56.74.75-.63.62-3.41-3.44.63-.62,1.94,1.95-.19-1.86.76-.75.11,1.91,2.46.54-.78.77Z"/>
        <path class="cls-1" d="M16.82,9.94l-.19-.27c-.05.33-.25.62-.51.81-.29.2-.59.27-.86.22-.4-.07-.65-.3-.87-.62l-1.3-1.85.72-.51,1.23,1.75c.28.4.62.35.85.19.23-.16.39-.47.11-.87l-1.23-1.75.72-.51,2.03,2.9-.71.5Z"/>
        <path class="cls-1" d="M20.11,5.16c-.18-.06-.32-.08-.51.02-.24.12-.42.43-.23.84l.93,1.92-.8.39-1.55-3.19.78-.38.15.31c.06-.26.29-.57.64-.73.31-.15.57-.18.9-.07l-.31.9Z"/>
        <path class="cls-1" d="M25.18,6.03l-.09-.29c-.16.3-.34.46-.73.58-.38.12-.69.11-.96-.03-.24-.13-.42-.38-.51-.68-.17-.54.07-1.1.86-1.34l.8-.25-.05-.17c-.11-.37-.35-.48-.79-.34-.33.1-.45.22-.56.48l-.7-.36c.22-.47.51-.67,1.08-.84.95-.29,1.57-.04,1.81.75l.68,2.23-.83.25ZM24.73,4.61l-.67.21c-.31.09-.43.29-.36.53.07.23.28.34.61.24.23-.07.38-.14.48-.33.07-.11.06-.26,0-.47l-.06-.18Z"/>
        <path class="cls-1" d="M29.35,5.19c-.55.08-1.06.08-1.57-.3l.49-.65c.33.25.71.24.98.2.3-.04.61-.19.57-.45-.02-.18-.13-.28-.42-.27l-.56.02c-.64.03-1.07-.2-1.16-.84-.1-.73.49-1.21,1.2-1.3.55-.07,1.02-.04,1.4.23l-.46.62c-.23-.15-.54-.17-.85-.12-.35.05-.48.23-.45.41.02.13.09.27.41.25l.56-.02c.7-.03,1.1.3,1.19.89.11.77-.5,1.24-1.33,1.35Z"/>
        <path class="cls-1" d="M34.89,4.89l.06-2.16c.01-.47-.28-.63-.56-.64-.28,0-.58.15-.59.61l-.06,2.16-.88-.02.13-4.84.88.02-.04,1.62c.24-.24.55-.35.86-.34.77.02,1.17.58,1.15,1.32l-.06,2.29-.88-.02Z"/>
        <path class="cls-1" d="M38.02,5.2l.58-3.5.87.15-.58,3.5-.87-.15ZM38.69,1.11l.12-.71.89.15-.12.71-.89-.15Z"/>
        <path class="cls-1" d="M43.09,6.44l.65-2.04c.15-.46-.1-.71-.36-.79-.27-.08-.61-.02-.76.44l-.65,2.04-.84-.27,1.07-3.38.82.26-.1.31c.29-.16.64-.18.95-.08.34.11.57.3.7.55.19.36.16.7.04,1.07l-.68,2.16-.84-.27Z"/>
        <path class="cls-1" d="M49.57,9.51l1.05-1.87c.24-.42.05-.71-.19-.85-.24-.13-.6-.15-.82.25l-1.06,1.88-.77-.43,1.05-1.87c.24-.42.05-.71-.19-.85s-.6-.15-.83.27l-1.05,1.87-.77-.43,1.74-3.09.75.42-.16.28c.32-.09.67-.05.95.11.34.19.55.48.6.85.41-.13.76-.09,1.14.13.31.17.53.43.6.7.11.39.03.73-.16,1.07l-1.11,1.97-.77-.43Z"/>
        <path class="cls-1" d="M53.44,12.49l.2-.23c-.34.02-.57-.05-.88-.31-.3-.26-.46-.53-.48-.83-.01-.27.1-.56.3-.79.37-.43.97-.52,1.59.02l.63.55.12-.13c.25-.29.22-.55-.13-.85-.26-.22-.43-.26-.71-.22l-.07-.79c.51-.06.84.08,1.29.47.75.65.87,1.31.32,1.94l-1.53,1.76-.65-.57ZM54.4,11.35l-.53-.46c-.24-.21-.47-.21-.64-.02-.16.19-.14.42.12.64.19.16.32.25.53.24.13,0,.25-.09.39-.25l.12-.14Z"/>
        <path class="cls-1" d="M56.52,15.77c-.46-.54-.73-1.46.37-2.38s1.95-.49,2.41.05c.32.37.44.75.39,1.2l-.84-.07c.03-.27,0-.44-.15-.62-.14-.16-.3-.24-.5-.24-.22,0-.44.11-.73.35s-.43.45-.48.66c-.04.2.01.37.15.53.15.18.31.24.58.26l-.07.84c-.45-.03-.81-.21-1.12-.58Z"/>
        <path class="cls-1" d="M59.49,19.99l1.86-1.11c.4-.24.38-.58.24-.82-.14-.24-.43-.41-.83-.17l-1.86,1.11-.45-.76,4.16-2.48.45.76-1.4.83c.33.08.59.27.75.54.4.67.14,1.3-.5,1.68l-1.97,1.17-.45-.76Z"/>
        <path class="cls-1" d="M60.9,22.79l3.27-1.37.34.81-3.27,1.37-.34-.82ZM64.72,21.18l.66-.28.35.83-.66.28-.35-.83Z"/>
        <path class="cls-1" d="M64.36,29.52l.3-.79-.83.2-.12-.61.84-.13-.58-.62.47-.41.54.66.24-.81.59.19-.3.8.83-.2.12.61-.84.14.59.61-.47.41-.54-.66-.24.82-.59-.2Z"/>
        <path class="cls-1" d="M63.3,37.32l.87-.25.08-1.72-.84-.33.05-.98,4.75,1.98-.03.74-4.92,1.54.05-.98ZM66.76,36.35l-1.73-.69-.06,1.2,1.79-.51Z"/>
        <path class="cls-1" d="M62.49,42.09l2.09.48c.47.11.7-.15.76-.43.06-.27-.03-.61-.5-.72l-2.09-.48.2-.86,3.45.79-.19.84-.32-.07c.19.28.23.63.16.94-.08.34-.26.6-.49.75-.34.21-.68.21-1.06.13l-2.21-.51.2-.86Z"/>
        <path class="cls-1" d="M61.56,45.08l3.31,1.27-.32.83-3.31-1.27.32-.83ZM65.44,46.56l.67.26-.32.84-.67-.26.32-.84Z"/>
        <path class="cls-1" d="M58.29,51.54l1.84,1.1c.41.25.71.07.86-.17.14-.23.16-.59-.23-.83l-1.85-1.11.46-.76,1.84,1.1c.41.25.71.07.86-.17.14-.24.16-.59-.25-.84l-1.84-1.1.46-.76,3.04,1.83-.44.74-.28-.17c.09.32.03.67-.14.95-.2.34-.49.54-.87.57.11.42.07.76-.16,1.14-.18.3-.45.52-.72.59-.39.1-.73.01-1.06-.19l-1.94-1.17.46-.76Z"/>
        <path class="cls-1" d="M55.2,55.32l.23.21c-.01-.34.06-.57.34-.87.27-.3.54-.44.84-.46.27,0,.55.11.78.32.42.38.5.98-.06,1.59l-.57.62.13.12c.29.26.54.24.86-.11.23-.25.28-.42.24-.7l.79-.04c.05.51-.1.84-.5,1.27-.67.73-1.33.83-1.94.27l-1.72-1.58.58-.64ZM56.32,56.32l.47-.52c.22-.24.23-.47.04-.64-.18-.17-.41-.16-.65.1-.17.18-.26.31-.25.53,0,.13.08.25.24.4l.14.13Z"/>
        <path class="cls-1" d="M52.17,58.11c.56-.46,1.12-.26,1.44.13l2.43,2.96-.68.56-2.4-2.91c-.13-.16-.27-.19-.44-.05l-.26.22-.48-.58.39-.32Z"/>
        <path class="cls-1" d="M44.5,62.59l1.15,2.58.1-2.05.58-.26,1.6,1.3-1.15-2.58.86-.38,1.97,4.42-.85.38-2.22-1.88-.08,2.9-.85.38-1.97-4.42.86-.38Z"/>
        <path class="cls-1" d="M41.08,65.24c-.1-.44-.45-.71-.93-.6-.38.09-.54.23-.71.5l-.64-.39c.27-.43.57-.7,1.19-.84.82-.18,1.68.01,2,1.41.25,1.13-.21,1.9-1.11,2.11-.96.22-1.66-.36-1.88-1.31l-.09-.38,2.16-.49ZM40.06,66.48c.14.18.37.29.66.23.29-.07.45-.26.5-.49.02-.14.02-.24,0-.39l-1.31.3c.04.15.08.24.16.35Z"/>
        <path class="cls-1" d="M34.55,64.64l.02.33c.23-.28.48-.4.86-.42.35-.02.68.09.89.27.37.33.41.95.44,1.48.03.53.05,1.13-.28,1.51-.19.21-.5.35-.85.36-.36.02-.64-.06-.88-.31l.09,1.61-.88.05-.26-4.84.86-.05ZM35.33,67.4c.53-.03.57-.47.54-1.04-.03-.58-.12-1.02-.65-.99s-.58.47-.55,1.05.13,1.01.66.98Z"/>
        <path class="cls-1" d="M31.06,68.73l-.06.72-.9-.08.06-.72.9.08ZM31.39,64.59l-.3,3.53-.88-.07.3-3.53.88.07Z"/>
        <path class="cls-1" d="M26.87,63.88c.69.15,1.47.71,1.16,2.11-.3,1.4-1.24,1.58-1.93,1.43-.48-.1-.81-.33-1.04-.71l.71-.46c.14.23.27.34.5.39.21.04.38,0,.54-.12.17-.14.28-.36.36-.72s.07-.62-.03-.81c-.09-.18-.24-.29-.44-.33-.23-.05-.4,0-.62.15l-.46-.7c.37-.25.77-.33,1.25-.22Z"/>
        <path class="cls-1" d="M22.16,62.44l-.11.29c.31-.14.55-.15.94,0,.37.15.61.35.73.62.11.25.1.56-.02.85-.21.53-.74.82-1.5.52l-.78-.3-.06.16c-.14.36-.03.59.41.76.32.12.49.1.74-.03l.33.72c-.46.23-.82.21-1.37,0-.93-.36-1.25-.94-.95-1.72l.85-2.17.8.31ZM21.63,63.84l.65.26c.3.12.52.04.61-.19.09-.23,0-.44-.33-.57-.23-.09-.38-.13-.58-.04-.12.05-.2.17-.28.37l-.07.18Z"/>
        <path class="cls-1" d="M18.48,60.62c.63.36.65.95.4,1.39l-1.88,3.33-.77-.44,1.86-3.29c.1-.18.08-.32-.12-.43l-.3-.17.37-.65.44.25Z"/>
        <path class="cls-1" d="M12.83,56.31c.37.36.57.79.58,1.29,0,.3-.07.56-.22.8-.15.23-.41.54-.77.93-.37.38-.66.66-.89.81-.23.16-.49.25-.79.25-.5.01-.94-.16-1.31-.52-.67-.64-.8-1.51-.23-2.34l.69.66c-.21.37-.21.75.12,1.06.19.18.39.26.61.24.29-.02.47-.15,1.12-.82.65-.68.77-.86.77-1.15.01-.22-.08-.42-.26-.6-.33-.31-.7-.3-1.06-.07l-.69-.66c.8-.6,1.68-.52,2.35.12Z"/>
        <path class="cls-1" d="M8.59,53.9c.37-.27.47-.69.18-1.09-.23-.31-.43-.4-.74-.45l.1-.74c.5.08.87.24,1.25.75.5.67.66,1.55-.49,2.4-.93.69-1.83.57-2.37-.17-.58-.79-.33-1.67.45-2.25l.32-.23,1.31,1.79ZM7.05,53.46c-.11.2-.12.45.05.69.18.24.42.31.65.26.14-.03.23-.07.36-.16l-.8-1.08c-.12.1-.19.17-.26.29Z"/>
        <path class="cls-1" d="M6.48,47.61l-1.91.96c-.43.22-.44.56-.31.81.13.25.41.46.84.24l1.91-.96.4.79-3.17,1.59-.39-.77.29-.15c-.32-.1-.58-.33-.72-.63-.16-.32-.18-.62-.1-.89.13-.38.39-.6.74-.77l2.02-1.02.4.79Z"/>
        <path class="cls-1" d="M4.94,43.66c.22.69-.17,1.13-.65,1.29l-1.67.54.12.36-.64.21-.12-.36-1,.32-.27-.84,1-.32-.19-.59.64-.21.19.59,1.62-.53c.19-.06.27-.19.21-.39l-.1-.3.71-.23.15.46Z"/>
        <path class="cls-1" d="M2.66,40.75c.45-.08.73-.41.65-.9-.07-.38-.2-.55-.46-.74l.43-.62c.42.29.67.6.78,1.23.14.82-.1,1.68-1.51,1.92-1.14.19-1.89-.31-2.04-1.22-.17-.97.45-1.64,1.41-1.81l.39-.07.37,2.19ZM1.48,39.67c-.19.13-.31.35-.26.65.05.3.24.46.46.52.14.03.23.04.39.02l-.23-1.33c-.15.03-.24.07-.36.14Z"/>
        <path class="cls-1" d="M1,34.34c-.13.14-.21.26-.2.47,0,.27.21.57.66.56l2.14-.03v.88s-3.53.06-3.53.06v-.86s.33,0,.33,0c-.21-.17-.39-.5-.4-.89,0-.35.08-.59.32-.84l.68.66Z"/>
        <path class="cls-1" d="M3.04,27.47l-.58.61.84.14-.13.61-.83-.2.3.8-.59.19-.24-.81-.54.65-.47-.41.59-.61-.84-.14.13-.61.83.2-.3-.79.6-.2.23.82.54-.66.46.41Z"/>
      </g>
    </g>
  </g>
</svg>