<?xml version="1.0" encoding="UTF-8"?>
<svg id="_レイヤー_2" data-name="レイヤー 2" xmlns="http://www.w3.org/2000/svg" viewBox="0 0 252.6 30.97">
  <defs>
    <style>
      .cls-1 {
        fill: #231815;
        stroke: #231815;
        stroke-linecap: round;
        stroke-linejoin: round;
        stroke-width: .38px;
      }

      .cls-2 {
        fill: #fff;
        opacity: .7;
      }
    </style>
  </defs>
  <g id="_画像" data-name="画像">
    <rect class="cls-2" x="0" width="252.6" height="30.97"/>
    <g>
      <path class="cls-1" d="M13.59,14.02l-.42.76c-.12.21-.27.31-.47.31-.18,0-.34-.07-.48-.22-.14-.15-.21-.32-.21-.51,0-.15.04-.29.13-.42,1.08-1.54,1.81-2.79,2.18-3.74.06-.16.09-.32.09-.47,0-.46-.25-.69-.76-.69h-3.83c-.42,0-.62-.21-.62-.65s.21-.62.62-.62h4.41c1.04,0,1.56.51,1.56,1.54,0,.45-.1.94-.31,1.49-.1.27-.29.63-.57,1.08-.27.45-.45.79-.52,1.01,1.1,1.38,1.65,2.86,1.65,4.45,0,1.13-.29,2.06-.87,2.8-.61.79-1.39,1.18-2.36,1.18-.43,0-.88-.08-1.34-.24v3.98c0,.45-.22.67-.67.67s-.67-.22-.67-.67v-14.93c0-.44.22-.67.67-.67s.67.22.67.67v9.59c.42.15.8.22,1.16.22.65,0,1.15-.24,1.5-.72.35-.48.52-1.1.52-1.86,0-1.16-.36-2.27-1.07-3.34ZM25.37,9.33h-8.81c-.45,0-.67-.22-.67-.67s.22-.67.67-.67h11.88c.45,0,.67.22.67.67s-.22.67-.67.67h-1.74v11.33c0,1.5-.62,2.68-1.85,3.56-1.11.79-2.51,1.2-4.21,1.25-.46.01-.69-.21-.69-.67,0-.43.21-.65.65-.67,1.28-.03,2.36-.35,3.25-.96,1.01-.7,1.51-1.62,1.51-2.76v-11.08ZM23.18,18.65c0,.44-.22.67-.67.67h-4.65c-.45,0-.67-.22-.67-.67v-5.94c0-.45.22-.67.67-.67h4.65c.45,0,.67.22.67.67v5.94ZM21.85,17.98v-4.61h-3.32v4.61h3.32Z"/>
      <path class="cls-1" d="M34.51,12.33c-.82.68-1.68,1.16-2.6,1.45-.07.03-.15.04-.22.04-.45,0-.67-.23-.67-.69,0-.33.16-.54.49-.65,1.2-.39,2.29-1.13,3.27-2.23.92-1.05,1.53-2.17,1.82-3.36.09-.36.3-.53.65-.53.45,0,.67.22.67.65,0,.49-.26,1.19-.78,2.11-.43.79-.86,1.42-1.29,1.91v13.91c0,.45-.22.67-.67.67s-.67-.22-.67-.67v-12.62ZM43.77,11.33h6.77c.45,0,.67.22.67.67s-.22.67-.67.67h-7.1c-.36,1.37-.81,2.51-1.36,3.43h7.52c.45,0,.67.22.67.67s-.22.67-.67.67h-4.27v5.52h5.32c.45,0,.67.22.67.67s-.22.67-.67.67h-12.06c-.45,0-.67-.22-.67-.67s.22-.67.67-.67h5.41v-5.52h-2.69c-1.34,1.74-2.73,2.97-4.18,3.69-.12.06-.23.09-.33.09-.43,0-.65-.23-.65-.69,0-.25.12-.45.36-.6,2.73-1.66,4.58-4.08,5.54-7.26h-4.25c-.45,0-.67-.22-.67-.67s.22-.67.67-.67h4.61c.28-1.26.44-2.69.47-4.27.01-.46.24-.69.69-.69s.66.23.65.69c-.04,1.59-.19,3.01-.42,4.27Z"/>
      <path class="cls-1" d="M74.84,17.76c.24.12.36.3.36.56,0,.18-.06.34-.19.48-.13.14-.28.21-.46.21-.09,0-.19-.02-.29-.07-1.13-.58-2.57-1.49-4.33-2.75-1.76-1.25-3.1-2.31-4.02-3.17-.24-.22-.48-.33-.73-.33s-.49.11-.71.33c-.76.79-2.06,1.87-3.91,3.26-1.85,1.39-3.25,2.33-4.2,2.81-.1.06-.21.09-.31.09-.4,0-.6-.23-.6-.69,0-.28.13-.49.38-.62.99-.49,2.36-1.4,4.09-2.74,1.6-1.23,2.79-2.25,3.56-3.05.52-.53,1.08-.8,1.67-.8s1.17.27,1.74.8c.89.85,2.15,1.85,3.78,3.03,1.63,1.17,3.02,2.06,4.16,2.65ZM62.8,8.37c-.55.56-1.33,1.22-2.34,1.98-1.13.88-2.07,1.48-2.83,1.83-.1.04-.21.07-.31.07-.19,0-.35-.07-.48-.21-.13-.14-.19-.3-.19-.48,0-.27.13-.46.38-.58,1.39-.65,3-1.83,4.83-3.54.15-.13.3-.2.47-.2.18,0,.33.07.47.2s.2.29.2.47c0,.16-.07.32-.2.47ZM71.14,24.02c0,.45-.22.67-.67.67h-10.33c-.45,0-.67-.22-.67-.67v-6.17c0-.44.22-.67.67-.67h10.33c.45,0,.67.22.67.67v6.17ZM69.76,23.32v-4.78h-8.9v4.78h8.9ZM73.46,10.97c.25.12.38.31.38.58,0,.18-.06.34-.19.48-.13.14-.29.21-.48.21-.1,0-.21-.02-.31-.07-.76-.34-1.7-.95-2.83-1.83-1.01-.76-1.79-1.42-2.34-1.98-.13-.15-.2-.3-.2-.47,0-.18.07-.33.2-.47s.29-.2.47-.2c.16,0,.32.07.47.2,1.82,1.71,3.43,2.89,4.83,3.54Z"/>
      <path class="cls-1" d="M97.63,21.57c.09.09.13.19.13.31,0,.18-.08.35-.24.52-.16.17-.33.26-.51.26-.13,0-.24-.05-.31-.16-.3-.3-3.7-3.66-10.22-10.1-.37-.37-.62-.56-.76-.56s-.31.16-.53.47l-5.23,7.46c-.1.13-.26.2-.47.2-.49,0-.73-.21-.73-.62,0-.1.03-.21.09-.33.24-.34,1.98-2.83,5.23-7.46.52-.74,1.05-1.11,1.58-1.11s1.11.33,1.76.98l10.21,10.15ZM95.31,10.57c0,.59-.21,1.11-.63,1.54s-.94.65-1.55.65-1.11-.21-1.54-.65c-.43-.43-.65-.94-.65-1.54s.21-1.12.65-1.55c.43-.42.94-.63,1.54-.63s1.12.21,1.55.63.63.94.63,1.55ZM94.42,10.57c0-.36-.13-.66-.38-.91-.25-.25-.56-.38-.91-.38s-.66.13-.91.38c-.25.25-.38.56-.38.91s.13.66.38.91c.25.25.56.38.91.38s.66-.13.91-.38c.25-.25.38-.56.38-.91Z"/>
      <path class="cls-1" d="M106.91,18.21c.01.06.02.12.02.18,0,.16-.07.31-.21.43-.14.13-.29.19-.46.19-.28,0-.46-.15-.53-.44-.55-2.06-1.3-4.01-2.25-5.83-.03-.04-.04-.1-.04-.16,0-.16.09-.32.28-.48.19-.16.37-.23.55-.23.19,0,.32.09.38.27,1.02,1.77,1.78,3.79,2.27,6.08ZM116.97,12.02c-.48,3.17-1.52,5.85-3.14,8.01-1.97,2.64-4.67,4.31-8.1,5.01-.07.01-.15.02-.22.02-.46,0-.69-.24-.69-.71,0-.34.14-.52.42-.53,3.22-.61,5.74-2.12,7.57-4.54,1.47-1.97,2.42-4.45,2.85-7.43.04-.33.24-.49.58-.49.19,0,.37.07.53.2.16.13.23.29.2.47ZM111.16,17.2c.04.21-.01.38-.18.51-.16.13-.36.2-.58.2-.27,0-.44-.1-.51-.29-.52-2.37-1.19-4.32-2-5.83-.04-.09-.07-.18-.07-.27,0-.16.08-.31.23-.43s.33-.19.52-.19c.21,0,.36.09.45.27.92,1.96,1.63,3.97,2.14,6.03Z"/>
      <path class="cls-1" d="M126.16,12.55c2.21.95,3.88,1.73,5.01,2.34,1.78.95,3.43,2.03,4.96,3.23.15.12.22.26.22.42,0,.21-.08.39-.23.56-.16.16-.33.25-.52.25-.1,0-.21-.04-.31-.11-2.31-1.88-5.36-3.62-9.12-5.21v10.35c0,.42-.24.62-.73.62-.43,0-.65-.21-.67-.62.01-5.56.01-11.22,0-16.98.03-.38.28-.58.76-.58.45,0,.66.19.65.58v5.16Z"/>
      <path class="cls-1" d="M150.1,7.72c-.88,2.43-1.83,4.41-2.87,5.94-1.11,1.65-2.57,3.14-4.38,4.47-.1.07-.22.11-.33.11-.19,0-.37-.07-.53-.22-.16-.15-.24-.31-.24-.49,0-.16.07-.3.22-.42,1.85-1.47,3.27-2.9,4.25-4.31.98-1.4,1.8-3.17,2.47-5.31.12-.28.34-.42.67-.42.22,0,.42.07.59.2.17.13.23.28.17.45ZM158.09,10.82c-.68,3.56-2.07,6.56-4.16,8.99-2.23,2.61-5.01,4.29-8.37,5.03-.07.01-.15.02-.22.02-.45,0-.67-.24-.67-.71,0-.37.15-.59.45-.65,3.49-.76,6.31-2.6,8.48-5.52,1.44-1.94,2.44-4.25,3-6.92l-8.97.27.18-1.27c3.06-.09,6.23-.2,9.53-.33.52.06.77.42.76,1.09Z"/>
      <path class="cls-1" d="M166.17,18.65c0,.43-.24.65-.73.65-.43,0-.65-.21-.65-.65v-10.37c.01-.42.23-.62.65-.62.47,0,.72.21.73.62v10.37ZM176.92,15.31c0,2.98-1.07,5.31-3.2,6.99-1.85,1.44-4.3,2.27-7.34,2.49-.19.01-.35-.05-.48-.21-.13-.16-.19-.34-.19-.54,0-.39.2-.59.6-.62,3.25-.25,5.66-1.17,7.23-2.74,1.31-1.31,1.96-3.09,1.96-5.36v-7.63c0-.45.23-.67.69-.67.49,0,.73.22.73.67v7.63Z"/>
      <path class="cls-1" d="M200.36,23.12h-17.09c-.34-.01-.51-.24-.51-.69,0-.42.17-.62.51-.62h17.09c.39.01.58.24.58.69,0,.42-.19.62-.58.62ZM198.71,11.46h-13.66c-.48-.01-.71-.23-.71-.65s.24-.62.71-.62h13.66c.43,0,.65.21.65.62s-.22.65-.65.65Z"/>
      <path class="cls-1" d="M209.72,18.21c.01.06.02.12.02.18,0,.16-.07.31-.21.43-.14.13-.29.19-.46.19-.28,0-.46-.15-.53-.44-.55-2.06-1.3-4.01-2.25-5.83-.03-.04-.04-.1-.04-.16,0-.16.09-.32.28-.48.19-.16.37-.23.55-.23.19,0,.32.09.38.27,1.02,1.77,1.78,3.79,2.27,6.08ZM219.78,12.02c-.48,3.17-1.52,5.85-3.14,8.01-1.97,2.64-4.67,4.31-8.1,5.01-.07.01-.15.02-.22.02-.46,0-.69-.24-.69-.71,0-.34.14-.52.42-.53,3.22-.61,5.74-2.12,7.57-4.54,1.47-1.97,2.42-4.45,2.85-7.43.04-.33.24-.49.58-.49.19,0,.37.07.53.2.16.13.23.29.2.47ZM213.98,17.2c.04.21-.01.38-.18.51-.16.13-.36.2-.58.2-.27,0-.44-.1-.51-.29-.52-2.37-1.19-4.32-2-5.83-.04-.09-.07-.18-.07-.27,0-.16.08-.31.23-.43s.33-.19.52-.19c.21,0,.36.09.45.27.92,1.96,1.63,3.97,2.14,6.03Z"/>
      <path class="cls-1" d="M233.34,7.72c-.88,2.43-1.83,4.41-2.87,5.94-1.11,1.65-2.57,3.14-4.38,4.47-.1.07-.22.11-.33.11-.19,0-.37-.07-.53-.22-.16-.15-.24-.31-.24-.49,0-.16.07-.3.22-.42,1.85-1.47,3.27-2.9,4.25-4.31.98-1.4,1.8-3.17,2.47-5.31.12-.28.34-.42.67-.42.22,0,.42.07.59.2.17.13.23.28.17.45ZM241.33,10.82c-.68,3.56-2.07,6.56-4.16,8.99-2.23,2.61-5.01,4.29-8.37,5.03-.07.01-.15.02-.22.02-.45,0-.67-.24-.67-.71,0-.37.15-.59.45-.65,3.49-.76,6.31-2.6,8.48-5.52,1.44-1.94,2.44-4.25,3-6.92l-8.97.27.18-1.27c3.06-.09,6.23-.2,9.53-.33.52.06.77.42.76,1.09Z"/>
    </g>
  </g>
</svg>