<?xml version="1.0" encoding="UTF-8"?>
<svg id="_レイヤー_2" data-name="レイヤー 2" xmlns="http://www.w3.org/2000/svg" viewBox="0 0 44.41 46.49">
  <defs>
    <style>
      .cls-1 {
        fill: #4d4d4d;
      }
    </style>
  </defs>
  <g id="_テキスト" data-name="テキスト">
    <g>
      <g>
        <path class="cls-1" d="M8.47,36.22h-.75c-.06,0-.11.04-.14.09l-3.22,7.31-3.3-7.31c-.02-.05-.08-.09-.14-.09H.17c-.08,0-.15.07-.15.15v9.88c0,.08.07.15.15.15h.75c.08,0,.15-.07.15-.15v-7.44l2.76,6.12c.02.05.08.09.14.09h.75c.06,0,.11-.04.14-.09l2.71-6.1v7.43c0,.08.07.15.15.15h.75c.08,0,.15-.07.15-.15v-9.88c0-.08-.07-.15-.15-.15Z"/>
        <path class="cls-1" d="M20.01,36.22h-6c-.08,0-.15.07-.15.15v9.88c0,.08.07.15.15.15h6c.08,0,.15-.07.15-.15v-.67c0-.08-.07-.15-.15-.15h-5.1v-3.68h4.32c.08,0,.15-.07.15-.15v-.67c0-.08-.07-.15-.15-.15h-4.32v-3.6h5.1c.08,0,.15-.07.15-.15v-.67c0-.08-.07-.15-.15-.15Z"/>
        <path class="cls-1" d="M32.01,36.22h-.75c-.08,0-.15.07-.15.15v8.06l-5.43-8.15s-.08-.07-.13-.07h-.75c-.08,0-.15.07-.15.15v9.88c0,.08.07.15.15.15h.75c.08,0,.15-.07.15-.15v-8.09l5.43,8.17s.08.07.13.07h.75c.08,0,.15-.07.15-.15v-9.88c0-.08-.07-.15-.15-.15Z"/>
        <path class="cls-1" d="M44.19,36.22h-.75c-.08,0-.15.07-.15.15v6.58c0,1.56-.98,2.57-2.49,2.57s-2.49-1.01-2.49-2.57v-6.58c0-.08-.07-.15-.15-.15h-.75c-.08,0-.15.07-.15.15v6.68c0,2.03,1.46,3.44,3.54,3.44s3.54-1.41,3.54-3.44v-6.68c0-.08-.07-.15-.15-.15Z"/>
      </g>
      <rect class="cls-1" y="0" width="44.41" height="3.15"/>
      <rect class="cls-1" y="11.88" width="44.41" height="3.15"/>
      <rect class="cls-1" y="23.77" width="44.41" height="3.15"/>
    </g>
  </g>
</svg>