<?xml version="1.0" encoding="UTF-8"?>
<svg id="_レイヤー_2" data-name="レイヤー 2" xmlns="http://www.w3.org/2000/svg" viewBox="0 0 293.99 30.97">
  <defs>
    <style>
      .cls-1 {
        fill: #231815;
        stroke: #231815;
        stroke-linecap: round;
        stroke-linejoin: round;
        stroke-width: .38px;
      }

      .cls-2 {
        fill: #fff;
        opacity: .7;
      }
    </style>
  </defs>
  <g id="_画像" data-name="画像">
    <g>
      <rect class="cls-2" x="0" width="293.99" height="30.97"/>
      <g>
        <path class="cls-1" d="M13.95,14.89c.34.09.51.3.51.62,0,.46-.22.69-.67.69-.06,0-.13,0-.2-.02l-4.14-1.13c-.34-.09-.51-.3-.51-.62,0-.46.22-.69.67-.69.06,0,.13,0,.2.02l4.14,1.13ZM14.66,21.63l-4.27,2.74c-.12.07-.24.11-.36.11-.18,0-.33-.07-.47-.21-.13-.14-.2-.3-.2-.48,0-.22.1-.4.31-.53l4.27-2.74c.12-.07.24-.11.36-.11.18,0,.33.07.47.21.13.14.2.3.2.48,0,.22-.1.4-.31.53ZM14.26,9.26c.25.12.38.31.38.58,0,.18-.06.34-.19.48-.13.14-.29.21-.48.21-.09,0-.19-.02-.29-.07l-3.54-1.74c-.25-.12-.38-.31-.38-.58,0-.18.06-.34.19-.48.13-.14.29-.21.48-.21.09,0,.19.02.29.07l3.54,1.74ZM20.71,10.73h-4.47c-.45,0-.67-.22-.67-.67s.22-.67.67-.67h10.95c.45,0,.67.22.67.67s-.22.67-.67.67h-5.14v11.55h5.96c.45,0,.67.22.67.67s-.22.67-.67.67h-13.31c-.45,0-.67-.22-.67-.67s.22-.67.67-.67h6.01v-11.55Z"/>
        <path class="cls-1" d="M40.36,12.51h-7.7c-.45,0-.67-.22-.67-.67s.22-.67.67-.67h7.7v-4.27c0-.45.22-.67.67-.67s.67.22.67.67v4.27h8.08c.45,0,.67.22.67.67s-.22.67-.67.67h-8.08v4.07h5.94c.45,0,.67.22.67.67v6.54c0,.45-.22.67-.67.67h-12.84c-.45,0-.67-.22-.67-.67v-6.54c0-.45.22-.67.67-.67h5.56v-4.07ZM46.97,23.12v-5.21h-11.51v5.21h11.51Z"/>
        <path class="cls-1" d="M71.3,23.84c0,.42-.21.62-.62.62h-15.04c-.42,0-.62-.21-.62-.62v-14.15c0-.42.21-.62.62-.62h15.04c.42,0,.62.21.62.62v14.15ZM62.44,15.96v-5.63h-6.16v5.63h6.16ZM62.44,23.19v-5.94h-6.16v5.94h6.16ZM70.03,15.96v-5.63h-6.3v5.63h6.3ZM70.03,23.19v-5.94h-6.3v5.94h6.3Z"/>
        <path class="cls-1" d="M86.43,10.11c-.04,3.5-.62,6.53-1.74,9.08-1.22,2.77-2.77,4.15-4.65,4.14-1.07-.01-1.88-.68-2.43-2-.45-1.1-.65-2.4-.62-3.92.04-2.45.97-4.5,2.78-6.17,1.77-1.63,3.89-2.46,6.36-2.49,2.36-.03,4.32.54,5.88,1.71,1.77,1.34,2.65,3.25,2.65,5.74,0,1.25-.25,2.44-.75,3.58-.5,1.14-1.17,2.04-2.01,2.69-1.78,1.38-4.04,2.08-6.77,2.09-.45,0-.67-.26-.67-.78,0-.49.21-.73.62-.71,2.34.09,4.33-.5,5.96-1.78.68-.53,1.22-1.28,1.6-2.23.36-.91.53-1.86.53-2.87,0-2-.67-3.55-2-4.63-1.22-.99-2.8-1.48-4.76-1.47ZM85.05,10.19c-1.81.25-3.36,1.06-4.64,2.43-1.28,1.37-1.97,2.96-2.06,4.79-.06,1.16.09,2.18.45,3.08.36.9.79,1.35,1.29,1.35,1.39,0,2.59-1.28,3.58-3.85.9-2.36,1.36-4.96,1.38-7.79Z"/>
        <path class="cls-1" d="M106.93,18.03h-2.56v6.83c0,.43-.22.65-.65.65s-.65-.22-.65-.65v-4.25c-1.34,1.26-2.64,2.3-3.92,3.12-.1.07-.22.11-.33.11-.18,0-.33-.07-.45-.21-.12-.14-.18-.29-.18-.46,0-.21.1-.38.29-.51,1.6-1.02,3.12-2.33,4.56-3.92v-.71h-3.36c-.43,0-.65-.21-.65-.65s.21-.65.65-.65h3.36v-1.49c0-.43.22-.65.67-.65s.65.21.65.65v1.49h2.56c.43,0,.65.21.65.65s-.22.65-.65.65ZM116.17,13.87c.28.1.42.3.42.58,0,.46-.22.69-.65.69-.09,0-.18-.02-.27-.07-3.01-1.25-5.33-2.41-6.94-3.49v3.65c0,.43-.22.65-.65.65s-.65-.21-.65-.65v-3.65c-2.34,1.68-4.62,2.84-6.83,3.49-.07.01-.14.02-.2.02-.4,0-.6-.21-.6-.64,0-.31.15-.52.45-.62,2.51-.82,4.9-2.1,7.19-3.85v-.56h-5.54c-.43,0-.65-.21-.65-.65s.21-.65.65-.65h5.54v-1.36c0-.43.21-.65.65-.65s.62.22.62.65v1.36h6.01c.43,0,.65.22.65.65s-.22.65-.65.65h-6.01v.56c1.85,1.42,4.34,2.72,7.46,3.89ZM107.4,20.83c.22.15.33.34.33.58,0,.4-.19.6-.56.6-.12,0-.24-.04-.36-.11-.45-.27-1.08-.73-1.89-1.4-.16-.13-.24-.29-.24-.47s.06-.33.19-.46c.13-.12.28-.19.46-.19.16,0,.31.06.45.18.59.52,1.14.94,1.62,1.27ZM118.41,23.04c.22.12.33.3.33.53,0,.16-.07.32-.2.46s-.29.21-.47.21c-.1,0-.22-.03-.33-.09-1.53-.86-3.1-2.04-4.72-3.54v4.25c0,.43-.22.65-.65.65s-.65-.22-.65-.65v-4.14c-1.54,1.45-3.07,2.62-4.58,3.49-.12.06-.24.09-.36.09-.42,0-.62-.21-.62-.65,0-.24.11-.42.33-.56,2.15-1.32,3.89-2.75,5.23-4.3v-.78h-2.76c-.43,0-.65-.21-.65-.65s.21-.65.65-.65h2.76v-1.49c0-.43.21-.65.65-.65s.62.21.62.65v1.49h3.49c.43,0,.65.21.65.65s-.22.65-.65.65h-3.49v.73c1.85,1.85,3.66,3.28,5.41,4.27Z"/>
        <path class="cls-1" d="M140.8,21.57c.09.09.13.19.13.31,0,.18-.08.35-.24.52-.16.17-.33.26-.51.26-.13,0-.24-.05-.31-.16-.3-.3-3.7-3.66-10.22-10.1-.37-.37-.62-.56-.76-.56s-.31.16-.53.47l-5.23,7.46c-.1.13-.26.2-.47.2-.49,0-.73-.21-.73-.62,0-.1.03-.21.09-.33.24-.34,1.98-2.83,5.23-7.46.52-.74,1.05-1.11,1.58-1.11s1.11.33,1.76.98l10.21,10.15ZM138.49,10.57c0,.59-.21,1.11-.63,1.54s-.94.65-1.55.65-1.11-.21-1.54-.65c-.43-.43-.65-.94-.65-1.54s.21-1.12.65-1.55c.43-.42.94-.63,1.54-.63s1.12.21,1.55.63.63.94.63,1.55ZM137.6,10.57c0-.36-.13-.66-.38-.91-.25-.25-.56-.38-.91-.38s-.66.13-.91.38c-.25.25-.38.56-.38.91s.13.66.38.91c.25.25.56.38.91.38s.66-.13.91-.38c.25-.25.38-.56.38-.91Z"/>
        <path class="cls-1" d="M150.08,18.21c.01.06.02.12.02.18,0,.16-.07.31-.21.43-.14.13-.29.19-.46.19-.28,0-.46-.15-.53-.44-.55-2.06-1.3-4.01-2.25-5.83-.03-.04-.04-.1-.04-.16,0-.16.09-.32.28-.48.19-.16.37-.23.55-.23.19,0,.32.09.38.27,1.02,1.77,1.78,3.79,2.27,6.08ZM160.14,12.02c-.48,3.17-1.52,5.85-3.14,8.01-1.97,2.64-4.67,4.31-8.1,5.01-.07.01-.15.02-.22.02-.46,0-.69-.24-.69-.71,0-.34.14-.52.42-.53,3.22-.61,5.74-2.12,7.57-4.54,1.47-1.97,2.42-4.45,2.85-7.43.04-.33.24-.49.58-.49.19,0,.37.07.53.2.16.13.23.29.2.47ZM154.33,17.2c.04.21-.01.38-.18.51-.16.13-.36.2-.58.2-.27,0-.44-.1-.51-.29-.52-2.37-1.19-4.32-2-5.83-.04-.09-.07-.18-.07-.27,0-.16.08-.31.23-.43s.33-.19.52-.19c.21,0,.36.09.45.27.92,1.96,1.63,3.97,2.14,6.03Z"/>
        <path class="cls-1" d="M169.33,12.55c2.21.95,3.88,1.73,5.01,2.34,1.78.95,3.43,2.03,4.96,3.23.15.12.22.26.22.42,0,.21-.08.39-.23.56-.16.16-.33.25-.52.25-.1,0-.21-.04-.31-.11-2.31-1.88-5.36-3.62-9.12-5.21v10.35c0,.42-.24.62-.73.62-.43,0-.65-.21-.67-.62.01-5.56.01-11.22,0-16.98.03-.38.28-.58.76-.58.45,0,.66.19.65.58v5.16Z"/>
        <path class="cls-1" d="M193.28,7.72c-.88,2.43-1.83,4.41-2.87,5.94-1.11,1.65-2.57,3.14-4.38,4.47-.1.07-.22.11-.33.11-.19,0-.37-.07-.53-.22-.16-.15-.24-.31-.24-.49,0-.16.07-.3.22-.42,1.85-1.47,3.27-2.9,4.25-4.31.98-1.4,1.8-3.17,2.47-5.31.12-.28.34-.42.67-.42.22,0,.42.07.59.2.17.13.23.28.17.45ZM201.27,10.82c-.68,3.56-2.07,6.56-4.16,8.99-2.23,2.61-5.01,4.29-8.37,5.03-.07.01-.15.02-.22.02-.45,0-.67-.24-.67-.71,0-.37.15-.59.45-.65,3.49-.76,6.31-2.6,8.48-5.52,1.44-1.94,2.44-4.25,3-6.92l-8.97.27.18-1.27c3.06-.09,6.23-.2,9.53-.33.52.06.77.42.76,1.09Z"/>
        <path class="cls-1" d="M209.35,18.65c0,.43-.24.65-.73.65-.43,0-.65-.21-.65-.65v-10.37c.01-.42.23-.62.65-.62.47,0,.72.21.73.62v10.37ZM220.1,15.31c0,2.98-1.07,5.31-3.2,6.99-1.85,1.44-4.3,2.27-7.34,2.49-.19.01-.35-.05-.48-.21-.13-.16-.19-.34-.19-.54,0-.39.2-.59.6-.62,3.25-.25,5.66-1.17,7.23-2.74,1.31-1.31,1.96-3.09,1.96-5.36v-7.63c0-.45.23-.67.69-.67.49,0,.73.22.73.67v7.63Z"/>
        <path class="cls-1" d="M243.53,23.12h-17.09c-.34-.01-.51-.24-.51-.69,0-.42.17-.62.51-.62h17.09c.39.01.58.24.58.69,0,.42-.19.62-.58.62ZM241.88,11.46h-13.66c-.48-.01-.71-.23-.71-.65s.24-.62.71-.62h13.66c.43,0,.65.21.65.62s-.22.65-.65.65Z"/>
        <path class="cls-1" d="M252.9,18.21c.01.06.02.12.02.18,0,.16-.07.31-.21.43-.14.13-.29.19-.46.19-.28,0-.46-.15-.53-.44-.55-2.06-1.3-4.01-2.25-5.83-.03-.04-.04-.1-.04-.16,0-.16.09-.32.28-.48.19-.16.37-.23.55-.23.19,0,.32.09.38.27,1.02,1.77,1.78,3.79,2.27,6.08ZM262.96,12.02c-.48,3.17-1.52,5.85-3.14,8.01-1.97,2.64-4.67,4.31-8.1,5.01-.07.01-.15.02-.22.02-.46,0-.69-.24-.69-.71,0-.34.14-.52.42-.53,3.22-.61,5.74-2.12,7.57-4.54,1.47-1.97,2.42-4.45,2.85-7.43.04-.33.24-.49.58-.49.19,0,.37.07.53.2.16.13.23.29.2.47ZM257.15,17.2c.04.21-.01.38-.18.51-.16.13-.36.2-.58.2-.27,0-.44-.1-.51-.29-.52-2.37-1.19-4.32-2-5.83-.04-.09-.07-.18-.07-.27,0-.16.08-.31.23-.43s.33-.19.52-.19c.21,0,.36.09.45.27.92,1.96,1.63,3.97,2.14,6.03Z"/>
        <path class="cls-1" d="M276.51,7.72c-.88,2.43-1.83,4.41-2.87,5.94-1.11,1.65-2.57,3.14-4.38,4.47-.1.07-.22.11-.33.11-.19,0-.37-.07-.53-.22-.16-.15-.24-.31-.24-.49,0-.16.07-.3.22-.42,1.85-1.47,3.27-2.9,4.25-4.31.98-1.4,1.8-3.17,2.47-5.31.12-.28.34-.42.67-.42.22,0,.42.07.59.2.17.13.23.28.17.45ZM284.5,10.82c-.68,3.56-2.07,6.56-4.16,8.99-2.23,2.61-5.01,4.29-8.37,5.03-.07.01-.15.02-.22.02-.45,0-.67-.24-.67-.71,0-.37.15-.59.45-.65,3.49-.76,6.31-2.6,8.48-5.52,1.44-1.94,2.44-4.25,3-6.92l-8.97.27.18-1.27c3.06-.09,6.23-.2,9.53-.33.52.06.77.42.76,1.09Z"/>
      </g>
    </g>
  </g>
</svg>