<?xml version="1.0" encoding="UTF-8"?>
<svg id="_レイヤー_2" data-name="レイヤー 2" xmlns="http://www.w3.org/2000/svg" viewBox="0 0 323.17 18.72">
  <defs>
    <style>
      .cls-1 {
        fill: #231815;
        stroke: #231815;
        stroke-linecap: round;
        stroke-linejoin: round;
        stroke-width: .38px;
      }
    </style>
  </defs>
  <g id="_画像" data-name="画像">
    <g>
      <path class="cls-1" d="M17.03,4.19h-8.54c-.6,1.75-1.44,3.42-2.52,5.02l9.06.02c.39,0,.58.19.58.58v6.76c0,.39-.19.58-.58.58H6.07c-.39,0-.58-.19-.58-.58l-.02-6.76c-.63.68-1.25,1.37-1.86,2.06-.72.72-1.57,1.37-2.54,1.94-.09.05-.19.08-.3.08-.16,0-.3-.06-.41-.18-.11-.12-.17-.26-.17-.42,0-.19.08-.33.24-.44,1.57-1.03,2.96-2.31,4.17-3.85,1.21-1.54,2.09-3.14,2.65-4.81H1.47c-.39,0-.58-.19-.58-.58s.19-.58.58-.58h15.56c.39,0,.58.19.58.58s-.19.58-.58.58ZM14.41,15.97v-5.58h-7.76v5.58h7.76Z"/>
      <path class="cls-1" d="M27.91,11.87c-.2,1.61-.79,3-1.76,4.16-1.08,1.28-2.52,2.11-4.32,2.48-.23.04-.41,0-.56-.15-.15-.14-.22-.3-.22-.49,0-.29.15-.48.46-.56,1.6-.4,2.81-1.1,3.62-2.1.65-.81,1.15-1.98,1.5-3.5.08-.35.3-.52.66-.52.47,0,.67.23.62.68ZM38.69,17.65c-.55.35-1.38.52-2.5.52-1.35,0-2.71-.21-4.1-.62-.63-.19-1.05-.48-1.28-.88-.19-.32-.28-.79-.28-1.42v-3.2h-6.88c-.4,0-.6-.2-.6-.6V1.97c0-.4.2-.6.6-.6h11.62c.4,0,.6.2.6.6v9.48c0,.4-.2.6-.6.6h-3.54v3c0,.73.28,1.2.84,1.4,1,.36,2.05.54,3.14.54.96,0,1.78-.15,2.46-.46.09-.04.18-.06.26-.06.39,0,.58.21.58.64,0,.23-.11.41-.32.54ZM34.67,4.49v-1.92h-10.42v1.92h10.42ZM34.67,7.59v-1.94h-10.42v1.94h10.42ZM34.67,10.85v-2.12h-10.42v2.12h10.42Z"/>
      <path class="cls-1" d="M47.43,7.07c-.59.61-1.51,1.39-2.76,2.34-1.48,1.11-2.47,1.66-2.98,1.66-.39,0-.58-.22-.58-.66,0-.28.14-.46.42-.54.6-.19,1.49-.72,2.68-1.6,1.08-.81,1.86-1.49,2.34-2.04.12-.15.27-.22.44-.22.16,0,.3.06.43.19.13.13.19.28.19.45,0,.16-.06.3-.18.42ZM58.37,17.37h-16.5c-.4,0-.6-.2-.6-.6s.2-.6.6-.6h1.88v-5.08c0-.4.2-.6.6-.6h11.16c.4,0,.6.2.6.6v5.08h2.26c.4,0,.6.2.6.6s-.2.6-.6.6ZM56.99,5.69h-13.96c-.4,0-.6-.2-.6-.6s.2-.6.6-.6h3.8c-.25-.55-.77-1.32-1.54-2.32-.12-.15-.18-.31-.18-.48,0-.4.18-.6.54-.6.16,0,.31.07.44.2.61.61,1.31,1.68,2.08,3.2h3.44c.64-.75,1.29-1.73,1.94-2.94.12-.23.3-.34.54-.34.4,0,.6.19.6.56,0,.08-.02.17-.06.26-.4.89-.91,1.71-1.52,2.46h3.88c.4,0,.6.2.6.6s-.2.6-.6.6ZM47.51,16.17v-4.48h-2.56v4.48h2.56ZM51.19,16.17v-4.48h-2.48v4.48h2.48ZM58.41,9.87c.28.08.42.26.42.54,0,.43-.2.64-.6.64-.49,0-1.48-.55-2.96-1.66-1.19-.89-2.11-1.67-2.76-2.32-.12-.12-.18-.26-.18-.42s.06-.31.19-.44c.13-.13.27-.2.43-.2.17,0,.32.07.44.22.51.57,1.29,1.26,2.36,2.06,1.16.87,2.05,1.39,2.66,1.58ZM54.91,16.17v-4.48h-2.52v4.48h2.52Z"/>
      <path class="cls-1" d="M77.71,16.57c0,.37-.19.56-.56.56h-13.52c-.37,0-.56-.19-.56-.56V3.85c0-.37.19-.56.56-.56h13.52c.37,0,.56.19.56.56v12.72ZM69.75,9.49v-5.06h-5.54v5.06h5.54ZM69.75,15.99v-5.34h-5.54v5.34h5.54ZM76.57,9.49v-5.06h-5.66v5.06h5.66ZM76.57,15.99v-5.34h-5.66v5.34h5.66Z"/>
      <path class="cls-1" d="M97.13,16.63c-2.21.2-5,.25-8.36.16-1.51-.04-2.59-.23-3.26-.56-1.01-.51-1.51-1.43-1.48-2.78.03-1.44,1.49-2.95,4.4-4.54,1.79-.99,4.34-2.09,7.66-3.3.09-.04.19-.06.28-.06.36,0,.54.2.54.6,0,.32-.14.53-.42.62-3.79,1.35-6.54,2.53-8.26,3.56-1.88,1.12-2.87,2.12-2.96,3-.09.93.26,1.57,1.06,1.92.51.21,1.34.34,2.5.38,2.96.09,5.71.03,8.26-.2.43-.04.64.14.64.54s-.2.62-.6.66ZM89.89,9.27l-1.2.12c-.29-2.85-.43-5.25-.42-7.2,0-.39.21-.58.62-.58.45,0,.66.19.62.58.01,2.4.14,4.76.38,7.08ZM96.85,1.43l-1.14,2.82c-.08.2-.23.3-.46.3-.36,0-.54-.16-.54-.48,0-.05.01-.11.04-.18l1.14-2.82c.08-.2.23-.3.46-.3.36,0,.54.16.54.48,0,.05-.01.11-.04.18ZM99.25,1.83l-1.1,2.76c-.08.2-.22.3-.42.3-.36,0-.54-.17-.54-.5,0-.07.01-.13.04-.2l1.1-2.76c.08-.2.22-.3.42-.3.36,0,.54.17.54.5,0,.07-.01.13-.04.2Z"/>
      <path class="cls-1" d="M117.53,10.61c0,2.32-1.11,4.07-3.34,5.24-1.77.93-4.12,1.45-7.04,1.54-.52.01-.78-.21-.78-.66,0-.35.17-.53.5-.54,6.28-.2,9.42-2.06,9.42-5.58,0-1.99-1.06-2.95-3.18-2.88-1.27.04-2.61.17-4.03.39-1.42.22-2.84.45-4.25.69-.47.08-.7-.11-.7-.56,0-.36.17-.57.5-.62,1.45-.21,2.91-.43,4.36-.64,1.41-.19,2.77-.3,4.08-.34,2.97-.09,4.46,1.23,4.46,3.96ZM115.61,2.91c.45.04.68.25.68.64,0,.44-.25.61-.76.52-2.8-.24-6.04-.32-9.72-.24-.47.01-.7-.19-.7-.6,0-.37.23-.56.7-.56,1.65.01,3.31.03,4.97.04,1.66.01,3.27.08,4.83.2Z"/>
      <path class="cls-1" d="M128.15,9.69c-1.23,2.56-2.73,4.65-4.52,6.28-.09.08-.19.12-.3.12-.17,0-.33-.07-.47-.22-.14-.15-.21-.3-.21-.46,0-.12.05-.23.14-.32,2.08-1.99,3.51-3.99,4.28-6,.05-.19.19-.28.4-.28.17,0,.34.06.49.19.15.13.23.28.23.47,0,.07-.01.14-.04.22ZM136.35,4.15c.23.12.34.3.34.54,0,.16-.05.31-.15.45-.1.14-.21.21-.33.21-.04,0-.08-.01-.12-.04-1.72-.56-3.14-.95-4.26-1.16-1.33-.25-2.88-.41-4.64-.46-.36-.04-.54-.27-.54-.68,0-.37.21-.55.62-.52,2.71.17,5.73.73,9.08,1.66ZM134.11,14.23c.01.87-.17,1.61-.56,2.22-.44.69-1.05,1.04-1.84,1.04-1.67,0-3.12-.69-4.36-2.06-.16-.09-.24-.23-.24-.4s.07-.34.2-.49c.13-.15.28-.23.44-.23.09,0,.18.04.26.12,1.27,1.28,2.5,1.89,3.7,1.84.4-.01.7-.24.9-.68.17-.37.26-.83.26-1.36,0-.83-.24-1.69-.72-2.58-.07-.12-.52-.82-1.36-2.1-.48-.75-.72-1.34-.72-1.78,0-.64.37-1.41,1.12-2.32.12-.12.25-.18.4-.18.16,0,.31.07.44.2s.2.28.2.44c0,.12-.04.22-.12.3-.56.61-.83,1.08-.82,1.4.03.4.28.95.76,1.64.69,1.01,1.13,1.71,1.32,2.08.48.93.73,1.9.74,2.9ZM140.11,15.15c.03.05.04.11.04.18,0,.17-.08.34-.24.49-.16.15-.33.23-.5.23s-.3-.1-.38-.3c-.55-1.39-1.37-2.77-2.46-4.16-.95-1.2-1.75-1.99-2.4-2.36-.09-.08-.14-.17-.14-.28,0-.16.08-.32.23-.47.15-.15.32-.23.49-.23.08,0,.15.02.22.06.73.51,1.58,1.35,2.54,2.52,1.17,1.45,2.04,2.89,2.6,4.32ZM138.19.85l-1.08,2.58c-.08.2-.23.3-.46.3-.36,0-.54-.15-.54-.46,0-.07.01-.13.04-.2l1.08-2.58c.08-.2.23-.3.46-.3.36,0,.54.15.54.46,0,.07-.01.13-.04.2ZM140.59,1.25l-1.1,2.76c-.08.2-.22.3-.42.3-.36,0-.54-.17-.54-.5,0-.07.01-.13.04-.2l1.1-2.76c.08-.2.22-.3.42-.3.36,0,.54.17.54.5,0,.07-.01.13-.04.2Z"/>
      <path class="cls-1" d="M159.43,9.59c-.05,2.6-1.15,4.52-3.3,5.76-1.89,1.09-4.52,1.61-7.88,1.56-.44,0-.66-.21-.66-.62s.22-.62.66-.62c2.92.01,5.21-.38,6.86-1.18.93-.45,1.68-1.13,2.24-2.02.56-.89.84-1.86.84-2.9,0-1.45-.49-2.56-1.48-3.32-.81-.64-1.83-.96-3.04-.96-1.89,0-5.06.42-9.5,1.26-.23.04-.4,0-.53-.12-.13-.12-.19-.28-.19-.48,0-.32.13-.52.4-.6,4.48-.79,7.75-1.18,9.82-1.18,1.57,0,2.88.39,3.92,1.18,1.27.96,1.88,2.37,1.84,4.24Z"/>
      <path class="cls-1" d="M180.55,3.95h-12.4v7.56c0,1.45-.41,2.73-1.24,3.84-.75,1.01-1.69,1.71-2.84,2.08-.07.03-.13.04-.18.04-.35,0-.52-.19-.52-.56,0-.25.13-.43.38-.52.93-.33,1.7-.93,2.3-1.78.64-.93.96-2.01.96-3.24V3.39c0-.37.19-.56.56-.56h6.12v-1.7c0-.37.19-.56.58-.56s.56.19.56.56v1.7h5.72c.37,0,.56.19.56.56s-.19.56-.56.56ZM166.35,10.95l-2.12,1.02c-.08.04-.17.06-.26.06-.36,0-.54-.19-.54-.58,0-.21.11-.37.32-.48l2.12-1.02c.08-.04.17-.06.26-.06.36,0,.54.19.54.58,0,.21-.11.37-.32.48ZM166.39,6.01c.2.11.3.26.3.46,0,.39-.19.58-.56.58-.11,0-.21-.03-.3-.08l-1.94-1.08c-.2-.11-.3-.26-.3-.46,0-.39.19-.58.56-.58.11,0,.21.03.3.08l1.94,1.08ZM180.55,6.69h-5.38v2.3h4.66c.37,0,.56.19.56.56v7.96c0,.37-.19.56-.56.56s-.56-.19-.56-.56v-7.38h-4.14c0,.05-.04.25-.12.58.93,1.25,2.1,2.25,3.5,2.98.2.11.3.26.3.46,0,.4-.19.6-.56.6-.09,0-.19-.03-.3-.1-1.52-.92-2.65-1.85-3.38-2.8-.72,1.49-1.83,2.42-3.34,2.78-.19.04-.34,0-.47-.11-.13-.11-.19-.26-.19-.45,0-.28.14-.45.42-.52.71-.17,1.33-.55,1.86-1.12.6-.64.96-1.41,1.08-2.3h-3.78v7.08c0,.37-.19.56-.56.56s-.58-.19-.58-.56v-7.66c0-.37.19-.56.56-.56h4.42v-2.3h-4.74c-.37,0-.56-.19-.56-.56s.19-.56.56-.56h11.3c.37,0,.56.19.56.56s-.19.56-.56.56Z"/>
      <path class="cls-1" d="M188.45,7.33l-.64.92c-.12.17-.27.26-.46.26-.16,0-.3-.06-.43-.19-.13-.13-.19-.27-.19-.43,0-.15.05-.28.16-.4.52-.61,1.19-1.73,2-3.36.09-.17.14-.34.14-.5,0-.32-.17-.48-.5-.48h-3.56c-.37,0-.56-.21-.56-.62,0-.38.19-.58.56-.58h3.94c.96,0,1.44.46,1.44,1.38,0,.43-.12.87-.36,1.34-.19.39-.47.93-.86,1.64,1,1.09,1.5,2.32,1.5,3.68,0,1-.28,1.85-.85,2.55-.57.7-1.29,1.05-2.17,1.05-.44,0-.89-.09-1.36-.28v4.3c0,.4-.19.6-.58.6s-.58-.2-.58-.6V4.07c0-.4.19-.6.58-.6s.58.2.58.6v7.98c.41.21.81.32,1.2.32.59,0,1.07-.25,1.44-.76.35-.46.52-1.05.52-1.76,0-.96-.32-1.8-.96-2.52ZM194.71,11.81c-.15,1.48-.75,2.82-1.82,4.02-1.17,1.33-2.6,2.09-4.28,2.26-.21.03-.38-.02-.5-.15-.12-.13-.18-.28-.18-.47,0-.33.17-.53.52-.58,1.44-.21,2.65-.86,3.62-1.94.87-.99,1.35-2.06,1.44-3.22.03-.37.23-.56.6-.56.44,0,.64.21.6.64ZM195.13,3.45v-1.78c0-.4.2-.6.6-.6s.6.2.6.6v1.78h4.14c.4,0,.6.2.6.6v2.46c0,.4-.2.6-.6.6s-.6-.2-.6-.6v-1.86h-8.04v1.88c0,.4-.2.6-.6.6s-.6-.2-.6-.6v-2.48c0-.4.2-.6.6-.6h3.9ZM196.17,10.89h-4.74c-.4,0-.6-.2-.6-.6s.2-.6.6-.6h9.26c.4,0,.6.2.6.6s-.2.6-.6.6h-3.32v4.28c0,.39.09.68.28.88.12.13.35.27.68.42.43.17.95.26,1.58.26.19,0,.45-.03.79-.09.34-.06.58-.09.73-.09.36,0,.54.2.54.6,0,.33-.16.54-.48.62-.49.13-1.03.2-1.62.2-.67,0-1.29-.08-1.88-.24-1.21-.41-1.82-1.16-1.82-2.24v-4.6ZM198.79,7.65h-6c-.4,0-.6-.2-.6-.6s.2-.6.6-.6h6c.4,0,.6.2.6.6s-.2.6-.6.6Z"/>
      <path class="cls-1" d="M217.54,2.88c-.9.55-1.63,1.39-2.19,2.51-.61,1.21-.91,2.52-.91,3.95s.3,2.8.91,4.06c.58,1.19,1.29,2.04,2.14,2.54.14.09.21.2.21.34,0,.29-.13.43-.4.43-.07,0-.15-.02-.22-.06-.96-.55-1.77-1.49-2.42-2.8-.7-1.4-1.06-2.9-1.06-4.51s.35-3.05,1.04-4.38c.64-1.26,1.47-2.19,2.48-2.78.07-.04.14-.06.21-.06.28,0,.42.14.42.43,0,.14-.07.25-.21.34Z"/>
      <path class="cls-1" d="M233.51,10.38h-10.21v.88h9.01c.79,0,1.18.33,1.18.98,0,.16-.02.34-.06.54-.19.98-.64,2.14-1.34,3.49-.09.17-.22.26-.4.26-.32,0-.48-.14-.48-.43,0-.06.02-.13.06-.21.22-.41.48-.97.77-1.7.34-.85.51-1.44.51-1.76,0-.19-.11-.29-.32-.29h-6.7v2.62h2.61v-1.86c0-.3.15-.45.45-.45s.43.15.43.45v2.29c0,.3-.15.45-.45.45h-6.94c-.3,0-.45-.15-.45-.45v-2.32c0-.3.15-.45.45-.45s.45.15.45.45v1.89h2.53v-2.62h-1.76c-.3,0-.45-.15-.45-.45v-7.02c0-.31.15-.46.45-.46h2.1l.66-1.57c.07-.18.21-.27.4-.27.32,0,.48.15.48.45,0,.05-.01.11-.03.18l-.48,1.2h5.34c.3,0,.45.15.45.45v3.54c0,.3-.15.45-.45.45h-8v.87h10.21c.3,0,.45.15.45.45s-.15.45-.45.45ZM230.83,6.03v-.97h-7.54v.97h7.54ZM230.83,7.82v-.99h-7.54v.99h7.54Z"/>
      <path class="cls-1" d="M239.17,6.91h-1.86c-.32,0-.48-.16-.48-.48s.16-.48.48-.48h1.86v-2.81c0-.32.16-.48.48-.48s.48.16.48.48v2.81h1.44c.32,0,.48.16.48.48s-.16.48-.48.48h-1.44v1.41c.48.49,1.08,1.11,1.79,1.86.09.1.13.2.13.32,0,.13-.05.24-.14.33-.1.09-.21.13-.34.13s-.25-.05-.35-.14c-.01-.01-.37-.38-1.09-1.12v6.3c0,.32-.16.48-.48.48s-.48-.16-.48-.48v-5.84c-.62,1-1.21,1.73-1.78,2.18-.11.09-.22.13-.34.13-.14,0-.26-.05-.36-.16-.1-.11-.15-.22-.15-.35,0-.11.04-.2.11-.27,1.14-1.17,1.98-2.31,2.51-3.41v-1.36ZM242.21,14.91V4.08c0-.32.16-.48.48-.48h5.84c.32,0,.48.16.48.48v4.8c0,.32-.16.48-.48.48h-5.36v5.15c1.27-.3,2.24-.66,2.91-1.09.1-.05.19-.08.29-.08.13,0,.24.05.34.15s.14.21.14.34c0,.16-.07.29-.22.38-.82.52-1.98.97-3.49,1.34-.15.03-.28.05-.38.05-.36,0-.54-.23-.54-.7ZM248.05,6.03v-1.42h-4.88v1.42h4.88ZM243.17,8.45h4.88v-1.46h-4.88v1.46ZM246.08,11.69c-.23.17-.58.35-1.04.54-.07.03-.15.05-.22.05-.14,0-.26-.05-.36-.15-.1-.1-.15-.22-.15-.36,0-.18.1-.31.29-.4,1.15-.52,2.1-1.1,2.83-1.73.1-.07.2-.11.32-.11.15,0,.28.05.4.14.12.1.18.2.18.32s-.05.22-.16.3c-.43.35-.84.65-1.23.89.37.75.89,1.48,1.55,2.21.76.84,1.54,1.46,2.35,1.86.17.09.26.21.26.38,0,.13-.05.25-.14.36-.1.11-.21.17-.34.17-.06,0-.13-.02-.19-.05-.89-.43-1.74-1.08-2.56-1.97-.73-.77-1.32-1.59-1.78-2.46Z"/>
      <path class="cls-1" d="M257.99,13.76c-.31.38-.78.81-1.42,1.28-.69.5-1.31.85-1.84,1.06-.06.02-.13.03-.19.03-.14,0-.26-.05-.35-.16-.1-.11-.14-.23-.14-.37,0-.2.1-.35.3-.43.45-.18.97-.49,1.58-.92.6-.43,1.04-.81,1.3-1.13.11-.12.23-.18.37-.18.13,0,.25.05.35.15.11.1.16.22.16.36,0,.11-.04.21-.11.3ZM266.72,12.54h-6.06v3.55c0,.32-.16.48-.48.48s-.48-.16-.48-.48v-3.55h-5.02c-.32,0-.48-.16-.48-.48v-7.34c0-.32.16-.48.48-.48s.48.16.48.48v6.86h11.57c.32,0,.48.16.48.48s-.16.48-.48.48ZM264.99,10.16c0,.32-.16.48-.48.48h-6.78c-.32,0-.48-.16-.48-.48V3.58c0-.32.16-.48.48-.48h6.78c.32,0,.48.16.48.48v6.58ZM264.03,5.29v-1.23h-5.82v1.23h5.82ZM264.03,7.45v-1.26h-5.82v1.26h5.82ZM264.03,9.68v-1.33h-5.82v1.33h5.82ZM265.95,15.18c.2.09.3.23.3.43,0,.14-.05.26-.14.37-.1.11-.21.16-.35.16-.06,0-.13-.01-.19-.03-.53-.2-1.15-.55-1.84-1.05-.64-.47-1.11-.9-1.42-1.28-.07-.1-.11-.2-.11-.3,0-.14.05-.26.16-.36.11-.1.22-.15.35-.15.14,0,.26.06.37.18.27.32.7.7,1.3,1.13.6.43,1.13.74,1.58.92Z"/>
      <path class="cls-1" d="M274.42,7.53c-.47.49-1.21,1.12-2.21,1.87-1.18.88-1.98,1.33-2.38,1.33-.31,0-.46-.18-.46-.53,0-.22.11-.37.34-.43.48-.15,1.19-.58,2.14-1.28.86-.65,1.49-1.2,1.87-1.63.1-.12.21-.18.35-.18.13,0,.24.05.34.15.1.1.15.22.15.36,0,.13-.05.24-.14.34ZM283.17,15.77h-13.2c-.32,0-.48-.16-.48-.48s.16-.48.48-.48h1.5v-4.06c0-.32.16-.48.48-.48h8.93c.32,0,.48.16.48.48v4.06h1.81c.32,0,.48.16.48.48s-.16.48-.48.48ZM282.07,6.43h-11.17c-.32,0-.48-.16-.48-.48s.16-.48.48-.48h3.04c-.2-.44-.61-1.06-1.23-1.86-.1-.12-.14-.24-.14-.38,0-.32.14-.48.43-.48.13,0,.25.05.35.16.49.49,1.05,1.34,1.66,2.56h2.75c.51-.6,1.03-1.38,1.55-2.35.1-.18.24-.27.43-.27.32,0,.48.15.48.45,0,.06-.02.13-.05.21-.32.71-.73,1.37-1.22,1.97h3.1c.32,0,.48.16.48.48s-.16.48-.48.48ZM274.48,14.82v-3.58h-2.05v3.58h2.05ZM277.43,14.82v-3.58h-1.98v3.58h1.98ZM283.2,9.77c.22.06.34.21.34.43,0,.34-.16.51-.48.51-.39,0-1.18-.44-2.37-1.33-.95-.71-1.69-1.33-2.21-1.86-.1-.1-.14-.21-.14-.34s.05-.24.15-.35c.1-.11.22-.16.34-.16.14,0,.26.06.35.18.41.46,1.03,1.01,1.89,1.65.93.69,1.64,1.12,2.13,1.26ZM280.4,14.82v-3.58h-2.02v3.58h2.02Z"/>
      <path class="cls-1" d="M298.64,15.14c0,.3-.15.45-.45.45h-10.82c-.3,0-.45-.15-.45-.45V4.96c0-.3.15-.45.45-.45h10.82c.3,0,.45.15.45.45v10.18ZM292.27,9.47v-4.05h-4.43v4.05h4.43ZM292.27,14.67v-4.27h-4.43v4.27h4.43ZM297.73,9.47v-4.05h-4.53v4.05h4.53ZM297.73,14.67v-4.27h-4.53v4.27h4.53Z"/>
      <path class="cls-1" d="M315.59,5.65h-13.01c-.32,0-.48-.16-.48-.48s.16-.48.48-.48h6.02v-1.81c0-.32.16-.48.48-.48s.48.16.48.48v1.81h6.03c.32,0,.48.16.48.48s-.16.48-.48.48ZM314.15,13.97c0,.32-.16.48-.48.48s-.48-.16-.48-.48v-5.46h-3.62v7.42c0,.32-.16.48-.48.48s-.48-.16-.48-.48v-7.42h-3.34v2.24c0,1.55-.54,2.76-1.63,3.63-.09.06-.18.1-.27.1-.14,0-.26-.05-.36-.15-.1-.1-.15-.22-.15-.34s.06-.24.18-.34c.85-.73,1.28-1.74,1.28-3.06v-2.56c0-.32.16-.48.48-.48h3.82v-1.23c0-.32.16-.48.48-.48s.48.16.48.48v1.23h4.1c.32,0,.48.16.48.48v5.94Z"/>
      <path class="cls-1" d="M322.98,9.34c0,1.61-.35,3.12-1.06,4.51-.65,1.31-1.46,2.25-2.42,2.8-.07.04-.15.06-.22.06-.27,0-.4-.14-.4-.43,0-.14.07-.25.21-.34.85-.5,1.57-1.35,2.14-2.54.61-1.26.91-2.61.91-4.06s-.3-2.75-.91-3.95c-.57-1.12-1.3-1.96-2.19-2.51-.14-.09-.21-.2-.21-.34,0-.29.14-.43.42-.43.06,0,.13.02.21.06,1.01.6,1.84,1.53,2.48,2.78.69,1.33,1.04,2.79,1.04,4.38Z"/>
    </g>
  </g>
</svg>