<?xml version="1.0" encoding="UTF-8"?>
<svg id="_レイヤー_2" data-name="レイヤー 2" xmlns="http://www.w3.org/2000/svg" viewBox="0 0 1366 247.3">
  <defs>
    <style>
      .cls-1 {
        fill: #b1788c;
      }

      .cls-2 {
        fill: #e6bfab;
      }
    </style>
  </defs>
  <g id="_背景" data-name="背景">
    <path class="cls-1" d="M1232.49,19.28c-77.07,18.04-104.03,60.79-134.86,88.37-30.83,27.58-61.65,53.05-152.59,46.68-90.94-6.37-157.22-11.67-269.73,47.74-112.52,59.41-238.91,53.05-280.52,22.28s-120.22-95.48-237.37-82.75c-47.57,5.17-104.56,21.76-157.42,40.38L.73,0h1365.27c-20.57,5.87-93.26,9.86-133.51,19.28Z"/>
    <path class="cls-2" d="M410.85,176.17c199.41,51.72,299.12-6.21,369.5-43.44,70.38-37.24,246.33-72.4,398.83-67.06,78.85,2.76,140.44-18.12,186.82-44.93V0S0,0,0,0v211.05c14.44-7.93,30.21-16.79,47.21-26.6,96.77-55.85,164.22-59.99,363.64-8.27Z"/>
  </g>
</svg>