<?xml version="1.0" encoding="UTF-8"?>
<svg id="_レイヤー_2" data-name="レイヤー 2" xmlns="http://www.w3.org/2000/svg" viewBox="0 0 1366 264.3">
  <defs>
    <style>
      .cls-1 {
        fill: #f4a466;
      }

      .cls-2 {
        fill: #b1788c;
      }
    </style>
  </defs>
  <g id="_背景" data-name="背景">
    <path class="cls-1" d="M0,254.3v-40.9c52.86-13.38,109.01-32.24,156.59-35.95,117.14-9.15,183.43-8.23,238.19,2.03,46.32,8.68,168.01,26.69,280.52-16.01,112.52-42.7,178.8-38.89,269.73-34.31,90.94,4.58,121.77-13.73,152.59-33.55,30.83-19.83,95.56-78.54,172.63-91.5,40.25-6.77,72.08-4.18,95.74.82v249.39H0Z"/>
    <path class="cls-2" d="M1366,264.3V99.58c-67.1-22.77-164.18-42.71-317.71-25.77-196.52,21.69-368.63,135.54-549.52,165.29-167.74,27.58-283.69,16.46-498.77-53.44v78.65h1366Z"/>
  </g>
</svg>