<?xml version="1.0" encoding="UTF-8"?>
<svg id="_レイヤー_2" data-name="レイヤー 2" xmlns="http://www.w3.org/2000/svg" viewBox="0 0 1366 262.79">
  <defs>
    <style>
      .cls-1 {
        fill: #799e7c;
      }

      .cls-2 {
        fill: #b1788c;
      }
    </style>
  </defs>
  <g id="_背景" data-name="背景">
    <path class="cls-2" d="M0,251.4v-14.53c52.1,10.48,135.44,21.68,171.96-18.53,46.33-51.01,127.99-70.3,233.97-55.94s160.6-50.57,236.19-80.38c75.59-29.81,135.66-23.41,209.51,5.56s178.69,49.43,305.59,12.6c92.27-26.78,166.33-63.14,208.78-70.86v222.09H0Z"/>
    <path class="cls-1" d="M0,262.79v-87.81c52.86-15.71,109.84-29.71,157.42-34.08,117.14-10.74,195.75,43.87,237.37,69.84,41.62,25.97,168.01,31.34,280.52-18.8,112.52-50.14,178.8-45.67,269.73-40.29,90.94,5.37,121.77-16.12,152.59-39.4,30.83-23.28,95.56-92.23,172.63-107.45,40.25-7.95,72.08-4.91,95.74.96v257.03s-1366,0-1366,0Z"/>
  </g>
</svg>