<?xml version="1.0" encoding="UTF-8"?>
<svg id="_レイヤー_2" data-name="レイヤー 2" xmlns="http://www.w3.org/2000/svg" viewBox="0 0 1366 264.06">
  <defs>
    <style>
      .cls-1 {
        fill: #e6bfab;
      }

      .cls-2 {
        fill: #5a7e92;
      }
    </style>
  </defs>
  <g id="_背景" data-name="背景">
    <path class="cls-2" d="M1366,249.52V0c-46.38,26.81-107.97,47.69-186.82,44.93-152.49-5.34-328.45,29.83-398.83,67.06-70.38,37.24-170.09,95.16-369.5,43.44-199.41-51.72-266.86-47.58-363.64,8.27C30.21,173.53,14.44,182.38,0,190.31v59.2s1366,0,1366,0Z"/>
    <path class="cls-1" d="M955.15,75.86c-199.41-51.72-299.12,6.21-369.5,43.44-70.38,37.24-246.33,72.4-398.83,67.06C107.97,183.61,46.38,204.49,0,231.3v32.76s1366,0,1366,0V40.99c-14.44,7.93-30.21,16.79-47.21,26.6-96.77,55.85-164.22,59.99-363.64,8.27Z"/>
  </g>
</svg>