<?xml version="1.0" encoding="UTF-8"?>
<svg xmlns="http://www.w3.org/2000/svg" viewBox="0 0 1366 254.3">
  <defs>
    <style>
      .cls-1 {
        fill: #e6bfab;
      }

      .cls-2 {
        fill: #8caac9;
      }
    </style>
  </defs>
  <g>
    <path class="cls-1" d="M1366,0v40.9c-52.86,13.38-109.01,32.24-156.59,35.95-117.14,9.15-183.43,8.23-238.19-2.03-46.32-8.68-168.01-26.69-280.52,16.01-112.52,42.7-178.8,38.89-269.73,34.31-90.94-4.58-121.77,13.73-152.59,33.55-30.83,19.83-95.56,78.54-172.63,91.5C55.49,256.98,23.65,254.39,0,249.39V0s1366,0,1366,0Z"/>
    <path class="cls-2" d="M0,0v154.72c67.1,22.77,164.18,42.71,317.71,25.77,196.52-21.69,368.63-135.54,549.52-165.29,167.74-27.58,283.69-16.46,498.77,53.44V0H0Z"/>
  </g>
</svg>