<?xml version="1.0" encoding="UTF-8"?>
<svg id="_レイヤー_2" data-name="レイヤー 2" xmlns="http://www.w3.org/2000/svg" viewBox="0 0 28.71 22.03">
  <defs>
    <style>
      .cls-1 {
        fill: #5a7e92;
      }
    </style>
  </defs>
  <g id="_テキスト" data-name="テキスト">
    <g>
      <path class="cls-1" d="M11.85,13.33v5.32H1.01V2.7h10.84v7.32s.06.03.08.04c.22.12.55.3.92.5V1.4c0-.77-.63-1.4-1.4-1.4H1.4C.63,0,0,.63,0,1.4v19.23c0,.77.63,1.4,1.4,1.4h10.06c.77,0,1.4-.63,1.4-1.4v-6.81c-.36-.17-.7-.34-1.01-.49ZM6.43,21.39c-.54,0-.98-.44-.98-.98s.44-.98.98-.98.98.44.98.98-.44.98-.98.98Z"/>
      <path class="cls-1" d="M16.17,21.39c-.53,0-1.08-.13-1.48-.37-.42-.25-.7-.61-.79-1.03-.27-1.2.27-2.17,1.39-2.55.19-.06.45-.12.75-.19.38-.08,1.19-.26,1.52-.44-.1-.09-.3-.23-.7-.43-1.06-.52-2.58-1.26-3.93-1.92-1.19-.58-2.22-1.08-2.7-1.32-1.42-.71-2.03-1.89-1.56-3.01.18-.42.52-.73.98-.89.82-.29,1.87-.04,2.53.33.41.23,1.17.63,1.91,1.01.22.11.43.23.64.33-.01-.26.04-.54.21-.81.21-.35.62-.81,1.28-.78-.03-.4.02-.88.33-1.25.39-.47,1.08-.58,1.7-.43-.04-.54.04-1.17.66-1.44.88-.39,1.76.11,2.61.59.18.1.37.21.56.31.17.09.49.23.86.4,2.64,1.18,5.24,2.46,5.51,4.02.26,1.53,1.06,6.19-2.93,7.39-2.38.71-5.11,1.44-6.92,1.92-.77.2-1.37.36-1.62.44-.26.08-.54.11-.82.11ZM10.46,10.22c-.16,0-.31.02-.44.06-.22.08-.3.2-.33.28-.35.83.71,1.44,1.04,1.61.48.24,1.5.74,2.69,1.32,1.35.66,2.87,1.4,3.93,1.92.69.34,1.47.83,1.38,1.54-.1.85-1.35,1.13-2.46,1.37-.26.06-.51.11-.64.16-.73.24-.77.83-.67,1.28.01.05.04.19.28.33.36.21.99.28,1.44.15.27-.08.85-.23,1.65-.45,1.8-.48,4.52-1.2,6.88-1.91,2.75-.83,2.56-3.91,2.17-6.16-.19-1.12-3.59-2.63-4.88-3.2-.4-.18-.72-.32-.92-.43-.2-.11-.4-.22-.59-.33-.66-.38-1.24-.7-1.62-.55-.07.14,0,.61.03.79.06.37.12.78-.26,1-.11.06-.4.18-.74-.1-.32-.25-.87-.29-1.01-.13-.15.19-.06.69-.02.93.05.27.11.6-.19.83-.17.13-.4.15-.6.05-.02-.01-.05-.03-.08-.04-.31-.17-.43-.2-.63.13-.17.28.22.81.37,1,.09.12.37.49.06.84-.09.1-.36.32-.79.06-.25-.15-1.1-.59-1.93-1.03-.75-.39-1.52-.79-1.93-1.03-.37-.2-.83-.32-1.21-.32Z"/>
    </g>
  </g>
</svg>