<?xml version="1.0" encoding="UTF-8"?>
<svg id="_レイヤー_2" data-name="レイヤー 2" xmlns="http://www.w3.org/2000/svg" viewBox="0 0 32.16 24.68">
  <defs>
    <style>
      .cls-1 {
        fill: #333;
      }
    </style>
  </defs>
  <g id="_テキスト" data-name="テキスト">
    <g>
      <path class="cls-1" d="M13.27,14.93v5.95H1.13V3.02h12.15v8.2s.06.03.09.05c.25.14.62.33,1.04.55V1.57c0-.87-.7-1.57-1.57-1.57H1.57C.7,0,0,.7,0,1.57v21.54c0,.87.7,1.57,1.57,1.57h11.26c.87,0,1.57-.7,1.57-1.57v-7.63c-.4-.19-.78-.38-1.13-.55ZM7.2,23.96c-.61,0-1.1-.49-1.1-1.1s.49-1.1,1.1-1.1,1.1.49,1.1,1.1-.49,1.1-1.1,1.1Z"/>
      <path class="cls-1" d="M18.11,23.96c-.6,0-1.2-.14-1.66-.41-.47-.28-.78-.68-.88-1.16-.3-1.34.3-2.44,1.56-2.85.21-.07.5-.13.84-.21.42-.09,1.33-.29,1.7-.5-.11-.1-.34-.26-.78-.48-1.18-.59-2.89-1.42-4.4-2.15-1.33-.65-2.48-1.21-3.02-1.48-1.59-.79-2.27-2.11-1.75-3.37.2-.47.58-.82,1.1-1,.92-.32,2.09-.04,2.84.37.45.25,1.31.7,2.14,1.13.24.13.49.25.71.37-.02-.29.04-.6.23-.91.24-.39.69-.91,1.44-.87-.03-.45.02-.98.37-1.4.44-.53,1.21-.65,1.9-.48-.04-.6.04-1.31.74-1.62.99-.43,1.97.12,2.92.66.2.12.41.23.63.35.19.1.55.26.97.45,2.96,1.32,5.87,2.75,6.17,4.5.29,1.71,1.19,6.93-3.28,8.27-2.67.8-5.72,1.61-7.75,2.15-.86.23-1.54.41-1.82.49-.29.08-.6.12-.92.12ZM11.71,11.44c-.18,0-.35.02-.49.07-.25.09-.33.22-.37.32-.39.93.79,1.61,1.17,1.8.53.27,1.68.83,3.01,1.47,1.51.73,3.22,1.57,4.4,2.15.77.38,1.65.92,1.55,1.73-.12.96-1.52,1.26-2.75,1.53-.29.06-.57.12-.72.17-.82.27-.86.93-.75,1.43.01.05.05.21.31.37.41.24,1.11.31,1.61.17.3-.09.95-.26,1.85-.5,2.02-.54,5.06-1.34,7.71-2.14,3.08-.92,2.86-4.38,2.43-6.9-.21-1.25-4.03-2.95-5.46-3.59-.45-.2-.81-.36-1.04-.48-.23-.12-.45-.24-.66-.37-.74-.42-1.39-.79-1.82-.61-.08.16,0,.69.04.89.06.41.14.87-.29,1.12-.12.07-.44.2-.83-.11-.35-.28-.97-.33-1.13-.14-.17.21-.07.77-.02,1.04.05.3.12.68-.21.93-.19.15-.45.17-.67.06-.02-.01-.06-.03-.09-.05-.35-.19-.48-.22-.71.15-.19.32.25.9.42,1.13.1.14.42.55.07.94-.1.12-.4.35-.88.06-.28-.17-1.23-.67-2.16-1.15-.84-.44-1.7-.89-2.17-1.15-.41-.23-.93-.36-1.36-.36Z"/>
    </g>
  </g>
</svg>