<?xml version="1.0" encoding="UTF-8"?>
<svg id="_レイヤー_2" data-name="レイヤー 2" xmlns="http://www.w3.org/2000/svg" viewBox="0 0 23.39 23.39">
  <defs>
    <style>
      .cls-1 {
        fill: #5a7e92;
      }
    </style>
  </defs>
  <g id="_テキスト" data-name="テキスト">
    <g>
      <path class="cls-1" d="M11.03,12.51c1.16,1.16,2.17,2.54,2.47,2.81s.51.02.51-.32.17-.97.55-1.57c.36-.6.73-.46,1.11-.27.39.19,2.35,1.26,2.69,1.5.85.56.05,1.48-.43,1.96s-2.83,1.98-3.51,1.82c-.94-.22-3.92-2.64-5.3-4.02-1.38-1.38-3.8-4.37-4.02-5.3-.15-.68,1.35-3.04,1.82-3.51.48-.48,1.4-1.28,1.96-.43.24.34,1.31,2.3,1.5,2.69.19.38.32.75-.27,1.11-.6.38-1.23.55-1.57.55s-.6.2-.32.51,1.65,1.31,2.81,2.47Z"/>
      <path class="cls-1" d="M11.69,23.39C5.25,23.39,0,18.14,0,11.69S5.25,0,11.69,0s11.69,5.25,11.69,11.69-5.25,11.69-11.69,11.69ZM11.69,1.07C5.83,1.07,1.07,5.83,1.07,11.69s4.77,10.62,10.62,10.62,10.62-4.77,10.62-10.62S17.55,1.07,11.69,1.07Z"/>
    </g>
  </g>
</svg>