<?xml version="1.0" encoding="UTF-8"?>
<svg id="_レイヤー_2" data-name="レイヤー 2" xmlns="http://www.w3.org/2000/svg" viewBox="0 0 174.22 108.12">
  <defs>
    <style>
      .cls-1 {
        fill: #333;
      }
    </style>
  </defs>
  <g id="_テキスト" data-name="テキスト">
    <g>
      <path class="cls-1" d="M16.58,34.83l-1.04-.8-.4-1.04v-4.08l-.2-.2v-2.28l.2-1-.2-1.24.2-.2v-3.28l-.8-.4-1.24.4h-2.04l-6.57,1.04c-.96-.56-1.38-1.39-1.24-2.48l.84-.4h2.24l4.28-.8h2.88l1.44-.44.2-.2v-2.44l-.2-.2v-2.28l-.6-1.44-.64-.2-5.33,1.44h-2.68c-.93-.67-1.33-1.61-1.2-2.84l.6-.24h3.08l3.08-.6h2.24l.84-.4.2-.84-1.04-5.12V.2l1.84-.2c.96.69,1.44,1.51,1.44,2.44l-.2,1.44.6,4.12,2.04.2,3.72-.4,1.2,1v1.04l-.6.8-1.04.2-1.44-.4h-2.24l-1.24.4-.2.2v2.08l.2.2v2.64l.44,1.24h1.64l5.33-1.24h2.44l1.24,1.04v1.04c-2.06.67-4.24,1.13-6.57,1.4h-2.24l-1.84.64-.2.2v3.68l-.24,1.04.24.2v4.28l.6,2.28-.2.2v2.24l-1.64.6Z"/>
      <path class="cls-1" d="M44.02,31.75c-.8-.67-1.33-1.4-1.6-2.2v-2.04l-.2-.2v-2.4l-.2-.24v-11.29l-.2-.2v-2.44c.53-.4,1.13-.53,1.8-.4l1.4,1.24h1.24c2.96-.83,5.99-1.44,9.09-1.84h8.05l1.44,1v1.84l-.2.2v10.29l.2.8-.2.2v2.04l1.2,2c-.67.96-1.07,1.98-1.2,3.04l-2.04.2-1-1.4.2-.64-1.6-.4-.2.2h-4.44l-.2.2h-2.24l-7.05,1.44-.44.8-1.6.2ZM61.8,26.31l.2-1.2-.2-.2v-3.24l-.2-1.64.2-.6-.2-.2v-6.85c-.67-.4-1.42-.53-2.24-.4l-.2.2h-2c-4.3.4-8.41,1.33-12.33,2.8l-.2.2v2.04l.2.2v3.04l.2.8-.2.2v3.44l.4,2.6h3.04l3.04-.6h2.6l.2-.2h2.84l2-.2,1.84.2,1-.4Z"/>
      <path class="cls-1" d="M81.43,31.75c-.8-.67-1.33-1.4-1.6-2.2v-2.04l-.2-.2v-2.4l-.2-.24v-11.29l-.2-.2v-2.44c.53-.4,1.13-.53,1.8-.4l1.4,1.24h1.24c2.96-.83,5.99-1.44,9.09-1.84h8.05l1.44,1v1.84l-.2.2v10.29l.2.8-.2.2v2.04l1.2,2c-.67.96-1.07,1.98-1.2,3.04l-2.04.2-1-1.4.2-.64-1.6-.4-.2.2h-4.44l-.2.2h-2.24l-7.05,1.44-.44.8-1.6.2ZM99.21,26.31l.2-1.2-.2-.2v-3.24l-.2-1.64.2-.6-.2-.2v-6.85c-.67-.4-1.42-.53-2.24-.4l-.2.2h-2c-4.3.4-8.41,1.33-12.33,2.8l-.2.2v2.04l.2.2v3.04l.2.8-.2.2v3.44l.4,2.6h3.04l3.04-.6h2.6l.2-.2h2.84l2-.2,1.84.2,1-.4Z"/>
      <path class="cls-1" d="M8.25,81.31l-1.44-1.24-.16-.68,3.88-1.24.52-1.44c-1.66-.21-2.91-.63-3.76-1.24l-.16-.72,3.4-1.2.52-1.56-2.92-.36-2.2.24-1.72-1.32-.32-1.12.12-.12v-3.8l-.64-4.12c1.25-.24,2.47-.68,3.64-1.32l.2.16h3.12c.91-.69,1.27-1.65,1.08-2.88l-1.76-.64-8.05,1.48-1.6-1.48v-.36l.08-.2,7.05-1.2h2.8l1.52-.44v-2.24l-3.4-.76-.12-.76c2.32-2.83,5.12-4.63,8.41-5.41l1.44.96v.48l-3.48,2-.4,1v3.6c.99.69,2.1.93,3.32.72l.2-.2h3.44l.84-.24,1.4.8.16,1.04-.44.4h-6.93l-2,.68v2.64l.88.72h4.56l1.76.72.68,2.24v3.72l.6,2.28c-2.22,1.63-4.99,2.44-8.33,2.44l-.52,1.6,3.44.96.92-.2,1,1.04-.24.68h-2.84l-1-.24-1.36.96v1l.32,1.12,4.68.24.28-.24h3.04l.52.72c-1.15,1.07-2.91,1.49-5.29,1.28l-1.28-.2c-2.62.35-5.11.76-7.49,1.24ZM11.13,64.22l.36-1.52-.84-.96h-4l-.4,1.96,1.16,1.08h3.2l.52-.56ZM10.81,69.38l.72-2.08c-1.2-.85-2.63-1.19-4.28-1l-.76,2.44c1.17.91,2.47,1.27,3.88,1.08l.44-.44ZM18.38,68.46l.76-1.56c-1.2-.91-2.5-1.28-3.88-1.12l-1.6,1.24v1.52c.91.69,1.99.96,3.24.8l1.48-.88ZM18.42,63.9l.52-1.8-4.64-.64-.44,2.32c1.01.69,2.02.92,3,.68l1.56-.56ZM34.75,79.83l-1.2-.64-.88-1.92,1.28-4.32v-3.52l-2.52-.84-1.2.32c-.88,3.18-2.12,6.06-3.72,8.65l-2.16.44-.56-1.12,2.92-6.89-2.6-2.4v-.16l3.6-.72,1.56-5.53.8-.16,1.56.72h.04v2.2l-.56,2.48.6.64h4.08l1.2,1.04v.28l-.24.28v2.8l.16.52-.44.36v3.52l-1.16,3.76-.56.2Z"/>
      <path class="cls-1" d="M54.91,80.79l-1.56-1.08-.12-.12v-2.92l-.2-.6.2-.2v-2.68l.28-1.48-2.04-.52-5.85,1.44-1.64-.88-.16-.96c3.12-.72,6.47-1.49,10.05-2.32l.8-6.09-1.52-.6-3.32,1-.32.4v2.88l.16,1.48-.72.28-2.2-1.52-.16-.16v-5.17l1.64-7.81,2.2-.2.72.6v1.16l-1.24,5.08,2.8.28,2.12-.8.52-2.6v-4.52l-.2-.72,1.08-.52,2.04.84.2,1.12-.48,2.12v3.6c1.57.32,2.86.69,3.84,1.12l-.04.64c-1.28.48-2.59.88-3.92,1.2l-.6,1.12v3.16l-.28,2.32,1.08.32,4.2-.96.84,1.08.56.8c-1.44.72-3.76,1.23-6.97,1.52l-.6,1.16v2.44l-.2,2.44.64,2.84-.96.96h-.68ZM62.88,66.94v-4.88l-.24-1.68.24-1.6-.92-4.96c.61-.4,1.37-.52,2.28-.36.51.51.76,1.39.76,2.64.93.93,2.08,1.4,3.44,1.4h4.84l.24-.28h9.61c.48.37.65.87.52,1.48-.48,2.24-.88,4.5-1.2,6.77l.24.64c-.61,4.64-1.68,9.09-3.2,13.33l-1.36.2-1.2-.6-.16-.76c1.87-5.71,3.04-11.96,3.52-18.74l-2.2-.56-1,.32c-.8,6.03-2.36,11.58-4.68,16.66l-.96.4-1.08-.56-.24-.92c1.9-4.7,3.26-9.74,4.08-15.13l-1.96-.6c-1.84,4.56-2.91,9.22-3.2,13.97l-1.72.2c-.93-.67-1.24-1.56-.92-2.68l2.44-11.61-2.96-.32-.68,1.52.28.76-.24,2.12v3.08l-.04,1.96-1.6.16-.72-1.36Z"/>
      <path class="cls-1" d="M98.57,81.55l-1.28-1.88.16-.16v-5.08l.24-.28v-3l.28-1.76-1.36-.36c-1.52.83-3.03,1.24-4.52,1.24l-1.76-1.6v-.28c2.43-.77,5-1.41,7.73-1.92l.76-2.08c-2.86-.32-5.38-1.11-7.57-2.36l-.16-.64.24-.24h2.52l5.04,1.28,1-7.93c-.8-.69-1.2-1.39-1.2-2.08l2.36-.68h2.52l4.52-1.04.4-.4v-2.6l-.96-3.64.4-.92h2l1.04,1.92-.2.72.8,4.48,1.4.28.2-.24h2.92l1.96-.52h4.48l1.28,1.08v.44c-.69.69-1.66,1.04-2.88,1.04h-2.56l-.24.24h-3.64l-11.01,1.52-2.32,12.77v2.48l-.48,1.72v3.12l-.2.24v5.49l.2,1.12c-.51.61-1.21.79-2.12.52ZM107.7,80.23l-1.24-.6-.84-1.8v-2.92l.2-.24v-3.2l.24-.24v-2.96l.24-.24v-3.52l2-.24.2.28h3.52l1.36-1.2v-1.84l-2.28-.56-3.6.76c-.99-.45-1.6-1.13-1.84-2.04l.48-.56h2.36l2.64-.44h3.28l.24-.28h3.48l.24-.24h4.4l.84.64.16.92-.76.76h-2.48l-.2.28h-4.12l-.32,2.8.72.72h5.17l.28-.24h4.16l.8.56v8.61l-.24.24v3.68l-.68,1.76-1.64.4-1-.6-.2-.76.76-3.08v-7.85l-1-.88h-2.64l-.24.2h-2.36l-1.2-.24-.76,1.4,2.96,3.4.76.28,2.32,2.28v.32l-2.08.44-4.68-3.68-.64,2.8.16.6-.72,1h-1.48l-.8-.32-.2-2,1.28-5.69-2.12-.64-1.24.68-.52,2.64v2.88l-.28.24v5.29l.48,1.2-.4.68-.92.36Z"/>
      <path class="cls-1" d="M137.46,81.67l-1.6-1.52v-5.12l-.24-.96.24-1.04-.2-.64.2-.16v-3.08l.28-.28v-4.92l.24-2.64-.24-.24v-3.88l-.28-.2v-2.8l-.24-.28v-2.4l-.48-1.48.4-1.2.88-.16.24.2h6.25c2.14.13,4.15.65,6.05,1.56l1.64-.8,4.84.8.68-1.64-1.16-4.68c.4-.37.95-.49,1.64-.36l1.68,1.4.48,4.44,1.96.36.28-.32h2.24l.28.28h4.48l1.16-.28,1.88,1.2c.4.53.53,1.21.4,2.04l-.32.32v4.88c-.37.61-.95.87-1.72.76l-.88-.64-.2-2.28.2-1.08-.76-2.16-.44-.44h-4.64l-1.28-.24-4.36.72h-2.48l-.84-.24c-.69.85-.95,1.78-.76,2.76l.84,1.8.32.52h7.89l.28.2h3.04l1.56.88.16,1.16-.44.32h-3.36l-.28-.24h-5l-.32.24h-3.6l-2.4.44-.8-.56-.56-2.32.32-2.52-.8-3.96h-1.2l-1.16,1.64-1.88,1.96h-.56l-.64,1.12-2.08,2.52c2.51.35,4.5,1.46,5.97,3.32l.16.12v2.24c-.99,1.58-2.27,2.76-3.84,3.56l-2.16.24-2.68-1.16-.96,2.2v7.85l.48,2.92-.88,1.84-.88.12ZM140.06,56.09l3.92-3.64v-1.2l-3.72-.32-1.64.8-.4.44v3.24l.36,1.08h1.12l.36-.4ZM144.47,64.18l.88-2.8-5.57-1.12-.84.76v4.16l2.24.68,3.28-1.68ZM152.32,79.95l-.96-.84v-1.76l6.05-10.77h-2.2l-4.12.8c-.96-.56-1.39-1.29-1.28-2.2,1.9-.45,3.8-.83,5.73-1.12h3.72l.24-.24h3.2l4.2-.76,2.28,1.56.2.48c-1.01.69-2.23,1.04-3.64,1.04l-1.64-.28c-.91.59-1.25,1.48-1.04,2.68.37,2.08,1.27,4.03,2.68,5.85l2.04.52c1.76-.83,3.5-1.49,5.21-2,.83.56,1.24,1.32,1.24,2.28-2.06,1.63-4.46,2.54-7.21,2.72-1.42-.45-2.7-1.29-3.84-2.52l-2.32-4.88-1.4-.36-5.57,9.57-1.56.24Z"/>
    </g>
    <g>
      <path class="cls-1" d="M7.16,107.88c.04.1.01.15-.09.15h-.95c-.11,0-.18-.05-.23-.15l-1.83-4.18s-.04-.05-.07-.05c-.04,0-.06.01-.08.04l-.42.68c-.04.09-.05.16-.05.21v3.28c0,.11-.05.16-.16.16h-.84c-.11,0-.16-.05-.16-.16v-9.58c0-.12.05-.17.16-.17h.84c.11,0,.16.06.16.17v3.66s.02.06.05.07c.03,0,.05,0,.07-.03l2.22-3.72c.06-.1.14-.15.24-.15h1.03c.12,0,.14.05.08.15l-2.33,3.91c-.06.11-.07.21-.01.29l2.37,5.41Z"/>
      <path class="cls-1" d="M12.22,107.87c0,.11-.05.16-.16.16h-.83c-.11,0-.16-.05-.16-.16v-9.58c0-.11.05-.16.16-.16h.83c.11,0,.16.05.16.16v9.58Z"/>
      <path class="cls-1" d="M21.04,101.87c0,.85-.35,1.51-1.06,1.98-.09.06-.12.14-.09.24l1.1,3.78c.03.11-.01.16-.12.16h-.88c-.1,0-.17-.05-.2-.16l-1.02-3.47c-.04-.11-.11-.16-.21-.16h-1.12c-.11,0-.16.05-.16.16v3.47c0,.11-.06.16-.17.16h-.83c-.11,0-.16-.05-.16-.16v-9.58c0-.12.05-.17.16-.17h2.42c.65,0,1.21.23,1.67.7.46.46.69,1.02.69,1.67v1.38ZM19.88,101.87v-1.38c0-.33-.12-.61-.35-.85-.23-.24-.51-.35-.84-.35h-1.26c-.11,0-.16.06-.16.17v3.46c0,.11.05.16.16.16h1.26c.33,0,.61-.12.84-.35.23-.24.35-.52.35-.85Z"/>
      <path class="cls-1" d="M29.84,105.75c0,.65-.23,1.21-.69,1.67-.46.46-1.02.7-1.67.7h-.23c-.65,0-1.21-.23-1.67-.7s-.69-1.02-.69-1.67v-5.36c0-.65.23-1.21.69-1.67.46-.46,1.02-.7,1.67-.7h.23c.65,0,1.21.23,1.67.7.46.46.69,1.02.69,1.67v5.36ZM28.68,105.75v-5.36c0-.33-.12-.61-.35-.85-.23-.24-.51-.35-.84-.35h-.23c-.33,0-.61.12-.84.35-.23.24-.35.52-.35.85v5.36c0,.33.12.61.35.85.23.24.51.35.84.35h.23c.33,0,.61-.12.84-.35.23-.24.35-.52.35-.85Z"/>
      <path class="cls-1" d="M38.64,101.87c0,.85-.35,1.51-1.06,1.98-.09.06-.12.14-.09.24l1.1,3.78c.03.11-.01.16-.12.16h-.88c-.1,0-.17-.05-.2-.16l-1.02-3.47c-.04-.11-.11-.16-.21-.16h-1.12c-.11,0-.16.05-.16.16v3.47c0,.11-.06.16-.17.16h-.83c-.11,0-.16-.05-.16-.16v-9.58c0-.12.05-.17.16-.17h2.42c.65,0,1.21.23,1.67.7.46.46.69,1.02.69,1.67v1.38ZM37.48,101.87v-1.38c0-.33-.12-.61-.35-.85-.23-.24-.51-.35-.84-.35h-1.26c-.11,0-.16.06-.16.17v3.46c0,.11.05.16.16.16h1.26c.33,0,.61-.12.84-.35.23-.24.35-.52.35-.85Z"/>
      <path class="cls-1" d="M47.44,105.75c0,.65-.23,1.21-.69,1.67-.46.46-1.02.7-1.67.7h-.23c-.65,0-1.21-.23-1.67-.7s-.69-1.02-.69-1.67v-5.36c0-.65.23-1.21.69-1.67.46-.46,1.02-.7,1.67-.7h.23c.65,0,1.21.23,1.67.7.46.46.69,1.02.69,1.67v5.36ZM46.27,105.75v-5.36c0-.33-.12-.61-.35-.85-.23-.24-.51-.35-.84-.35h-.23c-.33,0-.61.12-.84.35-.23.24-.35.52-.35.85v5.36c0,.33.12.61.35.85.23.24.51.35.84.35h.23c.33,0,.61-.12.84-.35.23-.24.35-.52.35-.85Z"/>
      <path class="cls-1" d="M61.26,107.87c.02.11-.03.16-.13.16h-.86c-.11,0-.17-.05-.19-.16l-.25-1.3c-.02-.11-.08-.16-.2-.16h-1.61c-.11,0-.17.05-.2.16l-.24,1.3c-.03.11-.09.16-.2.16h-.86c-.11,0-.15-.05-.13-.16l1.83-9.59c.03-.11.09-.16.2-.16h.82c.11,0,.17.05.19.16l1.83,9.59ZM59.54,105.08l-.66-3.42s-.03-.05-.07-.05-.06.02-.07.05l-.64,3.42c-.04.11,0,.16.13.16h1.17c.11,0,.15-.05.13-.16Z"/>
      <path class="cls-1" d="M69.92,107.87c0,.11-.05.16-.16.16h-.87c-.12,0-.19-.05-.23-.15l-2.4-6.27s-.04-.05-.07-.05c-.04,0-.05.03-.05.07v6.23c0,.12-.06.17-.17.17h-.83c-.11,0-.16-.06-.16-.17v-9.58c0-.11.05-.16.16-.16h.87c.11,0,.18.05.23.16l2.4,6.25s.03.05.07.04c.04,0,.05-.03.05-.07v-6.23c0-.11.06-.16.17-.16h.83c.11,0,.16.05.16.16v9.59Z"/>
      <path class="cls-1" d="M74.96,107.87c0,.11-.05.16-.16.16h-.83c-.11,0-.16-.05-.16-.16v-9.58c0-.11.05-.16.16-.16h.83c.11,0,.16.05.16.16v9.58Z"/>
      <path class="cls-1" d="M84.96,107.87c0,.11-.05.16-.16.16h-.83c-.12,0-.17-.05-.17-.16v-6.17s-.02-.06-.05-.07c-.04,0-.06,0-.07.04l-1.27,3.38c-.04.11-.12.16-.23.16h-.55c-.11,0-.18-.05-.23-.16l-1.27-3.38s-.03-.05-.07-.04c-.04,0-.05.03-.05.07v6.17c0,.11-.06.16-.17.16h-.83c-.11,0-.16-.05-.16-.16v-9.58c0-.12.05-.17.16-.17h.87c.11,0,.18.05.23.16l1.74,4.62s.03.04.05.04c.04,0,.06-.01.07-.04l1.74-4.62c.04-.11.12-.16.23-.16h.87c.11,0,.16.06.16.17v9.58Z"/>
      <path class="cls-1" d="M93.56,107.87c.02.11-.03.16-.13.16h-.86c-.11,0-.17-.05-.19-.16l-.25-1.3c-.02-.11-.08-.16-.2-.16h-1.61c-.11,0-.17.05-.2.16l-.24,1.3c-.03.11-.09.16-.2.16h-.86c-.11,0-.15-.05-.13-.16l1.83-9.59c.03-.11.09-.16.2-.16h.82c.11,0,.17.05.19.16l1.83,9.59ZM91.85,105.08l-.66-3.42s-.03-.05-.07-.05-.06.02-.07.05l-.64,3.42c-.04.11,0,.16.13.16h1.17c.11,0,.15-.05.13-.16Z"/>
      <path class="cls-1" d="M102.24,107.87c0,.11-.05.16-.16.16h-4.63c-.11,0-.16-.05-.16-.16v-9.58c0-.12.05-.17.16-.17h.84c.11,0,.16.06.16.17v8.41c0,.11.05.16.16.16h3.47c.11,0,.16.05.16.16v.84Z"/>
      <path class="cls-1" d="M116.25,107.87c0,.11-.05.16-.16.16h-.83c-.12,0-.17-.05-.17-.16v-4.04c0-.11-.05-.16-.16-.16h-2.29c-.11,0-.16.05-.16.16v4.04c0,.11-.06.16-.17.16h-.83c-.11,0-.16-.05-.16-.16v-9.58c0-.11.05-.16.16-.16h.83c.12,0,.17.05.17.16v4.04c0,.11.05.16.16.16h2.29c.11,0,.16-.05.16-.16v-4.04c0-.11.06-.16.17-.16h.83c.11,0,.16.05.16.16v9.58Z"/>
      <path class="cls-1" d="M125.04,105.75c0,.65-.23,1.21-.69,1.67-.46.46-1.02.7-1.67.7h-.23c-.65,0-1.21-.23-1.67-.7s-.69-1.02-.69-1.67v-5.36c0-.65.23-1.21.69-1.67.46-.46,1.02-.7,1.67-.7h.23c.65,0,1.21.23,1.67.7.46.46.69,1.02.69,1.67v5.36ZM123.88,105.75v-5.36c0-.33-.12-.61-.35-.85-.23-.24-.51-.35-.84-.35h-.23c-.33,0-.61.12-.84.35-.23.24-.35.52-.35.85v5.36c0,.33.12.61.35.85.23.24.51.35.84.35h.23c.33,0,.61-.12.84-.35.23-.24.35-.52.35-.85Z"/>
      <path class="cls-1" d="M133.84,105.75c0,.65-.23,1.21-.69,1.67-.46.46-1.02.7-1.67.7h-.23c-.65,0-1.21-.23-1.67-.7s-.69-1.02-.69-1.67v-.87c0-.11.05-.16.16-.16h.83c.12,0,.17.05.17.16v.87c0,.33.12.61.35.85.23.24.51.35.84.35h.23c.33,0,.61-.12.84-.35.23-.24.35-.52.35-.85,0-.52-.17-.92-.51-1.22-1.46-1.26-2.24-1.94-2.36-2.05-.61-.87-.91-1.57-.91-2.09,0-.65.23-1.21.69-1.67.46-.46,1.02-.7,1.67-.7h.23c.65,0,1.21.23,1.67.7.46.46.69,1.02.69,1.67v.87c0,.12-.05.17-.16.17h-.83c-.12,0-.17-.06-.17-.17v-.87c0-.33-.12-.61-.35-.85-.23-.24-.51-.35-.84-.35h-.23c-.33,0-.61.12-.84.35-.23.24-.35.52-.35.85,0,.52.17.92.51,1.22l2.36,2.04c.61.53.91,1.23.91,2.1Z"/>
      <path class="cls-1" d="M142.64,101.87c0,.65-.23,1.21-.69,1.67-.46.46-1.02.7-1.67.7h-1.26c-.11,0-.16.05-.16.16v3.47c0,.11-.06.16-.17.16h-.83c-.11,0-.16-.05-.16-.16v-9.58c0-.12.05-.17.16-.17h2.42c.65,0,1.21.23,1.67.7.46.46.69,1.02.69,1.67v1.38ZM141.48,101.87v-1.38c0-.33-.12-.61-.35-.85-.23-.24-.51-.35-.84-.35h-1.26c-.11,0-.16.06-.16.17v3.46c0,.11.05.16.16.16h1.26c.33,0,.61-.12.84-.35.23-.24.35-.52.35-.85Z"/>
      <path class="cls-1" d="M147.68,107.87c0,.11-.05.16-.16.16h-.83c-.11,0-.16-.05-.16-.16v-9.58c0-.11.05-.16.16-.16h.83c.11,0,.16.05.16.16v9.58Z"/>
      <path class="cls-1" d="M156.51,99.12c0,.11-.05.16-.16.16h-1.58c-.11,0-.16.06-.16.17v8.41c0,.11-.05.16-.16.16h-.84c-.11,0-.16-.05-.16-.16v-8.41c0-.12-.05-.17-.16-.17h-1.57c-.11,0-.16-.05-.16-.16v-.83c0-.12.05-.17.16-.17h4.63c.11,0,.16.06.16.17v.83Z"/>
      <path class="cls-1" d="M165.1,107.87c.02.11-.03.16-.13.16h-.86c-.11,0-.17-.05-.19-.16l-.25-1.3c-.02-.11-.08-.16-.2-.16h-1.61c-.11,0-.17.05-.2.16l-.24,1.3c-.03.11-.09.16-.2.16h-.86c-.11,0-.15-.05-.13-.16l1.83-9.59c.03-.11.09-.16.2-.16h.82c.11,0,.17.05.19.16l1.83,9.59ZM163.38,105.08l-.66-3.42s-.03-.05-.07-.05-.06.02-.07.05l-.64,3.42c-.04.11,0,.16.13.16h1.17c.11,0,.15-.05.13-.16Z"/>
      <path class="cls-1" d="M173.78,107.87c0,.11-.05.16-.16.16h-4.63c-.11,0-.16-.05-.16-.16v-9.58c0-.12.05-.17.16-.17h.84c.11,0,.16.06.16.17v8.41c0,.11.05.16.16.16h3.47c.11,0,.16.05.16.16v.84Z"/>
    </g>
  </g>
</svg>