<?xml version="1.0" encoding="UTF-8"?>
<svg id="_レイヤー_2" data-name="レイヤー 2" xmlns="http://www.w3.org/2000/svg" viewBox="0 0 347.12 47.22">
  <defs>
    <style>
      .cls-1 {
        fill: #333;
      }
    </style>
  </defs>
  <g id="_テキスト" data-name="テキスト">
    <g>
      <path class="cls-1" d="M16.29,47.22l-1.27-.98-.49-1.27v-4.98l-.24-.24v-2.78l.24-1.22-.24-1.51.24-.24v-4l-.98-.49-1.51.49h-2.49l-8.01,1.27c-1.17-.68-1.68-1.69-1.51-3.03l1.03-.49h2.73l5.22-.98h3.52l1.76-.54.24-.24v-2.98l-.24-.24v-2.78l-.73-1.76-.78-.24-6.49,1.76h-3.27c-1.14-.81-1.63-1.97-1.46-3.47l.73-.29h3.76l3.76-.73h2.73l1.03-.49.24-1.03-1.27-6.25v-2.49l2.25-.24c1.17.85,1.76,1.84,1.76,2.98l-.24,1.76.73,5.03,2.49.24,4.54-.49,1.46,1.22v1.27l-.73.98-1.27.24-1.76-.49h-2.73l-1.51.49-.24.24v2.54l.24.24v3.22l.54,1.51h2l6.49-1.51h2.98l1.51,1.27v1.27c-2.51.81-5.18,1.38-8.01,1.71h-2.73l-2.25.78-.24.24v4.49l-.29,1.27.29.24v5.22l.73,2.78-.24.24v2.73l-2,.73Z"/>
      <path class="cls-1" d="M49.76,43.46c-.98-.81-1.63-1.71-1.95-2.69v-2.49l-.24-.24v-2.93l-.24-.29v-13.77l-.24-.24v-2.98c.65-.49,1.38-.65,2.2-.49l1.71,1.51h1.51c3.61-1.01,7.31-1.76,11.08-2.25h9.81l1.76,1.22v2.25l-.24.24v12.55l.24.98-.24.24v2.49l1.46,2.44c-.81,1.17-1.3,2.41-1.46,3.71l-2.49.24-1.22-1.71.24-.78-1.95-.49-.24.24h-5.42l-.24.24h-2.73l-8.59,1.76-.54.98-1.95.24ZM71.44,36.82l.24-1.46-.24-.24v-3.96l-.24-2,.24-.73-.24-.24v-8.35c-.81-.49-1.73-.65-2.73-.49l-.24.24h-2.44c-5.24.49-10.25,1.63-15.04,3.42l-.24.24v2.49l.24.24v3.71l.24.98-.24.24v4.2l.49,3.17h3.71l3.71-.73h3.17l.24-.24h3.47l2.44-.24,2.25.24,1.22-.49Z"/>
      <path class="cls-1" d="M95.38,43.46c-.98-.81-1.63-1.71-1.95-2.69v-2.49l-.24-.24v-2.93l-.24-.29v-13.77l-.24-.24v-2.98c.65-.49,1.38-.65,2.2-.49l1.71,1.51h1.51c3.61-1.01,7.31-1.76,11.08-2.25h9.81l1.76,1.22v2.25l-.24.24v12.55l.24.98-.24.24v2.49l1.46,2.44c-.81,1.17-1.3,2.41-1.46,3.71l-2.49.24-1.22-1.71.24-.78-1.95-.49-.24.24h-5.42l-.24.24h-2.73l-8.59,1.76-.54.98-1.95.24ZM117.06,36.82l.24-1.46-.24-.24v-3.96l-.24-2,.24-.73-.24-.24v-8.35c-.81-.49-1.73-.65-2.73-.49l-.24.24h-2.44c-5.24.49-10.25,1.63-15.04,3.42l-.24.24v2.49l.24.24v3.71l.24.98-.24.24v4.2l.49,3.17h3.71l3.71-.73h3.17l.24-.24h3.47l2.44-.24,2.25.24,1.22-.49Z"/>
      <path class="cls-1" d="M144.72,46.58l-1.76-1.51-.2-.83,4.74-1.51.63-1.76c-2.02-.26-3.55-.76-4.59-1.51l-.2-.88,4.15-1.46.63-1.9-3.56-.44-2.69.29-2.1-1.61-.39-1.37.15-.15v-4.64l-.78-5.03c1.53-.29,3.01-.83,4.44-1.61l.24.2h3.81c1.11-.85,1.55-2.02,1.32-3.52l-2.15-.78-9.81,1.81-1.95-1.81v-.44l.1-.24,8.59-1.46h3.42l1.86-.54v-2.73l-4.15-.93-.15-.93c2.83-3.45,6.25-5.65,10.25-6.59l1.76,1.17v.59l-4.25,2.44-.49,1.22v4.39c1.2.85,2.56,1.14,4.05.88l.24-.24h4.2l1.03-.29,1.71.98.2,1.27-.54.49h-8.45l-2.44.83v3.22l1.07.88h5.57l2.15.88.83,2.73v4.54l.73,2.78c-2.7,1.99-6.09,2.98-10.16,2.98l-.63,1.95,4.2,1.17,1.12-.24,1.22,1.27-.29.83h-3.47l-1.22-.29-1.66,1.17v1.22l.39,1.37,5.71.29.34-.29h3.71l.63.88c-1.4,1.3-3.55,1.82-6.45,1.56l-1.56-.24c-3.19.42-6.23.93-9.13,1.51ZM148.23,25.73l.44-1.86-1.03-1.17h-4.88l-.49,2.39,1.42,1.32h3.91l.63-.68ZM147.84,32.03l.88-2.54c-1.46-1.04-3.21-1.45-5.22-1.22l-.93,2.98c1.43,1.11,3.01,1.55,4.74,1.32l.54-.54ZM157.07,30.91l.93-1.9c-1.46-1.11-3.04-1.56-4.74-1.37l-1.95,1.51v1.86c1.11.85,2.42,1.17,3.96.98l1.81-1.07ZM157.12,25.34l.63-2.2-5.66-.78-.54,2.83c1.24.85,2.46,1.12,3.66.83l1.9-.68ZM177.04,44.78l-1.46-.78-1.07-2.34,1.56-5.27v-4.3l-3.08-1.03-1.46.39c-1.07,3.87-2.59,7.39-4.54,10.55l-2.64.54-.68-1.37,3.56-8.4-3.17-2.93v-.2l4.39-.88,1.9-6.74.98-.2,1.9.88h.05v2.69l-.68,3.03.73.78h4.98l1.46,1.27v.34l-.29.34v3.42l.2.63-.54.44v4.3l-1.42,4.59-.68.24Z"/>
      <path class="cls-1" d="M201.62,45.95l-1.9-1.32-.15-.15v-3.56l-.24-.73.24-.24v-3.27l.34-1.81-2.49-.63-7.13,1.76-2-1.07-.2-1.17c3.81-.88,7.89-1.82,12.26-2.83l.98-7.42-1.86-.73-4.05,1.22-.39.49v3.52l.2,1.81-.88.34-2.69-1.86-.2-.2v-6.3l2-9.52,2.69-.24.88.73v1.42l-1.51,6.2,3.42.34,2.59-.98.63-3.17v-5.52l-.24-.88,1.32-.63,2.49,1.03.24,1.37-.59,2.59v4.39c1.92.39,3.48.85,4.69,1.37l-.05.78c-1.56.59-3.16,1.07-4.79,1.46l-.73,1.37v3.86l-.34,2.83,1.32.39,5.13-1.17,1.03,1.32.68.98c-1.76.88-4.59,1.5-8.5,1.86l-.73,1.42v2.98l-.24,2.98.78,3.47-1.17,1.17h-.83ZM211.34,29.05v-5.96l-.29-2.05.29-1.95-1.12-6.05c.75-.49,1.68-.63,2.78-.44.62.62.93,1.69.93,3.22,1.14,1.14,2.54,1.71,4.2,1.71h5.91l.29-.34h11.72c.59.46.8,1.06.63,1.81-.59,2.73-1.07,5.49-1.46,8.25l.29.78c-.75,5.66-2.05,11.08-3.91,16.26l-1.66.24-1.46-.73-.2-.93c2.28-6.97,3.71-14.58,4.3-22.85l-2.69-.68-1.22.39c-.98,7.36-2.88,14.13-5.71,20.31l-1.17.49-1.32-.68-.29-1.12c2.31-5.73,3.97-11.88,4.98-18.46l-2.39-.73c-2.25,5.57-3.55,11.25-3.91,17.04l-2.1.24c-1.14-.81-1.51-1.9-1.12-3.27l2.98-14.16-3.61-.39-.83,1.86.34.93-.29,2.59v3.76l-.05,2.39-1.95.2-.88-1.66Z"/>
      <path class="cls-1" d="M254.86,46.88l-1.56-2.29.2-.2v-6.2l.29-.34v-3.66l.34-2.15-1.66-.44c-1.86,1.01-3.69,1.51-5.52,1.51l-2.15-1.95v-.34c2.96-.94,6.1-1.73,9.42-2.34l.93-2.54c-3.48-.39-6.56-1.35-9.23-2.88l-.2-.78.29-.29h3.08l6.15,1.56,1.22-9.67c-.98-.85-1.46-1.69-1.46-2.54l2.88-.83h3.08l5.52-1.27.49-.49v-3.17l-1.17-4.44.49-1.12h2.44l1.27,2.34-.24.88.98,5.47,1.71.34.24-.29h3.56l2.39-.63h5.47l1.56,1.32v.54c-.85.85-2.02,1.27-3.52,1.27h-3.12l-.29.29h-4.44l-13.43,1.86-2.83,15.58v3.03l-.59,2.1v3.81l-.24.29v6.69l.24,1.37c-.62.75-1.48.96-2.59.63ZM266,45.26l-1.51-.73-1.03-2.2v-3.56l.24-.29v-3.91l.29-.29v-3.61l.29-.29v-4.3l2.44-.29.24.34h4.3l1.66-1.46v-2.25l-2.78-.68-4.39.93c-1.2-.55-1.95-1.38-2.25-2.49l.59-.68h2.88l3.22-.54h4l.29-.34h4.25l.29-.29h5.37l1.03.78.2,1.12-.93.93h-3.03l-.24.34h-5.03l-.39,3.42.88.88h6.3l.34-.29h5.08l.98.68v10.5l-.29.29v4.49l-.83,2.15-2,.49-1.22-.73-.24-.93.93-3.76v-9.57l-1.22-1.07h-3.22l-.29.24h-2.88l-1.46-.29-.93,1.71,3.61,4.15.93.34,2.83,2.78v.39l-2.54.54-5.71-4.49-.78,3.42.2.73-.88,1.22h-1.81l-.98-.39-.24-2.44,1.56-6.93-2.59-.78-1.51.83-.63,3.22v3.52l-.34.29v6.45l.59,1.46-.49.83-1.12.44Z"/>
      <path class="cls-1" d="M302.3,47.02l-1.95-1.86v-6.25l-.29-1.17.29-1.27-.24-.78.24-.2v-3.76l.34-.34v-6.01l.29-3.22-.29-.29v-4.74l-.34-.24v-3.42l-.29-.34v-2.93l-.59-1.81.49-1.46,1.07-.2.29.24h7.62c2.6.16,5.06.8,7.37,1.9l2-.98,5.91.98.83-2-1.42-5.71c.49-.46,1.16-.6,2-.44l2.05,1.71.59,5.42,2.39.44.34-.39h2.73l.34.34h5.47l1.42-.34,2.29,1.46c.49.65.65,1.48.49,2.49l-.39.39v5.96c-.46.75-1.16,1.06-2.1.93l-1.07-.78-.24-2.78.24-1.32-.93-2.64-.54-.54h-5.66l-1.56-.29-5.32.88h-3.03l-1.03-.29c-.85,1.04-1.16,2.17-.93,3.37l1.03,2.2.39.63h9.62l.34.24h3.71l1.9,1.07.2,1.42-.54.39h-4.1l-.34-.29h-6.1l-.39.29h-4.39l-2.93.54-.98-.68-.68-2.83.39-3.08-.98-4.83h-1.46l-1.42,2-2.29,2.39h-.68l-.78,1.37-2.54,3.08c3.06.42,5.48,1.77,7.28,4.05l.2.15v2.73c-1.2,1.92-2.77,3.37-4.69,4.35l-2.64.29-3.27-1.42-1.17,2.69v9.57l.59,3.56-1.07,2.25-1.07.15ZM305.47,15.82l4.79-4.44v-1.46l-4.54-.39-2,.98-.49.54v3.96l.44,1.32h1.37l.44-.49ZM310.84,25.68l1.07-3.42-6.79-1.37-1.03.93v5.08l2.73.83,4-2.05ZM320.41,44.92l-1.17-1.03v-2.15l7.37-13.13h-2.69l-5.03.98c-1.17-.68-1.69-1.58-1.56-2.69,2.31-.55,4.64-1.01,6.98-1.37h4.54l.29-.29h3.91l5.13-.93,2.78,1.9.24.59c-1.24.85-2.72,1.27-4.44,1.27l-2-.34c-1.11.72-1.53,1.81-1.27,3.27.46,2.54,1.55,4.92,3.27,7.13l2.49.63c2.15-1.01,4.26-1.82,6.35-2.44,1.01.68,1.51,1.61,1.51,2.78-2.51,1.99-5.44,3.09-8.79,3.32-1.73-.55-3.29-1.58-4.69-3.08l-2.83-5.96-1.71-.44-6.79,11.67-1.9.29Z"/>
    </g>
  </g>
</svg>