<?xml version="1.0" encoding="UTF-8"?>
<svg id="_レイヤー_2" data-name="レイヤー 2" xmlns="http://www.w3.org/2000/svg" viewBox="0 0 1366 186.14">
  <defs>
    <style>
      .cls-1 {
        fill: #e6bfab;
      }

      .cls-2 {
        fill: #8caac9;
      }
    </style>
  </defs>
  <g id="_背景" data-name="背景">
    <path class="cls-1" d="M499.49,146.29c177.17-47.08,259.13,10.31,450.33-40.03,149.55-39.37,349.88-46.9,416.18-6.2V13.87s-1366,0-1366,0v92.39c216.95,80.85,334.54,83.85,499.49,40.03Z"/>
    <path class="cls-2" d="M424.23,128.37c158.78,34.59,283.31,37.5,352.97,2.1,89.32-45.4,249.7-51.67,401.99-38.16,78.58,6.97,140.44-7.77,186.82-32.22V0S0,0,0,0v186.14c14.44-7.23,30.21-15.3,47.21-24.25,96.77-50.92,201.95-71.65,377.01-33.52Z"/>
  </g>
</svg>