<?xml version="1.0" encoding="UTF-8"?>
<svg id="_レイヤー_2" data-name="レイヤー 2" xmlns="http://www.w3.org/2000/svg" viewBox="0 0 103.23 102.84">
  <defs>
    <style>
      .cls-1 {
        fill: #666;
      }
    </style>
  </defs>
  <g id="_テキスト" data-name="テキスト">
    <g>
      <g>
        <path class="cls-1" d="M72.78,39.28c-1.22,1.08-2.53,1.84-3.9,2.36v-10.71c2.84-2.74,6.2-6.01,9.02-8.77,2.21,1.97,4.19,4.18,5.92,6.6-2.62,2.78-8.01,7.85-11.04,10.52Z"/>
        <path class="cls-1" d="M47.67,18.11c2.88,2.88,8.67,8.5,13.13,12.82v10.71c-1.37-.52-2.68-1.29-3.9-2.36-3.59-3.16-10.5-9.7-12.18-11.81-1.69-2.11-3.7-3.94-7.92-.99l-24.14,16.87c1.03-4.75,2.91-9.18,5.47-13.13l17.09-11.91c4.22-3.59,7.38-5.27,12.45-.21Z"/>
        <path class="cls-1" d="M33.08,62.59c-3.35-.99,2.12-2.73,17.36-13.61,4.14-2.96,7.5-6.51,10.26-3.55.03.03.07.07.1.11v8.09c-.69.42-1.77,1.06-3.45,2.07-7.36,4.39-14.02,9.92-24.27,6.91Z"/>
        <path class="cls-1" d="M68.89,53.62v-8.09s.07-.07.1-.11c2.76-2.96,6.12.59,10.26,3.55,4.87,3.48,8.73,6.02,11.64,7.9-.28,2.24-.75,4.41-1.39,6.52-6.53-.5-11.65-4.43-17.16-7.71-1.68-1-2.76-1.65-3.45-2.07Z"/>
        <path class="cls-1" d="M85.44,31.18c1.42,2.34,2.61,4.84,3.53,7.46-1.26-.93-2.03-1.51-2.03-1.51-3.01-1.91-2.62-4.13-1.5-5.95Z"/>
        <path class="cls-1" d="M42.55,29.05c1.81,1.94,4.54,5.33.2,8.09,0,0-10.4,7.85-17.76,12.23-4.12,2.46-8.27,5.58-12.93,7.33-.2-1.6-.31-3.23-.31-4.88,0-1.78.13-3.54.36-5.26,6.16-4.29,13.65-9.3,20.18-13.96,4.14-2.96,7.5-6.51,10.26-3.55Z"/>
        <path class="cls-1" d="M78.46,45.62c-4.34-2.76-1.61-6.15.2-8.09,2.76-2.96,6.12.59,10.26,3.55.35.25.69.49,1.03.73.83,3.2,1.27,6.55,1.27,10,0,.87-.04,1.73-.09,2.58-1.01-.64-2-1.28-3-1.87-7.36-4.39-9.67-6.91-9.67-6.91Z"/>
        <path class="cls-1" d="M51.23,45.62s-2.31,2.52-9.67,6.91c-7.36,4.39-14.81,10.91-25.06,7.89-3.35-.99,9.03-8.45,24.27-19.34,4.14-2.96,7.5-6.51,10.26-3.55,1.81,1.94,4.54,5.33.2,8.09Z"/>
        <path class="cls-1" d="M57.99,24.6v-2.76h4.49s0-5.15,0-5.15l-.34-.25c-1.12-.82-1.79-2.03-1.89-3.38,2.8.63,5.48,1.55,8.02,2.74-.21.23-.44.45-.71.64l-.34.25v5.15s4.49,0,4.49,0v2.76h-4.49s0,63.71,0,63.71c-1.53.66-3.11,1.22-4.74,1.69V24.6s-4.49,0-4.49,0Z"/>
        <path class="cls-1" d="M48.76,68.37l5.15,23.1c-.8.05-1.61.08-2.43.08-2.15,0-4.26-.18-6.32-.51l-5.66-22.67h9.25Z"/>
        <path class="cls-1" d="M87.6,68.37c-2.36,5.14-5.78,9.69-9.99,13.37l2.98-13.37h7.01Z"/>
        <path class="cls-1" d="M61.22,87.41c-2.41.18-4.57.39-6.54.63l-1.9-8.5c2.89.46,5.76.82,8.44,1.03v6.84Z"/>
        <path class="cls-1" d="M43.51,90.58c-.09.04-.16.08-.25.12-2.99-.63-5.85-1.6-8.55-2.86,2-1.36,4.48-2.48,7.27-3.39l1.53,6.13Z"/>
        <path class="cls-1" d="M17.41,72.26c1.01,1.68,2.14,3.29,3.38,4.79,3.88,2.58,12.24,5.13,21.09,7.03l-1.79-7.18c-6.77-1.74-11.95-3.69-12.44-4.95-.43-1.11-.23-1.06,3.75-1.55,6.31-.78,5.65-.65,4.95-3.75-.34-1.5-3.41-2.85-5.76-3.08-4.26-.43-10.84-.02-13.01,5.82-.22.58-.39,1.64-.18,2.87ZM26.47,66.85c0-.81.71-1.47,1.59-1.47s1.59.66,1.59,1.47-.71,1.47-1.59,1.47-1.59-.66-1.59-1.47Z"/>
        <path class="cls-1" d="M68.46,80.57c2.57-.2,5.32-.53,8.09-.97l-.82,3.69c-2.07,1.6-4.31,3-6.68,4.17-.2-.02-.39-.03-.58-.05v-6.84Z"/>
      </g>
      <g>
        <path class="cls-1" d="M12.49,67.89c-.1-.3-.43-.47-.73-.37l-3.46,1.15-1.5-4.5,3.46-1.15c.15-.05.27-.15.34-.29.07-.14.08-.3.03-.44l-.08-.23c-.1-.3-.43-.47-.73-.37l-8.06,2.69c-.15.05-.27.15-.34.29s-.08.3-.03.44l.08.23c.1.3.43.47.73.37l3.28-1.09,1.5,4.5-3.28,1.09c-.15.05-.27.15-.34.29-.07.14-.08.3-.03.44l.08.23c.08.24.31.4.55.4.06,0,.12,0,.18-.03l8.06-2.69c.15-.05.27-.15.34-.29.07-.14.08-.3.03-.44l-.08-.23Z"/>
        <path class="cls-1" d="M9.43,60.49c.13,0,.26-.04.36-.13.15-.12.23-.31.21-.51l-.03-.26c-.02-.23-.18-.42-.4-.49l-2.8-.9-.37-3.66,2.56-1.44c.2-.11.32-.33.29-.56l-.03-.26c-.02-.19-.14-.37-.31-.46-.17-.09-.38-.09-.55,0L.3,56.36c-.2.11-.32.33-.29.56l.02.21c.02.23.18.42.4.49l8.83,2.84c.06.02.12.03.18.03ZM5.08,55.28l.25,2.46-2.95-.95,2.7-1.51Z"/>
        <path class="cls-1" d="M1.25,49.01c.41.43.89.78,1.43,1.05.54.26,1.1.43,1.67.5,0,0,0,0,0,0,.19.02.38.03.57.03.42,0,.84-.05,1.26-.16.6-.15,1.16-.4,1.67-.73.51-.34.94-.77,1.29-1.29.36-.53.58-1.14.66-1.8.04-.36.04-.74-.01-1.14-.05-.39-.15-.78-.3-1.15-.15-.37-.36-.72-.61-1.03-.26-.33-.58-.6-.94-.82-.15-.09-.32-.1-.48-.05-.16.06-.29.18-.35.34l-.09.22c-.1.25-.01.53.21.69.24.17.44.36.61.57.16.21.29.44.38.68.09.25.16.5.19.75.03.25.03.5,0,.73-.05.44-.19.82-.41,1.18-.23.36-.53.67-.88.92-.36.25-.76.44-1.21.56-.44.12-.9.15-1.36.1-.42-.05-.84-.17-1.24-.36-.39-.19-.74-.44-1.04-.74-.29-.3-.51-.66-.66-1.07-.15-.4-.19-.85-.14-1.34.03-.23.08-.46.16-.68.07-.22.18-.43.31-.63.13-.19.29-.37.48-.52.19-.16.43-.29.7-.4s.41-.38.35-.65l-.05-.23c-.03-.16-.13-.31-.28-.39-.14-.08-.32-.1-.48-.05-.67.23-1.25.63-1.72,1.19-.48.57-.77,1.3-.87,2.16-.08.72-.01,1.4.21,2,.22.6.54,1.12.96,1.56Z"/>
        <path class="cls-1" d="M12.49,34.08l-8.02-2.82c-.3-.11-.63.05-.74.35l-.08.23c-.05.15-.04.3.02.44.07.14.19.25.33.3l3.26,1.15-1.58,4.47-3.26-1.15c-.3-.11-.63.05-.74.35l-.08.23c-.05.14-.04.3.02.44.07.14.19.25.33.3l8.02,2.82c.06.02.13.03.19.03.09,0,.17-.02.25-.06.14-.07.25-.19.3-.33l.08-.23c.11-.3-.05-.63-.35-.74l-3.44-1.21,1.58-4.47,3.44,1.21c.15.05.3.04.44-.02.14-.07.25-.19.3-.33l.08-.23c.11-.3-.05-.63-.35-.74Z"/>
        <path class="cls-1" d="M14.34,30.81l-7.46-4.07c-.13-.07-.29-.09-.44-.05-.15.04-.27.14-.35.28l-.11.21c-.15.28-.05.63.23.79l7.46,4.07c.09.05.18.07.28.07.2,0,.4-.11.51-.3l.11-.21c.07-.14.09-.29.05-.44-.04-.15-.14-.27-.28-.35Z"/>
        <path class="cls-1" d="M18.32,26.01c.4-.51.66-1.07.79-1.68.12-.59.13-1.19.03-1.79-.11-.59-.32-1.16-.64-1.7-.32-.54-.74-1.01-1.25-1.41-.47-.36-1-.64-1.59-.83-.59-.19-1.19-.26-1.79-.24-.61.03-1.2.17-1.77.43-.58.27-1.08.67-1.5,1.2-.4.51-.66,1.08-.79,1.69-.13.6-.14,1.2-.03,1.8.11.59.32,1.16.64,1.7.32.54.74,1.01,1.24,1.4.48.37,1.02.66,1.61.85.5.16,1,.24,1.51.24.1,0,.19,0,.29,0,.6-.04,1.19-.19,1.74-.44.57-.27,1.08-.67,1.49-1.21ZM17.22,25.15c-.28.36-.6.63-.98.81-.38.19-.79.29-1.21.31-.43.02-.87-.03-1.31-.17-.43-.13-.83-.34-1.19-.62,0,0,0,0,0,0-.34-.26-.63-.59-.87-.97-.24-.38-.4-.79-.49-1.21-.09-.42-.09-.85,0-1.28.08-.42.26-.8.54-1.16.27-.35.58-.6.96-.78.38-.18.79-.29,1.22-.32.07,0,.15,0,.22,0,.36,0,.73.06,1.09.17.43.13.83.34,1.19.62.34.26.63.59.87.97.24.38.4.79.49,1.21.09.41.09.84,0,1.27-.08.42-.26.8-.54,1.16Z"/>
        <path class="cls-1" d="M21.58,15.75c.4.47.75.9,1.03,1.3.25.36.43.69.52,1,.08.25.08.49,0,.72-.07.23-.26.48-.56.74-.43.37-.85.57-1.29.62-.15.02-.29.09-.39.21-.1.12-.14.27-.12.43l.03.23c.03.3.28.52.58.52.02,0,.04,0,.06,0,.73-.08,1.42-.4,2.05-.94.5-.44.83-.9.98-1.38.15-.48.15-.98,0-1.49-.13-.46-.37-.94-.71-1.43-.32-.45-.7-.93-1.13-1.43l-2.82-3.27c-.1-.12-.24-.19-.4-.2-.15-.01-.3.04-.42.14l-.18.16c-.24.21-.27.57-.06.82l2.82,3.27Z"/>
        <path class="cls-1" d="M27.25,16.7c.09.13.22.22.37.25.04,0,.08.01.11.01.11,0,.23-.03.32-.1l.2-.13c.27-.18.34-.54.16-.8l-4.72-7.07c-.18-.27-.54-.34-.8-.16l-.2.13c-.13.09-.22.22-.25.37-.03.15,0,.31.09.44l4.72,7.07Z"/>
        <path class="cls-1" d="M33.89,13.34c.06,0,.13-.01.19-.03l.25-.09c.22-.08.37-.27.39-.5l.23-2.93,3.48-1.2,1.99,2.16c.16.17.4.23.62.15l.25-.09c.18-.06.32-.22.37-.41.05-.19,0-.39-.14-.53l-6.28-6.82c-.16-.17-.4-.23-.62-.16l-.2.07c-.22.08-.37.27-.39.5l-.73,9.25c-.02.19.07.38.22.5.1.08.23.12.35.12ZM35.3,5.18l2.09,2.28-2.33.81.24-3.09Z"/>
        <path class="cls-1" d="M50.13,9.47c.12.13.3.19.47.17l.27-.03c.15-.01.29-.09.39-.21s.14-.27.13-.42l-.8-8.46c-.01-.15-.09-.29-.21-.39-.12-.1-.27-.15-.42-.13l-.24.02c-.32.03-.55.31-.52.63l.61,6.47-6.09-6.31c-.12-.13-.3-.19-.47-.17l-.18.02c-.32.03-.55.31-.52.63l.8,8.46c.03.3.28.52.58.52.02,0,.04,0,.06,0l.24-.02c.15-.01.29-.09.39-.21.1-.12.14-.27.13-.42l-.6-6.35,5.98,6.2Z"/>
        <path class="cls-1" d="M55.16.23l-.24-.02c-.15,0-.3.04-.42.14-.12.1-.19.24-.2.4l-.58,8.48c-.01.15.04.3.14.42.1.12.24.19.4.2l.24.02s.03,0,.04,0c.3,0,.56-.23.58-.54l.58-8.48c.02-.32-.22-.6-.54-.62Z"/>
        <path class="cls-1" d="M58.55,10.04c.13-.08.23-.21.27-.36l1.45-5.69,1.5,5.02c.06.2.21.35.41.4l.19.05c.2.05.41,0,.55-.15l3.72-3.69-1.45,5.69c-.08.31.11.63.42.7l.23.06s.1.02.14.02c.1,0,.21-.03.3-.08.13-.08.23-.21.27-.36l2.1-8.24c.08-.31-.11-.63-.42-.7l-.19-.05c-.2-.05-.41,0-.55.15l-4.72,4.69-1.9-6.37c-.06-.2-.21-.35-.41-.4l-.19-.05c-.15-.04-.31-.02-.44.06-.13.08-.23.21-.27.36l-2.1,8.24c-.08.31.11.63.42.7l.23.06c.15.04.31.01.44-.06Z"/>
        <path class="cls-1" d="M67.62,12.46c.02.19.13.37.3.46l.23.12c.2.11.45.09.63-.06l2.31-1.82,3.25,1.74-.24,2.93c-.02.23.1.45.3.56l.23.12c.09.05.18.07.27.07s.19-.02.28-.07c.17-.09.28-.27.3-.46l.76-9.24c.02-.23-.1-.45-.3-.56l-.19-.1c-.2-.11-.45-.09-.63.06l-7.29,5.74c-.15.12-.24.31-.22.51ZM72.29,10.22l2.44-1.92-.26,3.08-2.18-1.17Z"/>
        <path class="cls-1" d="M80.8,21.52c.11.09.24.13.37.13.17,0,.33-.07.45-.21l.15-.18c.1-.12.15-.27.13-.42-.01-.15-.09-.29-.21-.39l-3.66-3.04,4.9-5.91c.2-.25.17-.61-.08-.82l-.18-.15c-.12-.1-.27-.15-.42-.13-.15.01-.29.09-.39.21l-5.42,6.54c-.2.25-.17.61.08.82l4.29,3.56Z"/>
        <path class="cls-1" d="M93.23,29.74c.03-.15,0-.31-.08-.44l-1.21-1.88c-.17-.27-.53-.35-.8-.17l-.2.13c-.13.08-.22.21-.25.36-.03.15,0,.31.08.44l.77,1.19-1.03.66c-.56-.1-1.03-.25-1.4-.47-.4-.24-.74-.55-.99-.95-.24-.37-.38-.76-.43-1.17-.05-.43-.02-.86.09-1.28.11-.42.3-.82.57-1.19.26-.37.59-.68.98-.93.37-.24.77-.41,1.21-.52.43-.1.86-.13,1.28-.08.41.05.81.18,1.18.39.36.2.66.49.91.89.31.48.48.96.53,1.44.04.46-.07.92-.34,1.42-.13.24-.07.55.14.72l.18.15c.13.11.3.15.47.13.17-.03.31-.13.4-.28.18-.3.32-.61.42-.93.11-.34.16-.7.16-1.07,0-.37-.07-.75-.2-1.14-.12-.39-.32-.79-.58-1.2-.35-.55-.8-.99-1.34-1.31-.52-.31-1.09-.5-1.69-.58-.59-.08-1.19-.05-1.79.09-.6.13-1.17.37-1.69.7-.5.32-.94.74-1.31,1.23-.37.5-.64,1.04-.81,1.63-.17.59-.23,1.2-.17,1.82.06.64.28,1.25.65,1.83.49.76,1.16,1.31,2.01,1.66l-.13.08c-.13.08-.22.21-.25.36-.03.15,0,.31.08.44l.13.2c.11.17.3.27.49.27.11,0,.22-.03.31-.09l3.4-2.19c.13-.08.22-.21.25-.36Z"/>
        <path class="cls-1" d="M92.43,40.51s.06,0,.08,0c.18,0,.35-.08.46-.23l1.9-2.54c.06.06.12.12.19.18.29.25.61.43.97.55.35.12.72.17,1.11.16.38-.01.76-.08,1.13-.22.37-.14.7-.34,1-.61.29-.26.54-.57.73-.91.19-.35.31-.73.35-1.13.05-.42,0-.83-.16-1.24l-1.2-3.24c-.11-.3-.44-.45-.74-.34l-7.97,2.96c-.14.05-.26.16-.33.3-.06.14-.07.3-.02.44l.08.22c.11.3.45.45.74.34l2.59-.96.79,2.12-2.19,2.93c-.12.16-.15.36-.08.55l.1.27c.07.2.25.34.46.37ZM97.97,32.56l.92,2.48c.07.19.1.39.07.59-.02.22-.09.43-.19.62-.1.2-.24.37-.41.53-.17.15-.36.27-.57.35-.21.08-.44.12-.67.13-.23,0-.44-.03-.64-.1-.2-.07-.37-.17-.53-.31-.15-.13-.25-.29-.33-.51l-.95-2.55,3.3-1.23Z"/>
        <path class="cls-1" d="M97.28,40.97c-.6.08-1.19.27-1.73.56-.55.29-1.03.67-1.42,1.12-.39.46-.7.98-.9,1.56-.21.6-.27,1.24-.18,1.92.09.64.31,1.23.65,1.74.34.5.76.93,1.26,1.27.49.34,1.05.58,1.66.73.39.09.78.14,1.18.14.23,0,.46-.02.7-.05.59-.08,1.16-.27,1.71-.56.54-.29,1.02-.66,1.42-1.11.41-.45.72-.98.93-1.56.21-.6.28-1.24.19-1.91-.09-.64-.3-1.23-.65-1.74-.34-.51-.77-.94-1.27-1.28-.5-.34-1.06-.58-1.66-.73-.61-.15-1.24-.18-1.87-.1ZM97,48.51c-.44-.1-.85-.26-1.21-.5-.36-.23-.66-.52-.91-.88-.24-.35-.39-.74-.45-1.2-.06-.45-.03-.87.11-1.27.14-.4.34-.77.62-1.08.28-.32.63-.6,1.03-.81.4-.22.83-.36,1.28-.42h0c.16-.02.32-.03.48-.03.27,0,.55.03.82.09.44.1.84.27,1.21.5.36.23.66.53.92.89.24.35.39.74.45,1.2.06.44.02.84-.11,1.23-.14.4-.35.77-.63,1.1-.28.33-.63.6-1.03.82-.4.22-.83.36-1.27.42-.43.06-.87.04-1.3-.06Z"/>
        <path class="cls-1" d="M103.1,53.07c-.1-.12-.24-.19-.39-.21l-4.23-.42c-.57-.06-1.15-.05-1.71.01-.59.07-1.14.23-1.63.49-.51.27-.95.66-1.29,1.15-.35.5-.56,1.14-.63,1.9-.07.75,0,1.4.24,1.95.23.55.57,1.01,1,1.38.42.36.93.63,1.5.82.54.18,1.12.3,1.73.36l4.23.42s.04,0,.06,0c.29,0,.55-.22.58-.52l.02-.24c.01-.15-.03-.31-.13-.42s-.24-.19-.39-.21l-4.23-.42c-.45-.04-.9-.14-1.34-.27-.4-.13-.76-.31-1.06-.54-.28-.22-.5-.5-.66-.86-.15-.34-.21-.79-.15-1.32.05-.53.19-.95.4-1.25.22-.31.48-.55.8-.71.34-.17.73-.29,1.15-.33.45-.05.92-.05,1.39,0l4.23.42c.31.03.6-.2.63-.52l.02-.24c.01-.15-.03-.31-.13-.42Z"/>
        <path class="cls-1" d="M101,64.75l-8.08-2.64c-.31-.1-.63.07-.73.37l-.07.23c-.05.15-.04.31.03.44.07.14.19.24.34.29l2.62.86-.85,2.59c-.13.41-.17.83-.11,1.23.06.39.19.76.4,1.09.2.33.46.62.78.86s.66.43,1.05.55c.31.1.64.15.98.15.06,0,.12,0,.18,0,.39-.02.77-.11,1.13-.26.37-.15.7-.38.98-.67.29-.3.51-.66.65-1.07l1.08-3.29c.05-.15.04-.31-.03-.44-.07-.14-.19-.24-.34-.29ZM99.78,65.83l-.82,2.51c-.06.2-.17.36-.31.51-.16.16-.33.28-.53.37-.2.09-.42.14-.65.16-.23.01-.45-.01-.66-.08-.21-.07-.41-.17-.59-.31-.18-.14-.34-.3-.46-.48-.11-.17-.19-.35-.22-.56-.03-.2-.01-.4.06-.61l.85-2.59,3.35,1.1Z"/>
        <path class="cls-1" d="M23.02,87.64c-.23-.35-.49-.73-.8-1.12-.29-.37-.52-.7-.71-.99-.17-.26-.28-.49-.34-.69-.05-.16-.05-.31-.02-.44.04-.14.13-.3.27-.47.16-.19.33-.32.51-.41.17-.08.34-.12.55-.11.22,0,.46.08.73.2.29.14.6.35.94.64.34.29.59.58.74.87.15.27.23.62.24,1.04,0,.15.07.28.18.38.11.1.25.14.4.13l.23-.03c.27-.03.47-.26.46-.53-.02-.58-.15-1.11-.39-1.57-.24-.44-.59-.87-1.05-1.27-.38-.33-.77-.59-1.16-.78-.4-.19-.81-.3-1.2-.33-.41-.03-.8.04-1.17.19-.37.16-.7.41-1,.75-.29.34-.48.68-.55,1.03-.08.35-.06.72.06,1.09.1.33.28.68.52,1.04.22.33.49.69.8,1.08.29.38.54.73.73,1.03.17.28.29.53.35.75.05.19.06.36.02.52-.04.16-.14.33-.29.51-.31.35-.64.49-1.05.43-.48-.07-1.01-.35-1.58-.85-.44-.38-.78-.8-1.01-1.22-.22-.42-.35-.91-.38-1.46-.01-.28-.24-.49-.52-.49h-.24c-.14,0-.28.06-.38.17-.1.11-.15.25-.14.39.05.72.23,1.38.53,1.95.3.57.74,1.11,1.31,1.61.79.69,1.58,1.08,2.33,1.16.09.01.18.01.28.01.71,0,1.34-.3,1.84-.89.31-.36.5-.73.57-1.1.07-.37.04-.75-.07-1.14-.11-.35-.29-.72-.53-1.1Z"/>
        <path class="cls-1" d="M28.58,88.19l.2.13c.08.05.18.08.28.08.04,0,.08,0,.11-.01.14-.03.25-.11.33-.23l.5-.79c.07-.12.1-.26.07-.39-.03-.14-.11-.25-.23-.33l-.2-.13c-.24-.16-.57-.08-.72.16l-.5.79c-.15.24-.08.57.16.72Z"/>
        <path class="cls-1" d="M28.7,89.13c-.03-.14-.11-.25-.23-.33l-.2-.13c-.24-.15-.56-.08-.72.16l-3.38,5.31c-.15.24-.08.56.16.72l.2.13c.08.05.18.08.28.08.04,0,.08,0,.11-.01.14-.03.25-.11.33-.23l3.38-5.31c.07-.12.1-.26.07-.39Z"/>
        <path class="cls-1" d="M34.3,91.79c-.3-.14-.63-.23-.97-.27-.33-.04-.66-.04-.98,0-.15.02-.3.05-.44.08l.08-.18c.12-.26,0-.57-.26-.69l-.22-.1c-.13-.06-.27-.06-.4-.01-.13.05-.23.15-.29.27l-2.6,5.74c-.06.13-.06.27-.01.4s.15.23.27.29l.22.1c.26.12.57,0,.69-.26l1.61-3.55c.16-.18.35-.33.56-.45.23-.14.48-.24.74-.3.26-.06.52-.08.78-.06.25.02.49.08.71.18.45.2.53.46.56.67.03.27-.02.78-.44,1.71l-1.45,3.19c-.12.26,0,.57.26.69l.22.1c.07.03.14.05.22.05.06,0,.12-.01.18-.03.13-.05.23-.15.29-.27l1.45-3.19c.46-1.01.63-1.82.54-2.47-.07-.5-.36-1.19-1.3-1.62Z"/>
        <path class="cls-1" d="M41.51,94.2c-.49-.12-.97-.13-1.44-.05-.46.09-.89.26-1.28.5-.39.25-.73.58-1.01.98-.28.4-.48.85-.61,1.35h0c-.12.5-.15,1.01-.08,1.5.07.49.22.94.45,1.35.23.41.53.78.9,1.08.38.3.81.52,1.28.63.26.06.54.1.81.1.05,0,.1,0,.15,0,.32-.01.62-.07.91-.16.29-.09.57-.23.8-.4.25-.18.46-.39.61-.63.08-.12.1-.26.07-.4-.03-.14-.12-.26-.24-.33l-.22-.13c-.12-.07-.26-.09-.4-.05-.13.04-.25.12-.32.24-.05.08-.13.16-.24.24-.13.09-.29.17-.47.22-.19.06-.39.09-.6.1-.21,0-.4,0-.59-.05-.29-.07-.55-.2-.77-.38-.23-.19-.42-.43-.57-.7-.15-.27-.25-.58-.29-.91-.04-.33-.02-.67.06-1,.08-.34.22-.64.4-.91.18-.26.4-.48.65-.64.25-.16.52-.27.81-.33.29-.06.58-.05.88.03.36.09.66.25.92.5.25.24.42.52.51.86.06.25.3.4.55.39l.26-.02c.15-.01.28-.09.37-.21.09-.12.12-.27.09-.41-.12-.58-.39-1.09-.81-1.5-.41-.4-.93-.68-1.54-.83Z"/>
        <path class="cls-1" d="M51.54,96.53c-.3-.36-.66-.65-1.08-.87-.42-.22-.89-.35-1.38-.38-.49-.03-.95.05-1.39.22-.43.17-.82.42-1.15.74-.33.32-.6.7-.8,1.14-.2.44-.32.92-.35,1.42-.03.52.04,1.02.2,1.49.16.47.39.89.68,1.25.3.37.66.67,1.08.9.42.23.89.36,1.37.39.06,0,.13,0,.19,0,.26,0,.52-.03.77-.09.31-.07.6-.18.87-.32.27-.14.52-.32.73-.53.22-.21.39-.46.52-.73.06-.14.07-.29,0-.43-.06-.14-.18-.24-.32-.29l-.23-.07c-.24-.08-.5.03-.62.25-.07.14-.17.26-.29.38-.13.12-.27.22-.44.3-.17.09-.35.15-.54.19-.19.04-.38.06-.57.05-.29-.02-.55-.09-.81-.22-.26-.14-.49-.32-.68-.54-.2-.22-.35-.49-.47-.79-.05-.13-.09-.27-.12-.41l5.14.28c.13,0,.27-.04.38-.13.1-.09.17-.22.17-.36v-.13c.04-.52-.03-1.02-.19-1.49-.16-.46-.39-.88-.68-1.23ZM49.02,96.57c.3.02.57.09.82.22.25.13.48.31.67.53.19.22.34.48.45.79.05.14.09.29.12.44l-4.3-.24c.04-.15.1-.29.16-.43.14-.29.31-.53.52-.73.21-.2.45-.35.72-.45.26-.1.54-.14.84-.13Z"/>
        <path class="cls-1" d="M63.59,100.21c-.11-.08-.26-.1-.39-.08l-1,.2-1.22-6.04c-.03-.14-.11-.25-.22-.33-.12-.08-.26-.1-.39-.08l-.24.05c-.16.03-.3.14-.37.29-.02.03-.06.09-.11.17-.09.13-.2.26-.34.41-.15.15-.31.3-.5.45-.14.11-.28.18-.41.21-.28.06-.46.33-.41.61l.06.29c.03.14.11.25.22.33.12.08.26.1.39.08.22-.04.45-.14.68-.28.21-.13.42-.28.61-.44.02-.02.04-.04.06-.06l.93,4.6-1.18.24c-.28.06-.46.33-.41.61l.05.24c.03.14.11.25.22.33.09.06.19.09.29.09.03,0,.07,0,.1-.01l3.44-.69c.28-.06.46-.33.41-.61l-.05-.24c-.03-.14-.11-.25-.22-.33Z"/>
        <path class="cls-1" d="M70.79,93.49c-.21-.54-.48-1-.81-1.38-.34-.38-.72-.68-1.14-.88-.42-.21-.88-.32-1.35-.33-.46-.02-.94.07-1.4.24-.45.17-.85.42-1.18.74-.33.32-.6.68-.78,1.09-.19.4-.29.84-.31,1.29-.02.46.06.91.22,1.36.17.44.42.83.73,1.17.32.33.68.59,1.09.77.4.18.84.28,1.29.3.46.02.91-.06,1.36-.22.35-.13.68-.32.96-.55.28-.23.52-.49.72-.79.01-.02.03-.04.04-.07,0,0,0,.02,0,.03.07.53.07,1.01,0,1.41-.07.38-.21.7-.4.95-.19.24-.43.42-.73.53-.19.07-.39.11-.58.12-.2,0-.38,0-.57-.06-.19-.05-.37-.13-.53-.24-.16-.1-.29-.22-.41-.38-.09-.11-.22-.19-.36-.2-.14-.01-.29.03-.39.13l-.19.16c-.21.18-.24.5-.06.72.43.54.98.9,1.62,1.06.26.07.51.1.77.1.39,0,.78-.07,1.17-.22.5-.19.92-.49,1.25-.89.33-.4.55-.91.67-1.51.1-.57.1-1.23,0-1.98-.11-.73-.34-1.56-.69-2.47ZM67.23,96.56c-.3-.01-.58-.08-.83-.2-.26-.12-.49-.28-.7-.49-.2-.2-.35-.44-.46-.72-.1-.28-.15-.55-.14-.84.01-.29.08-.56.19-.81.12-.25.28-.49.49-.69.21-.2.45-.35.73-.46.26-.1.51-.15.77-.15.03,0,.06,0,.09,0,.29.01.58.08.84.19.26.11.5.28.7.48.2.2.35.44.46.71.1.28.15.55.13.83-.02.29-.08.57-.2.83s-.28.49-.49.7c-.21.2-.45.36-.73.46-.28.11-.56.15-.85.14Z"/>
        <path class="cls-1" d="M78.04,89.2c-.3-.49-.65-.9-1.05-1.21-.4-.31-.83-.53-1.29-.66-.46-.12-.92-.15-1.39-.08-.46.07-.91.24-1.33.5-.41.25-.75.57-1.02.95-.27.37-.46.78-.56,1.21-.11.43-.13.88-.06,1.33.07.45.22.89.47,1.29h0c.25.4.56.74.94,1.01.37.26.78.45,1.21.55.43.1.88.12,1.32.06.45-.06.89-.22,1.29-.47.32-.2.6-.44.84-.72.23-.28.42-.58.56-.91.01-.02.02-.05.03-.07,0,0,0,.02,0,.03.17.51.26.98.26,1.39,0,.39-.07.73-.22,1.01-.14.27-.34.49-.62.66-.17.11-.36.18-.55.23-.19.05-.38.06-.57.05-.19-.02-.38-.06-.57-.13-.17-.07-.33-.16-.47-.29-.11-.1-.25-.14-.39-.13-.14.01-.28.08-.36.2l-.15.19c-.17.22-.14.54.07.72.52.45,1.13.7,1.79.74.07,0,.14,0,.21,0,.58,0,1.15-.16,1.68-.49.45-.28.81-.65,1.07-1.11.25-.46.38-1,.37-1.6,0-.58-.13-1.23-.38-1.94-.24-.69-.62-1.47-1.14-2.3ZM74.26,92.83c-.27-.07-.54-.18-.78-.35-.24-.16-.43-.37-.59-.62-.15-.25-.25-.51-.29-.8-.04-.28-.03-.56.04-.83.07-.27.19-.53.36-.77.17-.24.38-.43.64-.59.26-.16.53-.26.81-.3.3-.04.58-.03.86.03.28.06.54.18.78.35.23.16.43.37.58.61.15.25.25.51.28.79.04.29.03.58-.04.85-.07.27-.18.54-.35.78-.17.24-.37.43-.63.59-.26.16-.52.25-.81.29-.29.04-.58.03-.85-.04Z"/>
        <path class="cls-1" d="M86.06,85.21c-.24-.26-.52-.47-.82-.61-.3-.14-.61-.23-.94-.26-.28-.03-.56-.02-.84.03.03-.17.05-.34.05-.5,0-.28-.04-.56-.12-.82-.09-.28-.25-.55-.46-.78-.29-.31-.62-.53-.99-.64-.35-.11-.71-.14-1.07-.1-.35.04-.7.14-1.04.31-.33.16-.63.37-.9.62-.27.25-.5.53-.69.84-.2.32-.33.66-.41,1.01-.08.36-.08.73,0,1.09.08.38.27.73.55,1.04.21.23.46.41.72.53.26.11.53.18.81.2.17.01.34,0,.51,0-.06.24-.09.49-.1.74,0,.33.04.67.15.99.11.33.3.64.55.92.26.29.58.51.94.66.34.14.71.21,1.09.21.02,0,.04,0,.05,0,.39,0,.79-.09,1.2-.25.4-.16.8-.41,1.16-.75.32-.3.6-.63.81-.99.22-.37.36-.76.43-1.15.07-.41.06-.81-.04-1.2-.1-.4-.31-.78-.61-1.11ZM79.77,85.86c-.16-.04-.3-.13-.43-.27h0c-.14-.15-.22-.3-.26-.47-.04-.18-.04-.37,0-.56.04-.2.12-.4.24-.59.13-.21.28-.39.46-.55.18-.16.38-.3.6-.41.21-.1.42-.17.63-.2.06,0,.12-.01.18-.01.13,0,.25.02.37.05.16.05.3.14.43.29.13.14.21.29.23.45.03.19.03.39-.02.59-.05.21-.13.42-.25.62-.12.2-.26.38-.42.52-.16.14-.34.27-.55.37-.21.1-.42.17-.64.2-.2.03-.38.02-.57-.03ZM81.65,87.62c.04-.25.13-.5.26-.74.13-.24.29-.44.48-.62.18-.17.4-.31.65-.43.25-.12.5-.19.76-.22.07,0,.15-.01.22-.01.17,0,.34.02.5.07.21.06.4.19.57.37.17.18.27.38.32.59.05.24.06.48.02.72-.04.25-.13.49-.26.72-.13.24-.3.44-.49.62-.19.17-.41.32-.65.43-.24.11-.5.19-.76.22-.25.03-.48.01-.72-.06-.21-.06-.39-.18-.56-.37-.16-.18-.27-.37-.32-.59-.05-.24-.06-.47-.02-.72Z"/>
      </g>
    </g>
  </g>
</svg>