<?xml version="1.0" encoding="UTF-8"?>
<svg id="_レイヤー_2" data-name="レイヤー 2" xmlns="http://www.w3.org/2000/svg" viewBox="0 0 52.32 13.32">
  <defs>
    <style>
      .cls-1 {
        fill: #fff;
      }
    </style>
  </defs>
  <g id="_テキスト" data-name="テキスト">
    <g>
      <path class="cls-1" d="M2.06,3.67c-.26-.54-.44-1.07-.77-2.11.05.73.12,1.79.12,2.19v7.28c0,.9.03,1.43.14,2.01H0c.1-.63.14-1.12.14-2.01V2.14C.14,1.29.1.75,0,.12h1.97c.1.51.31,1.12.56,1.68l4.2,9.37L10.92,1.8c.29-.66.48-1.19.58-1.68h1.96c-.1.65-.14,1.14-.14,2.02v8.9c0,.94.03,1.4.14,2.01h-1.55c.1-.58.14-1.19.14-2.01V3.66c0-.48.05-1.4.12-2.09-.17.7-.41,1.38-.73,2.08l-3.47,7.64c-.34.77-.51,1.21-.65,1.77h-1.21c-.08-.44-.29-1.02-.63-1.79L2.06,3.67Z"/>
      <path class="cls-1" d="M25.48,13.17c-.54-.08-1-.12-1.91-.12h-4.98c-.82,0-1.29.02-1.87.05.1-.65.14-1.16.14-2.02V2.01c0-.73-.03-1.19-.14-1.94.6.03,1.05.05,1.87.05h4.85c.75,0,1.33-.03,1.91-.12v1.43c-.6-.09-1.06-.12-1.91-.12h-5.24v4.36h4.47c.75,0,1.26-.03,1.91-.12v1.43c-.58-.08-1.02-.12-1.91-.12h-4.47v5h5.39c.78,0,1.26-.03,1.89-.12v1.43Z"/>
      <path class="cls-1" d="M29.89.12c.15.39.37.77.87,1.53l5.38,8.05c.19.29.7,1.12,1.11,1.85-.07-1.36-.1-2.11-.1-2.26V2.08c0-.83-.03-1.36-.14-1.96h1.58c-.1.61-.14,1.09-.14,1.96v9.07c0,.85.03,1.36.14,1.91h-1.85c-.24-.49-.43-.83-.88-1.53l-5.46-8.2c-.14-.2-.7-1.17-.94-1.63.07.8.1,1.63.1,2.08v7.27c0,.9.03,1.46.14,2.02h-1.58c.1-.54.14-1.14.14-2.02V2.02c0-.78-.03-1.29-.14-1.91h1.79Z"/>
      <path class="cls-1" d="M52.32.12c-.1.6-.14,1.07-.14,1.92v6.31c0,1.5-.46,2.74-1.31,3.62-.85.87-2.21,1.34-3.86,1.34s-3.03-.48-3.88-1.38c-.83-.87-1.26-2.09-1.26-3.59V2.08c0-.87-.03-1.36-.14-1.96h1.6c-.1.54-.14,1.05-.14,1.96v6.23c0,2.45,1.4,3.84,3.83,3.84,1.31,0,2.35-.41,2.98-1.14.54-.66.85-1.62.85-2.71V2.08c0-.85-.03-1.36-.14-1.96h1.6Z"/>
    </g>
  </g>
</svg>