<?xml version="1.0" encoding="UTF-8"?>
<svg id="_レイヤー_2" data-name="レイヤー 2" xmlns="http://www.w3.org/2000/svg" viewBox="0 0 219.46 54.43">
  <defs>
    <style>
      .cls-1 {
        fill: #fff;
      }
    </style>
  </defs>
  <g id="_テキスト" data-name="テキスト">
    <g>
      <g>
        <path class="cls-1" d="M17.76,8.04c.31,0,.56-.12.75-.36,1.47-1.86,2.78-4.85,2.78-5.25,0-.48-.49-.81-.93-.81-.33,0-.61.18-.73.48-.47,1.24-1.24,3.08-2.52,4.73-.12.15-.19.33-.19.5,0,.4.37.71.84.71Z"/>
        <path class="cls-1" d="M10.56,6.69h0c.12.35.39.57.7.57.4,0,.84-.34.84-.89,0-.89-1.79-4.17-2.87-4.17-.44,0-.81.32-.81.69,0,.15.07.32.2.44.82.84,1.64,2.25,1.94,3.35Z"/>
        <path class="cls-1" d="M14.45,5.76c.06.36.33.59.69.59.42,0,.86-.35.86-.93,0-.32-1.07-4.31-2.35-4.31-.43,0-.81.33-.81.71,0,.13.05.26.13.37.59.89,1.29,2.4,1.49,3.58Z"/>
        <path class="cls-1" d="M21.28,10.8h-7.56c.28-.98.68-2.46.68-2.76,0-.48-.43-.74-.84-.74s-.72.24-.81.63c-.18.91-.41,1.87-.67,2.87h-3.05c-.21,0-.38.07-.5.19.06-.11.09-.23.09-.36,0-.71-2.17-2.45-2.67-2.45-.03,0-.06,0-.09,0l.02-1.27,2.2.02c.45,0,.76-.32.76-.79,0-.36-.28-.74-.74-.74l-2.22.02.05-4.48c0-.45-.34-.76-.84-.76-.41,0-.84.27-.84.76l.05,4.47-2.79-.02c-.45,0-.76.32-.76.79,0,.36.28.74.74.74l2.84-.02v.62c-.99,2.26-2.85,4.96-4.1,6.29-.16.19-.24.37-.24.55,0,.41.4.79.84.79.25,0,.49-.12.65-.33.88-1.05,1.94-2.69,2.85-4.38l-.07,10.34c0,.51.43.74.84.74.5,0,.84-.3.84-.74,0-.1-.06-9.31-.07-11.22.5.45,1.04,1.04,1.42,1.56.27.38.81.39,1.11.07-.04.1-.07.21-.07.31,0,.43.29.74.71.74l2.62-.02c-.53,1.65-1.13,3.17-1.78,4.53-.06.15-.09.27-.09.38,0,.39.35.71.79.71.62,0,.84-.48,1.19-1.35,1.03.15,2.03.41,3.03.79-1.48,1.7-3.75,2.57-6.74,2.57-.53,0-.81.39-.81.76s.31.79.84.79c1.63,0,5.67-.34,8.18-3.45,1.35.73,2.59,1.7,3.69,2.9.19.23.45.31.62.31.47,0,.86-.41.86-.88,0-.77-1.97-2.37-4.34-3.55.71-1.29,1.16-2.81,1.34-4.5l2.85.02c.48,0,.74-.37.74-.74,0-.35-.26-.71-.74-.71ZM16.8,12.23c-.17,1.5-.56,2.8-1.16,3.87-1.09-.42-2.24-.73-3.36-.9.33-.87.66-1.82,1.01-2.97h3.5Z"/>
        <path class="cls-1" d="M32.47,4.05l4.26-.02,4.04.02c.5,0,.76-.38.76-.74s-.24-.74-.76-.74l-3.3.02.02-1.81c0-.54-.42-.79-.81-.79-.49,0-.84.32-.84.79l.02,1.81-3.4-.02c-.52,0-.76.38-.76.74s.27.74.76.74Z"/>
        <path class="cls-1" d="M33.22,5.17c0,.13.05.26.16.4.29.35.85,1.21,1.15,2.04.12.29.37.48.65.48.4,0,.84-.33.84-.81s-1.16-2.79-2.01-2.79c-.43,0-.79.31-.79.69Z"/>
        <path class="cls-1" d="M31.86,9.56h9.6c.48,0,.74-.37.74-.74,0-.35-.26-.71-.74-.71l-2.91.02c.49-.9,1.32-2.6,1.32-3.01,0-.45-.45-.79-.86-.79-.35,0-.62.21-.73.57-.29,1-.82,2.31-1.31,3.23l-5.11-.02c-.48,0-.74.37-.74.71,0,.37.25.74.74.74Z"/>
        <path class="cls-1" d="M41.07,16.75c0-.97-2.68-2.21-3.04-2.21-.26,0-.5.16-.62.38v-1.37s3.54.07,3.54.07c.42,0,.71-.3.71-.74,0-.34-.22-.71-.71-.71h-3.52v-1.78c0-.46-.38-.74-.74-.74s-.76.26-.76.74l.02,1.78h-3.77c-.5,0-.76.38-.76.74s.26.71.74.71l3.48-.07c-1.24,1.75-2.99,3.48-4.53,4.47-.32.19-.43.48-.43.69,0,.43.36.76.81.76.76,0,2.91-2.12,4.45-4.11l-.02,5.47c0,.48.39.74.76.74s.76-.26.76-.74l-.04-5.27c.06.08.14.16.25.22.71.33,1.6.98,2.15,1.58h0c.15.15.31.23.49.23.41,0,.76-.39.76-.84Z"/>
        <path class="cls-1" d="M52.2,7.66h-7.61c0-.74-.02-1.46-.05-2.2v-.2c0-.7.2-1.13,1.26-1.4,1.25-.32,3.15-.88,4.57-1.43.43-.16.58-.5.58-.75,0-.45-.38-.84-.84-.84-.08,0-.21,0-.34.06-1.25.53-2.75,1.02-4.58,1.51-1.19.31-2.29.86-2.29,2.69v.23c.05,1.18.1,2.35.1,3.57,0,3.18-.3,7.77-2.92,10.91-.15.18-.21.34-.21.53,0,.41.39.76.86.76.29,0,.56-.14.77-.41,1.95-2.4,2.96-6.18,3.07-11.54h3.08l-.02,11.63c0,.53.42.81.84.81.39,0,.81-.28.81-.81l-.02-11.6h2.93c.5,0,.76-.38.76-.76s-.26-.76-.76-.76Z"/>
        <path class="cls-1" d="M81.95,3.5l-9.84.02c-.04-1.34-.93-2.13-2.51-2.2-.74-.05-1.54-.05-2.39-.05-.8,0-1.62,0-2.41.05-1.56.09-2.44.93-2.47,2.35-.02,1.32-.02,3.32-.02,5.24s0,3.97.02,5.34c.03,1.36.95,2.3,2.34,2.38,1.65.11,3.32.09,4.87,0,1.51-.08,2.51-1.01,2.56-2.37.05-1.23.05-3.05.05-4.98,0-1.47,0-2.99-.02-4.23l4.86-.02v13.1c0,1.13-.5,1.56-1.78,1.56-.58,0-1.31-.07-2.18-.22h-.15c-.52,0-.84.44-.84.86,0,.31.2.72.76.81.75.13,1.49.2,2.21.2,2.47,0,3.68-.97,3.68-2.97l-.02-2.3V5.03l3.28.02c.46,0,.79-.32.79-.79,0-.37-.25-.76-.79-.76ZM70.61,9.17c0,1.8,0,3.63-.02,4.82-.02,1.1-.61,1.29-2.61,1.3v-6.12h2.64ZM70.61,7.79h-2.64V2.68c1.9,0,2.57.1,2.61,1.25.02.94.02,2.35.02,3.86ZM66.42,9.17v6.09c-1.71,0-2.47-.09-2.52-1.25-.01-.56-.05-2.53-.05-4.84h2.56ZM66.42,2.68v5.11h-2.56c0-1.87.04-3.4.05-3.83.04-1.07.4-1.27,2.52-1.28Z"/>
      </g>
      <g>
        <g>
          <path class="cls-1" d="M21.38,40.69c-.03-1.47-1.01-2.42-2.5-2.42h-2.03l.05-4.23c0-.5-.43-.76-.84-.76-.49,0-.84.31-.84.76v4.21c-.46,0-.91,0-1.35.01-.47,0-.93.01-1.37.01-.48,0-.74.39-.74.76s.24.71.71.71c.4,0,.84-.01,1.3-.02.46-.01.93-.02,1.41-.03-.06,3.25-.55,7.57-3.43,10.85,0-.04.01-.08.01-.13,0-.33-.24-.69-.59-.69-.05,0-.09.01-.12.02l.05.17h0l-.1-.16c-.83.21-2.11.51-3.58.77l-.02-1.6,3.47-.05c.49,0,.71-.34.71-.66s-.23-.66-.69-.66l-3.49.07v-1.19c.63,0,1.28,0,1.91-.02,1.71-.03,2.11-1.09,2.15-1.98.02-.52.02-1.11.02-1.67,0-.39,0-.79-.02-1.14-.05-.84-.63-1.75-2.13-1.78-.66-.02-1.28-.02-1.94-.02v-1.29l4.06.02c.49,0,.71-.36.71-.69s-.25-.69-.71-.69l-4.06.02v-1.55c1.21-.11,2.36-.28,3.34-.5.48-.1.66-.42.66-.69,0-.35-.3-.74-.74-.74-.05,0-.09,0-.12.02h-.07c-1.96.45-4.36.69-6.77.69-.46,0-.9,0-1.35-.02-.48,0-.74.37-.74.71,0,.66.59.71,1.3.71.85,0,1.95-.03,2.99-.09,0,.19,0,.39,0,.6,0,.27.01.55.01.86l-4.16-.02c-.49,0-.71.36-.71.69s.25.69.71.69l4.16-.02v1.29c-.55,0-1.12,0-1.72.02-2.18.08-2.35,1.25-2.35,3.04,0,.57,0,1.16.02,1.6.05,1.91,1.47,1.96,4.04,1.96l-.02,1.22-3.65.02c-.51,0-.74.37-.74.71s.24.66.72.66l3.67-.09v1.83c-1.47.23-3,.42-4.42.54-.42.03-.65.39-.65.71,0,.37.23.74.74.74.57,0,7-.91,9.7-1.72-.52.52-1.11,1.02-1.77,1.47-.25.17-.37.38-.37.66,0,.43.39.81.84.81.15,0,.34-.02.56-.18,4.05-2.79,6.11-7.41,6.29-14.12.32,0,.61,0,.89.01.28,0,.56.01.77.01.56.02,1.23.24,1.25,1.2,0,.29,0,.58.01.89,0,.31.01.63.01.95,0,6.23-.99,9.13-3.11,9.13-.41,0-.88-.1-1.5-.31-.11-.03-.22-.05-.31-.05-.53,0-.81.44-.81.86,0,.38.23.69.59.8.7.22,1.37.33,2.01.33,3.29,0,4.75-3.2,4.75-10.39,0-.41,0-.82-.01-1.23,0-.4-.01-.8-.01-1.19ZM3.35,43.66h2.59v1.51c-2.49,0-2.59-.03-2.59-1.51ZM5.94,41.02v1.44h-2.58s0-.1,0-.14c0-.1.01-.18.01-.26.03-.69.34-.99,1.02-1.01.2,0,.43,0,.69-.01.26,0,.55-.01.85-.01ZM7.42,42.45v-1.44c2.32,0,2.59.03,2.61,1.44h-2.61ZM7.42,45.17v-1.51h2.61c0,.07,0,.14,0,.21,0,.13-.01.25-.01.37-.02.88-.43.93-2.59.93Z"/>
          <path class="cls-1" d="M51.54,39.74c-.03-1.56-1.01-2.5-2.65-2.5h-6.28c.3-.77,1.22-3.12,1.22-3.55,0-.48-.45-.76-.88-.76-.37,0-.65.21-.73.55-.51,2.21-1.78,5.52-3.25,7.57-.11.14-.19.33-.19.48,0,.39.35.71.79.71.31,0,.59-.15.78-.42.55-.78,1.17-1.94,1.71-3.18.21,0,.44,0,.69-.01.29,0,.6-.01.92-.01-.52,2.71-1.79,6.34-4.87,8.62-.25.19-.39.43-.39.68,0,.43.36.79.81.79.83,0,4.62-3.13,6.02-10.09.31,0,.63,0,.94.01.28,0,.56,0,.83.01-.52,6.22-2.88,10.51-7.19,13.09-.21.12-.33.34-.33.62,0,.4.3.81.81.81.18,0,.36-.05.53-.15,4.57-2.67,7.18-7.51,7.76-14.38h.03c.87.02,1.26.42,1.3,1.32l.02.79c.02.73.05,1.55.05,2.39,0,4.29-.42,9.2-3.72,9.2-.44,0-.97-.08-1.63-.24-.1-.03-.19-.03-.28-.03-.48,0-.74.4-.74.79s.26.75.62.83c.69.17,1.36.25,2,.25,3.71,0,5.37-3.25,5.37-10.53,0-.94-.02-1.84-.05-2.71,0-.33-.02-.66-.03-.96Z"/>
          <path class="cls-1" d="M39.93,43.95c0-.4-.33-.76-.69-.76-.09,0-.15.02-.21.04l-.06.02c-.62.32-1.32.65-2.09.97l.02-4.51h1.96c.48,0,.74-.37.74-.74s-.23-.74-.74-.74h-1.95l.02-4.53c0-1-1.62-1-1.62,0l-.02,4.53-1.55.02c.19-1.15.31-2.15.31-2.47,0-.48-.42-.74-.81-.74s-.81.26-.81.76c-.05,1.51-.31,4.41-1.51,6.97-.06.15-.09.26-.09.36,0,.39.31.66.74.66.75,0,1.18-.57,1.91-4.04l1.81-.04-.02,5.13c-1.12.4-2.34.81-3.62,1.2-.36.11-.59.4-.59.76,0,.4.31.81.84.81.24,0,1.23-.33,3.38-1.15l-.02,7.22c0,.48.42.74.81.74s.81-.26.81-.74l.02-7.84c2.8-1.14,3.06-1.43,3.06-1.91Z"/>
          <path class="cls-1" d="M81.62,51.83h-.03c-2.21.04-5.5.1-8.62.1-2.41,0-4.58-.03-6.12-.07-1.63-.05-2.28-.56-2.33-1.84-.05-1.74-.07-3.71-.07-5.7,0-2.22.03-4.51.07-6.61.03-1.18.7-1.77,2.06-1.79.85-.02,1.91-.02,3.13-.02,1.88,0,4.04.01,6.1.03,1.89.01,3.7.02,5.14.02.5,0,.76-.38.76-.76s-.26-.76-.74-.76c-2.12-.02-5.3-.05-8.33-.05-2.43,0-4.76.03-6.52.05-1.92.02-3.18,1.17-3.21,2.91-.05,2.45-.07,4.95-.07,7.42,0,1.95.02,3.84.07,5.64.05,1.82,1.3,2.94,3.33,2.99,1.85.07,4.41.1,7.62.1s5.83-.03,7.74-.1c.5,0,.76-.41.76-.79s-.26-.76-.76-.76Z"/>
          <path class="cls-1" d="M79.86,44.32c.46,0,.74-.38.74-.74s-.25-.74-.74-.74l-6.04.02c.06-.44.14-1.3.14-2.88l4.28.02c.51,0,.74-.37.74-.74,0-.34-.23-.71-.74-.71h-7.88c.28-.51.63-1.2.63-1.39,0-.44-.47-.76-.88-.76-.32,0-.56.16-.68.45-.61,1.49-1.46,2.81-2.61,4.03-.14.14-.22.33-.22.52,0,.41.39.76.84.76s.85-.32,2.05-2.18h2.89c0,1.41,0,2.18-.1,2.88l-5.58-.02c-.48,0-.74.37-.74.74s.28.74.74.74c1.31,0,2.58-.02,3.63-.03.64,0,1.2-.02,1.64-.02-.75,2.56-2.62,4.22-5.54,4.92-.47.13-.64.46-.64.73,0,.4.3.81.81.81.05,0,4.74-.59,6.61-5.51,1.62,3.36,5.62,5.36,6.47,5.36.57,0,.86-.42.86-.84,0-.3-.16-.66-.58-.78-2.57-.88-4.64-2.58-5.73-4.7.51,0,1.11,0,1.79.02,1.1.01,2.39.03,3.83.03Z"/>
        </g>
        <path class="cls-1" d="M112.52,44.6c-.96-.42-1.85-.93-2.63-1.52,1.82-1.17,1.98-1.54,1.98-1.8,0-.44-.44-.76-.84-.76-.2,0-.39.09-.5.23-.36.43-1.08,1.11-1.64,1.51-.77-.7-1.46-1.51-2.04-2.37l4.48.02c.5,0,.76-.36.76-.71,0-.33-.27-.69-.76-.69l-6.69.02c.45-1.09.5-1.39.5-1.51,0-.16-.05-.3-.14-.41,3.09.01,5.87.04,6.78.05.5,0,.76-.38.76-.74s-.27-.74-.76-.74c-1.97-.02-4.75-.02-7.47-.02v-1.47c0-.59-.45-.86-.86-.86s-.86.27-.86.86l.02,1.47c-.94,0-1.84,0-2.68.01-.77,0-1.48.01-2.11.01-1.87,0-2.94.96-2.94,2.62v.18c.01.33.03.67.04,1,.04,1.01.08,2.05.08,3.06,0,.56-.02,1.13-.04,1.64-.97.58-1.98,1.02-3.1,1.36-.33.12-.53.4-.53.73,0,.43.31.88.84.88.64,0,2.03-.86,2.65-1.27-.34,2.98-1.22,5.3-2.74,7.28-.12.15-.19.31-.19.48,0,.44.39.81.86.81.32,0,.61-.16.83-.46,2.62-3.51,2.97-8.06,2.97-12.05,0-1.12-.02-2.25-.07-3.33v-.07c0-.93.47-1.37,1.49-1.39,1.41-.03,3.61-.03,5.79-.02-.07.09-.13.2-.16.34-.16.61-.32,1.11-.51,1.58l-5.05-.02c-.49,0-.76.35-.76.69,0,.35.26.71.76.71l4.41-.02c-.48.87-1.03,1.64-1.67,2.34-.44-.41-1.58-1.44-2.2-1.44-.44,0-.74.36-.74.69,0,.22.12.42.33.54.51.29,1.19.75,1.62,1.16-.81.71-1.77,1.32-2.89,1.83-.36.18-.44.45-.44.65,0,.37.31.76.76.76.5,0,1.72-.85,2.41-1.37-.02.55-.04,1.15-.04,1.71,0,2.36.48,2.69,4.21,2.7l.02,2.64c0,.58-.27.78-1.02.78-.32,0-.75-.04-1.35-.12h-.1c-.43,0-.76.34-.76.79,0,.67.51.88,2.11.88,1.77,0,2.67-.68,2.67-2.04v-.05s-.02-1.02-.02-1.15v-1.74c3.88-.01,4.14-.46,4.14-3.31,0-.57-.02-1.12-.05-1.63,1.01.79,2.22,1.56,2.69,1.56.5,0,.84-.43.84-.84,0-.29-.17-.54-.45-.65ZM104.23,39.86l1.11.02c.51.9,1.15,1.79,1.88,2.59-.04,0-.07,0-.11,0h0c-1.3-.04-3.42-.05-4.81-.01.69-.84,1.27-1.71,1.73-2.59l.19-.02ZM102.19,43.73c.71-.02,1.75-.02,2.76-.02,2.93,0,3.03,0,3.03,1.58h-6.92c0-.12,0-.24.01-.35,0-.14.01-.27.01-.38,0-.66.6-.82,1.11-.83ZM101.04,46.5h6.97c0,.13,0,.26-.01.38,0,.15-.01.3-.01.41-.04.82-.3.89-3.5.89-2.96,0-3.39-.05-3.43-.85-.02-.22-.02-.52-.02-.84Z"/>
        <path class="cls-1" d="M93.49,41.53c.12.24.32.36.57.36.38,0,.81-.38.81-.86,0-.74-1.73-2.65-2.4-2.65-.42,0-.81.33-.81.69,0,.2.09.37.26.48.54.43,1.2,1.26,1.57,1.97Z"/>
        <path class="cls-1" d="M101.97,50.66c0-.45-.34-.84-.74-.84-.13,0-.26.05-.41.17-1.18,1.03-2.54,1.83-4.06,2.37-.31.11-.48.37-.48.7,0,.4.32.84.79.84.31,0,4.9-2.12,4.9-3.24Z"/>
        <path class="cls-1" d="M107.38,49.9c-.46,0-.76.39-.76.76,0,.3.17.52.46.61,1.1.36,2.95,1.36,3.83,2.21h0c.19.16.37.25.53.25.43,0,.79-.41.79-.88,0-1.3-4.44-2.94-4.85-2.94Z"/>
        <path class="cls-1" d="M136.23,46.11c-.25.25-.38.53-.38.81,0,.44.35.79.79.79,1.29,0,5.01-5.11,5.01-6.46,0-.84-.32-1.39-1.36-1.54-.71-.1-1.4,0-8.34,1.61.09-2.04.08-2.68.08-4.06,0-.45-.51-.77-.97-.77-.42,0-.84.27-.84.87,0,1.57-.05,2.07-.13,4.4l-.77.17c-2.48.56-4.62,1.05-5.11,1.13-.41.08-.68.35-.68.7,0,.41.31.88.89.97.14.02.27,0,.41-.03l5.22-1.25c-.16,4.13-.08,6.58-.08,6.65,0,3.1,2.71,3.36,5.72,3.36,1.61,0,3.3-.17,4.64-.46,1.05-.22,1.13-.87,1.13-1.07,0-.43-.36-.87-1.04-.87-.15,0-.32.03-.48.08-1.46.43-3.43.58-4.78.58-2.92,0-3.48-.64-3.48-1.83l.23-6.89c3.45-.83,7.01-1.73,7.54-1.72.34,0,.36.41.23.68-.12.22-.47,1.38-3.42,4.11Z"/>
        <path class="cls-1" d="M157.42,41.52c.52-.09.88-.65.79-1.21-.05-.31-.23-.55-.51-.7-1.91-1.01-4.98-1.39-5.24-1.34-.54.09-.79.62-.72,1.05.07.38.32.63.66.65,1.35.14,3.26.65,4.31,1.37.22.16.47.22.7.18Z"/>
        <path class="cls-1" d="M167.88,40.76c-.35-.03-.7.14-.86.45-2.67,5.32-8.06,9.42-13.26,9.93-.67.07-.94.55-.97.91-.04.47.31.99.96,1.03.8.06,9.73-1.87,14.8-10.79.11-.16.17-.35.19-.56.04-.57-.4-.94-.86-.98Z"/>
        <path class="cls-1" d="M191.1,37.43c-.56,0-3.87,0-4.98.05.29-.42.49-.68.49-.98,0-.54-.5-.91-.96-.91-.22,0-.63.08-.87.64-.96,2.24-4.26,6.2-6.61,7.68-.37.24-.57.55-.57.88,0,.44.36.79.81.79,1.38,0,5.21-4.72,6.57-6.52,1.36-.08,5.16-.12,5.7-.12.49,0,.49.26.49.36,0,.63-2.06,4.33-2.97,5.59-1.85-1.05-4.23-2.19-4.69-2.19-.53,0-.81.42-.81.81,0,.31.19.57.5.66,1.02.29,2.79,1.31,3.98,2.02-2.48,2.94-5.31,4.49-8.73,5.73-.55.21-.75.59-.75.87,0,.38.31.79.88.79.37,0,5.68-1.19,10.01-6.46.37.26.57.35,1.15.88.21.19.46.28.7.25.46-.05.81-.5.76-.97-.06-.55-.61-.82-1.58-1.49,1.06-1.46,2.09-3.54,3.07-5.37.25-.45.39-.93.39-1.33,0-1.03-.76-1.67-1.99-1.67Z"/>
        <path class="cls-1" d="M218.6,42.7h-15.57c-.57,0-.88.46-.88.88s.27.84.88.84h15.57c.59,0,.86-.45.86-.86s-.27-.86-.86-.86Z"/>
      </g>
    </g>
  </g>
</svg>