<?xml version="1.0" encoding="UTF-8"?>
<svg id="_レイヤー_2" data-name="レイヤー 2" xmlns="http://www.w3.org/2000/svg" viewBox="0 0 188.43 15.67">
  <defs>
    <style>
      .cls-1 {
        fill: #fff;
      }
    </style>
  </defs>
  <g id="_テキスト" data-name="テキスト">
    <g>
      <path class="cls-1" d="M13.12,1.68c-1.94,1.67-2.76,2.25-4.61,3.25.48.34.68.48,1.33.97l-.44.44h3.08c1.02,0,1.45-.02,1.8-.08l.66.73c-.07.07-.27.31-.46.56-1.17,1.48-1.6,1.91-2.98,2.98-.31-.31-.54-.49-.88-.7,1.14-.77,1.75-1.33,2.72-2.47h-5.17v6.6c0,1.09-.41,1.38-1.99,1.38-.53,0-1.43-.03-2.01-.08-.07-.54-.12-.77-.27-1.17.97.15,1.65.2,2.38.2.58,0,.75-.12.75-.49v-6.43H1.75c-.75,0-1.21.03-1.75.1v-1.23c.48.07.99.1,1.89.1h6.81c-1.36-1.07-2.74-1.92-4.7-2.89l.7-.75c1.5.78,2.08,1.11,2.89,1.62,1.56-.82,2.47-1.41,3.62-2.42H3.33c-.9,0-1.26.02-1.75.08V.83c.51.08.95.1,1.79.1h7.79c.63,0,.9-.02,1.26-.05l.7.8Z"/>
      <path class="cls-1" d="M17.19,7.5c.26.03.37.05.61.05.08,0,.6-.02.87-.03.63-.75.8-.97,1.29-1.63-.87-1.05-1.31-1.51-2.59-2.6l.63-.8c.37.36.46.43.73.7.94-1.41,1.51-2.48,1.68-3.15l1.05.48c-.12.17-.2.31-.39.65-.49.9-.99,1.68-1.68,2.67.51.51.78.82,1.14,1.24,1.16-1.67,1.74-2.6,1.96-3.22l1,.6c-.15.2-.25.36-.49.7-1.36,2.06-2.26,3.32-3.15,4.3,1.28-.08,1.58-.1,2.76-.26-.25-.56-.34-.73-.68-1.34l.78-.31c.58.97,1.04,1.97,1.5,3.23l-.87.39c-.17-.54-.22-.7-.39-1.14-.19.03-.34.05-.43.05-.14.02-.53.07-1.17.14v5.6c0,.73.03,1.23.1,1.74h-1.24c.07-.49.1-1.04.1-1.75v-5.48q-1.26.12-1.91.17c-.68.05-.7.05-1.04.12l-.19-1.11ZM19.28,9.61c-.31,2.5-.49,3.28-1.12,4.81l-.94-.44c.63-1.34.92-2.5,1.12-4.56l.94.19ZM23.14,9.32c.49,1.53.71,2.45,1,4.05l-.99.32c-.22-1.68-.46-2.79-.87-4.1l.85-.27ZM26.02,3.95c-.51,1.02-1.06,1.84-1.74,2.65-.27-.29-.53-.48-.88-.66.77-.83,1.38-1.77,1.91-2.91.56-1.22.82-1.99.95-2.81l1.16.29q-.14.32-.44,1.17c-.14.37-.27.71-.49,1.26h4.25c.68,0,1.02-.02,1.38-.07q-.05.49-.09,2.62c-.02,2.67-.34,6.02-.73,7.71-.39,1.63-.82,1.99-2.45,1.99-.49,0-1.12-.03-1.8-.1-.05-.46-.12-.73-.29-1.17.94.15,1.58.22,2.26.22.8,0,.99-.2,1.22-1.29.44-1.94.7-5.24.73-8.9h-4.95ZM27.82,10.77c-.78-1.91-1.22-2.71-2.33-4.22l.88-.51c1.11,1.51,1.6,2.38,2.42,4.15l-.97.58Z"/>
      <path class="cls-1" d="M36.65,2.31c-.65,0-1.31.03-1.85.1v-1.24c.53.07,1.09.1,1.84.1h11.31c.82,0,1.36-.03,1.85-.1v1.24c-.53-.07-1.14-.1-1.84-.1h-4.27c-.43.85-.61,1.19-1.09,1.91v9.43c0,.7.03,1.26.12,1.84h-1.4c.07-.56.12-1.21.12-1.84v-6.07c0-.68.02-1.26.03-1.94-.63.87-1.51,1.8-2.6,2.76-1.04.94-2.09,1.7-3.67,2.67-.2-.37-.37-.6-.78-1,2.19-1.21,3.71-2.35,5.26-3.96,1.26-1.29,1.91-2.21,2.71-3.78h-5.73ZM44.31,5.12c.92,1.14,1.6,1.8,2.62,2.64,1.12.88,2.13,1.51,3.4,2.11-.31.29-.49.54-.78,1.05-2.53-1.4-4.46-3.03-6.07-5.1l.83-.7Z"/>
      <path class="cls-1" d="M57.68,9.09c.49-.68.61-.87.95-1.53h-2.82c-.95,0-1.51.02-1.96.07.05-.44.07-.8.07-1.48v-1.22c0-.68-.02-1.09-.07-1.55.48.05,1.07.08,1.84.08h1.94v-1.65h-2.98c-.88,0-1.43.02-1.89.08V.77c.43.07,1,.1,1.92.1h10.74c.95,0,1.5-.03,1.94-.1v1.12c-.48-.07-1.02-.08-1.89-.08h-3.18v1.65h2.02c.82,0,1.38-.03,1.85-.08-.05.46-.07.82-.07,1.55v1.21c0,.75.02,1.09.07,1.5-.43-.05-.97-.07-1.96-.07h-4.39c-.48.83-.58.97-.95,1.53h6.58c.94,0,1.46-.03,1.91-.1v1.12c-.54-.07-1.09-.08-1.91-.08h-1.87c-.56,1.17-1.11,1.89-2.04,2.69,2.11.68,3.54,1.21,5.44,2.02l-.77.94c-1.91-.94-3.25-1.48-5.61-2.28-1.92,1.19-4.05,1.79-7.49,2.08-.12-.39-.24-.65-.49-1.05,2.82-.07,4.83-.49,6.69-1.41-1.33-.39-2.54-.68-4.24-1.04.8-.71,1.12-1.07,1.87-1.94h-2.33c-.82,0-1.36.02-1.89.08v-1.12c.44.07.99.1,1.89.1h3.06ZM54.96,4.32v2.36h2.67v-2.36h-2.67ZM58.19,10.02c-.44.54-.66.82-1.29,1.45,1.58.36,2.18.51,3.47.9,1.02-.75,1.62-1.43,2.01-2.35h-4.19ZM58.6,3.45h2.72v-1.65h-2.72v1.65ZM58.6,6.69h2.72v-2.36h-2.72v2.36ZM62.29,6.69h2.77v-2.36h-2.77v2.36Z"/>
      <path class="cls-1" d="M79.11,7.79c0,.77-.63,1.4-1.4,1.4s-1.4-.63-1.4-1.4.63-1.4,1.4-1.4,1.4.63,1.4,1.4Z"/>
      <path class="cls-1" d="M94.67,2.02c0-.65-.03-1.21-.12-1.79h1.4c-.08.56-.12,1.11-.12,1.79v3.66h3.96c.88,0,1.36-.03,1.84-.1v1.24c-.53-.07-1-.09-1.84-.09h-3.96v6.79h5.24c.8,0,1.4-.03,1.92-.1v1.29c-.63-.09-1.19-.12-1.92-.12h-11.18c-.77,0-1.4.03-2.02.12v-1.29c.53.07,1.16.1,2.02.1h4.78v-6.79h-3.57c-.83,0-1.36.02-1.85.09v-1.24c.44.07,1.02.1,1.85.1h3.57v-3.66Z"/>
      <path class="cls-1" d="M106.49,2.67c0-.68-.02-1.17-.08-1.67.54.07,1.04.09,1.82.09h7.66c.78,0,1.26-.02,1.75-.09-.07.49-.08.92-.08,1.57v10.91c0,.82.03,1.29.1,1.82h-1.24v-1.11h-8.78v1.11h-1.24c.07-.51.1-1.04.1-1.8V2.67ZM107.63,6.89h8.78V2.13h-8.78v4.76ZM107.63,13.15h8.78v-5.22h-8.78v5.22Z"/>
      <path class="cls-1" d="M121.24,3.08c.39.07.71.09,1.36.09h2.98c.71,0,.95-.02,1.36-.09v1.09c-.36-.03-.7-.05-1.24-.05h-3.1c-.61,0-.95.02-1.36.07v-1.11ZM121.85.73c.37.07.63.09,1.23.09h2.26c.58,0,.85-.02,1.22-.09v1.07c-.36-.05-.71-.07-1.22-.07h-2.26c-.51,0-.83.02-1.23.07V.73ZM121.87,15.47c.05-.49.08-1.05.08-1.65v-2.26c0-.61-.02-.97-.07-1.4.43.05.75.07,1.4.07h2.02c.63,0,.95-.02,1.28-.05-.03.31-.05.68-.05,1.34v2.3c0,.6.02,1,.09,1.43h-1.06v-.68h-2.62v.9h-1.07ZM121.9,5.48c.32.05.56.07,1.16.07h2.31c.58,0,.85-.02,1.14-.07v1.05c-.37-.05-.61-.07-1.14-.07h-2.31c-.54,0-.82.02-1.16.07v-1.05ZM121.9,7.83c.39.05.6.07,1.16.07h2.31c.56,0,.8-.02,1.14-.07v1.05c-.36-.05-.6-.07-1.14-.07h-2.31c-.54,0-.8.02-1.16.07v-1.05ZM122.94,13.68h2.62v-2.57h-2.62v2.57ZM132.06.36c.75,1.28,1.33,1.97,2.4,2.91.78.68,1.41,1.12,2.55,1.75-.27.29-.46.56-.66.99-1.19-.75-1.85-1.28-2.71-2.08-.95-.92-1.45-1.5-2.2-2.67-.7,1.26-1.22,1.96-2.18,2.91-.66.63-1.19,1.05-2.13,1.7-.26-.39-.36-.51-.77-.87,1-.56,1.62-1.02,2.38-1.8.9-.9,1.36-1.55,2.04-2.84h1.26ZM136.38,9.97q-.24.24-1.24,1.33c-.82.87-2.25,1.97-3.42,2.6-1.16.63-2.11,1-3.73,1.5-.19-.34-.37-.6-.71-.95,2.65-.7,4.37-1.51,6.02-2.89,1.07-.88,1.79-1.68,2.13-2.36l.95.78ZM134.47,7.47c-.05.03-.07.07-.1.08-.08.09-.1.1-.24.24-.65.68-1.6,1.5-2.3,1.97-1.17.82-2.01,1.26-3.66,1.91-.24-.36-.32-.46-.71-.88,2.11-.68,3.71-1.58,5.07-2.84.53-.49.78-.8,1.04-1.23l.9.75ZM132.8,4.87c-.17.15-.2.17-.48.46-1.29,1.33-2.33,2.06-4.19,2.96-.22-.37-.37-.58-.63-.85,1.94-.77,3.73-2.11,4.41-3.32l.88.75Z"/>
      <path class="cls-1" d="M141.19,6.5c.58.39.85.61,1.38,1.09.44-.34.68-.54,1.12-.95-.51-.44-.83-.68-1.5-1.07l.61-.53c.6.34,1,.63,1.46,1,.49-.54.71-.83,1.19-1.57h-2.71c-.99,1.07-1.82,1.75-3.2,2.57-.19-.32-.31-.46-.61-.75,1.8-.97,2.67-1.7,3.62-3.08.17-.24.25-.37.39-.7l.97.41c-.05.07-.24.31-.56.75h1.58c.7,0,.87-.02,1.12-.05l.61.68c-.08.1-.1.14-.41.56-.87,1.28-1.45,1.94-2.48,2.88-1.22,1.09-2.55,1.94-4.42,2.82-.17-.37-.27-.53-.6-.88,1.33-.54,2.14-.95,3.11-1.6-.44-.44-.75-.7-1.38-1.11l.68-.48ZM143.79,12.15c-1.29,1.46-2.18,2.19-3.79,3.08-.27-.39-.44-.58-.8-.85,1.74-.8,2.55-1.43,3.69-2.76l.9.53ZM145.78,1.21c0-.43-.02-.75-.1-1.19h1.31c-.07.39-.1.73-.1,1.19v.2h5.16c.77,0,1.16-.02,1.7-.07-.05.37-.07.66-.07,1.17v.58c0,.58.02.88.07,1.24h-1.11v-2.01h-12.28v1.99h-1.11c.05-.37.07-.68.07-1.24v-.58c0-.46-.02-.78-.07-1.16.56.05.97.07,1.72.07h4.82v-.2ZM142.22,11.06c-.66,0-1.02.02-1.43.08v-1.07c.39.07.73.08,1.43.08h8.54c.68,0,.99-.02,1.4-.08v1.07c-.43-.07-.75-.08-1.4-.08h-3.66v3.18c0,.54-.15.9-.46,1.02-.25.1-.9.17-1.53.17-.34,0-.92-.02-1.34-.05-.05-.43-.12-.7-.27-1.04.73.12,1.23.15,1.91.15.53,0,.63-.07.63-.41v-3.03h-3.81ZM143.79,7.76c.39.07.71.09,1.41.09h2.55c.66,0,.97-.02,1.36-.09v1.05c-.42-.07-.7-.08-1.36-.08h-2.55c-.68,0-.97.02-1.41.08v-1.05ZM147.36,3.06c.27.97,1.07,2.3,1.97,3.33.77-.66,1.21-1.14,1.79-1.96h-1.67c-.63,0-.99.02-1.38.09v-.97c.41.07.71.08,1.43.08h1.21c.54,0,.88-.02,1.09-.07l.63.65c-.22.27-.34.43-.54.68-.71.97-1.04,1.33-1.96,2.11,1.21,1.11,2.25,1.72,4.02,2.35-.25.32-.41.61-.53,1.02-1.94-.87-3.27-1.8-4.47-3.11-.8-.85-1.21-1.45-1.82-2.59-.02-.02-.15-.24-.37-.66-.1-.15-.19-.31-.32-.51l.94-.44ZM149.64,11.65c1.46,1.36,2.26,1.87,4.08,2.67-.36.34-.48.49-.71.92-1.85-.95-2.64-1.51-4.24-3.05l.87-.54Z"/>
      <path class="cls-1" d="M158.26,1.92c-.68,0-1.26.03-1.79.1V.82c.49.07,1.05.1,1.79.1h11.4c.71,0,1.29-.03,1.8-.1v1.21c-.51-.07-1.11-.1-1.77-.1h-.34v12.1c0,1.11-.39,1.36-2.04,1.36-.58,0-1.34-.03-2.26-.08-.03-.41-.12-.75-.27-1.16.99.14,1.97.2,2.69.2.63,0,.77-.08.77-.48V1.92h-9.97ZM165.1,9.7c0,.56.02.9.07,1.26-.34-.03-.94-.05-1.43-.05h-4.03v1.55h-1.21c.07-.46.1-.9.1-1.36v-5.38c0-.66-.02-1.05-.08-1.48.44.05.85.07,1.58.07h3.49c.73,0,1.14-.02,1.6-.07-.07.43-.08.73-.08,1.43v4.03ZM159.7,9.94h4.29v-4.66h-4.29v4.66Z"/>
      <path class="cls-1" d="M173.17,3.62c.24,0,.61.02.75.02q.1,0,.6-.02c.29-.44.46-.77.75-1.33.56-1.11.73-1.51.94-2.3l1.19.34c-.15.24-.24.43-.34.66-.17.41-.97,1.87-1.41,2.57,1.7-.12,2.36-.19,3.57-.34-.46-.8-.6-1-1.07-1.67l.8-.41c.85,1.12,1.36,1.94,2.2,3.42l-.9.53c-.26-.53-.31-.63-.53-1.02-1.26.2-3.71.48-5.38.58-.61.05-.78.07-1,.12l-.15-1.16ZM174.31,7.13c0-.63-.02-1.11-.07-1.57.43.05.75.07,1.38.07h2.98c.73,0,1.12-.02,1.57-.07-.03.32-.05.83-.05,1.14v7.23c0,1.09-.27,1.26-2.09,1.26-.12,0-.31,0-.53-.02-.03-.31-.14-.75-.26-1.05.39.05.82.09,1.31.09.46,0,.56-.07.56-.37v-2.19h-3.76v2.13c0,.82.02,1.28.09,1.74h-1.21c.07-.46.08-.92.08-1.7v-6.67ZM175.35,8.17h3.76v-1.6h-3.76v1.6ZM175.35,10.74h3.76v-1.67h-3.76v1.67ZM182.77,2.91c1.7-.48,3.5-1.34,4.51-2.16l.75.9q-.27.14-.95.51c-1.24.7-2.54,1.23-4.3,1.75v1.53c0,.48.19.53,1.8.53s2.06-.03,2.3-.19c.27-.17.36-.61.43-2.13.34.2.63.32,1,.43-.12,1.43-.27,2.08-.56,2.42-.29.36-.95.44-3.15.44-2.43,0-2.86-.17-2.86-1.16V1.77c0-.61-.03-1.04-.1-1.48h1.24c-.08.39-.1.77-.1,1.48v1.14ZM182.77,10.38c1.75-.44,3.39-1.19,4.58-2.13l.8.88c-.75.43-2.06,1.09-2.65,1.34-.99.41-1.48.58-2.72.92v2.02c0,.34.12.46.54.53.37.07.78.08,1.63.08,1.34,0,1.89-.1,2.11-.37.19-.24.31-.97.36-2.19.29.17.66.34,1.02.44-.14,1.62-.32,2.28-.73,2.67-.38.36-.95.44-2.82.44-1.63,0-2.14-.05-2.6-.26-.41-.17-.54-.43-.54-.99v-4.25c0-.85-.02-1.17-.08-1.53h1.21c-.07.36-.09.65-.09,1.48v.9Z"/>
    </g>
  </g>
</svg>