<?xml version="1.0" encoding="UTF-8"?>
<svg id="_レイヤー_2" data-name="レイヤー 2" xmlns="http://www.w3.org/2000/svg" viewBox="0 0 1366 263.79">
  <defs>
    <style>
      .cls-1 {
        fill: #799e7c;
      }

      .cls-2 {
        fill: #5a7e92;
      }
    </style>
  </defs>
  <g id="_背景" data-name="背景">
    <path class="cls-2" d="M0,.1v263.69c40.58-29.51,159.28-97.34,269.26-90.29,134.03,8.6,267.49-12.13,351.54-57.75,70.67-38.36,133.88-87.22,334.35-39.79,175.71,41.58,245.28,38.34,363.64-8.27,18.27-7.2,32.77-18.67,47.21-26.6V.1H0Z"/>
    <path class="cls-1" d="M410.85,155.54c178.94,34.88,298.23-7.94,369.5-43.44,82.26-40.98,246.33-72.4,398.83-67.06,78.85,2.76,140.44-18.12,186.82-44.93V0S0,0,0,0v190.42c14.44-7.93,29.02-19.2,47.21-26.6,83.55-33.98,161.43-47.69,363.64-8.27Z"/>
  </g>
</svg>