<?xml version="1.0" encoding="UTF-8"?>
<svg id="_レイヤー_2" data-name="レイヤー 2" xmlns="http://www.w3.org/2000/svg" viewBox="0 0 256.82 30.97">
  <defs>
    <style>
      .cls-1 {
        fill: #fff;
        opacity: .85;
      }

      .cls-2 {
        fill: #38acb5;
        stroke: #38acb5;
        stroke-linecap: round;
        stroke-linejoin: round;
        stroke-width: .38px;
      }
    </style>
  </defs>
  <g id="_画像" data-name="画像">
    <rect class="cls-1" width="256.82" height="30.97"/>
    <g>
      <path class="cls-2" d="M27.21,14.69c-.71,4.21-1.8,7.5-3.25,9.86-.13.21-.32.31-.56.31-.45,0-.67-.2-.67-.6,0-.12.04-.25.11-.38,1.51-2.67,2.55-5.78,3.12-9.33.01-.12.02-.23.02-.33,0-.71-.33-1.07-1-1.07h-1.78c-1.19,5.19-3.46,9.26-6.83,12.2-.12.1-.24.16-.38.16-.18,0-.33-.07-.47-.21-.13-.14-.2-.29-.2-.46,0-.19.08-.35.24-.47.28-.21.7-.62,1.25-1.22l-7.17.53c-.45.03-.67-.18-.67-.62,0-.39.19-.59.58-.62l3.89-.29v-1.56h-3.32c-.4,0-.6-.2-.6-.6,0-.43.22-.65.65-.65h3.27v-1.07h-3.03c-.42,0-.62-.21-.62-.62v-4.87c0-.42.21-.62.62-.62h3.03v-1.09h-4.12c-.42,0-.62-.21-.62-.62s.21-.62.62-.62h4.12v-1.16c-.79.1-1.82.21-3.09.31-.46.04-.69-.16-.69-.62,0-.36.19-.56.56-.6,3.53-.36,5.85-.76,6.94-1.22.09-.03.17-.04.24-.04.4,0,.6.21.6.65,0,.27-.13.45-.4.56-.8.33-1.76.58-2.87.76v1.38h3.87c.42,0,.62.21.62.62s-.21.62-.62.62h-3.87v1.09h3.12c.42,0,.62.21.62.62v4.87c0,.42-.21.62-.62.62h-3.12v1.07h3.23c.4,0,.6.2.6.6,0,.43-.22.65-.65.65h-3.18v1.42l3.2-.22c1.74-2.21,3.04-5.08,3.92-8.61h-2.4c-.42,0-.62-.21-.62-.62s.21-.62.62-.62h2.72c.34-2.14.52-3.79.53-4.96,0-.38.2-.58.6-.58.43,0,.65.21.67.65.01.95-.15,2.57-.49,4.87h1.74c.67,0,1.17.2,1.51.61.34.41.51.93.51,1.57,0,.19-.01.39-.04.6ZM13.46,14.67v-1.29h-2.38v1.29h2.38ZM13.46,17.09v-1.29h-2.38v1.29h2.38ZM17.22,14.67v-1.29h-2.47v1.29h2.47ZM17.22,17.09v-1.29h-2.47v1.29h2.47Z"/>
      <path class="cls-2" d="M38.36,16.63l-2.09.62c-.01,2.2-.22,3.8-.62,4.81-.53,1.39-1.6,2.43-3.2,3.09-.07.03-.15.04-.22.04-.39,0-.58-.22-.58-.67,0-.3.13-.5.4-.6,1.26-.5,2.11-1.32,2.54-2.45.28-.77.43-2.05.45-3.83l-2.8.8c-.06.01-.13.02-.2.02-.4,0-.6-.21-.6-.65,0-.3.15-.49.45-.58l3.18-.96v-3.92h-1.96c-.59,1.44-1.09,2.16-1.49,2.16-.16,0-.31-.06-.43-.19-.13-.13-.19-.27-.19-.43,0-.13.04-.27.13-.4.4-.53.76-1.31,1.09-2.33.33-1.02.54-1.99.65-2.93.04-.37.25-.56.62-.56.47,0,.68.23.62.69-.15,1.16-.33,2.07-.53,2.74h1.49v-4.23c0-.42.21-.62.62-.62s.62.21.62.62v4.23h1.45c.42,0,.62.21.62.62s-.21.62-.62.62h-1.45v3.52l1.71-.47c.06-.01.12-.02.18-.02.42,0,.62.22.62.65,0,.3-.15.49-.45.58ZM49.71,15.82c-1.77,4.32-3.46,7.45-5.1,9.39-.13.15-.28.22-.45.22-.18,0-.33-.06-.47-.19-.13-.13-.2-.28-.2-.46,0-.13.05-.26.16-.38.86-1.02,1.79-2.51,2.8-4.45.85-1.62,1.51-3.09,2-4.41.28-.76.42-1.21.42-1.36,0-.36-.3-.67-.91-.96l-.69-.25c-.8,1.84-1.95,3.95-3.44,6.33-1.49,2.38-2.76,4.11-3.79,5.2-.13.13-.28.2-.45.2-.18,0-.33-.07-.47-.2s-.2-.29-.2-.47c0-.16.06-.3.18-.42,1.02-1.02,2.26-2.69,3.69-5.01,1.42-2.27,2.51-4.29,3.27-6.05l-1.91-.69c-.65,1.51-1.68,3.35-3.07,5.51-1.39,2.16-2.63,3.82-3.69,4.97-.13.13-.28.2-.45.2-.18,0-.33-.07-.47-.2-.13-.13-.2-.29-.2-.47,0-.13.05-.26.16-.38,1.1-1.19,2.31-2.8,3.65-4.83,1.34-2.03,2.31-3.77,2.92-5.21l-1.69-.45c-.55.91-1.5,2.15-2.85,3.74-.13.15-.28.22-.45.22s-.31-.06-.43-.18c-.13-.12-.19-.25-.19-.4s.06-.28.18-.4c.7-.68,1.51-1.74,2.43-3.18.92-1.44,1.57-2.66,1.94-3.67.1-.28.29-.42.56-.42.42,0,.62.2.62.6,0,.07-.01.16-.04.25-.27.71-.65,1.51-1.14,2.38l5.99,1.89c1.47.46,2.2,1.19,2.2,2.2,0,.48-.14,1.06-.42,1.76Z"/>
      <path class="cls-2" d="M71.95,24.57h-16.13c-.45,0-.67-.22-.67-.67v-15.71c0-.45.22-.67.67-.67h15.65c.45,0,.67.22.67.67s-.22.67-.67.67h-14.98v14.38h15.47c.45,0,.67.22.67.67s-.22.67-.67.67ZM63.56,12.46h-3.05c-.3.5-.76,1.22-1.4,2.14-.13.16-.29.25-.47.25s-.33-.07-.47-.21c-.13-.14-.2-.31-.2-.5,0-.16.05-.32.16-.47,1.07-1.42,1.82-2.8,2.25-4.12.1-.31.32-.47.65-.47.45,0,.67.2.67.6,0,.07,0,.15-.02.22-.07.27-.24.67-.51,1.22h7.54c.45,0,.67.22.67.67s-.22.67-.67.67h-3.81v2.65h5.94c.45,0,.67.22.67.67s-.22.67-.67.67h-6.16c-.27,1.74-1.1,3.14-2.49,4.21-1.17.92-2.61,1.51-4.32,1.76-.49.07-.73-.13-.73-.62,0-.37.19-.59.56-.67,1.44-.27,2.64-.76,3.61-1.49,1.11-.83,1.8-1.89,2.05-3.18h-5.52c-.45,0-.67-.22-.67-.67s.22-.67.67-.67h5.74v-2.65ZM70.77,21.41c.25.13.38.33.38.6,0,.45-.21.67-.62.67-.09,0-.19-.02-.29-.07-.73-.31-1.68-.92-2.86-1.83-1.18-.9-1.98-1.64-2.41-2.2-.1-.13-.16-.27-.16-.4,0-.4.24-.6.71-.6.22,0,.41.08.56.24.46.5,1.2,1.15,2.23,1.94,1.02.79,1.85,1.33,2.47,1.65Z"/>
      <path class="cls-2" d="M78.85,11.89c.25.13.38.31.38.53,0,.36-.2.53-.6.53-.12,0-.24-.03-.36-.09l-2.09-.94c-.25-.12-.38-.3-.38-.56,0-.18.06-.34.19-.48.13-.14.28-.21.46-.21.1,0,.21.03.31.09l2.09,1.11ZM78.71,17.49l-1.96.93c-.1.04-.21.07-.31.07-.18,0-.33-.07-.46-.2-.13-.13-.19-.29-.19-.47,0-.25.13-.44.38-.56l2.09-.93c.1-.04.2-.07.29-.07.39,0,.58.2.58.6,0,.28-.14.49-.42.62ZM94.85,9.64h-14.04v7.05c0,3.56-1.3,6.2-3.89,7.92-.12.07-.24.11-.36.11-.18,0-.33-.07-.46-.2-.13-.13-.19-.29-.19-.47,0-.21.1-.38.29-.51,2.21-1.48,3.32-3.84,3.32-7.08v-7.48c0-.43.21-.65.65-.65h6.63v-1.47c0-.43.21-.65.65-.65s.65.22.65.65v1.47h6.77c.43,0,.65.22.65.65s-.22.65-.65.65ZM85.19,22.39c-.31.37-.85.85-1.62,1.44-.77.59-1.41,1-1.91,1.26-.1.04-.21.07-.31.07-.16,0-.31-.07-.43-.2-.13-.13-.19-.28-.19-.45,0-.24.12-.42.36-.53.5-.25,1.09-.63,1.75-1.12.66-.5,1.12-.92,1.39-1.26.13-.16.29-.25.47-.25s.33.06.47.19.2.28.2.46c0,.15-.05.28-.16.4ZM94.98,15.98c.33.07.49.27.49.58,0,.19-.07.36-.21.49-.14.13-.32.18-.55.13-.52-.1-1.47-.46-2.85-1.07v4.09c0,.42-.21.62-.62.62h-2.8v4.47c0,.42-.21.62-.62.62s-.62-.21-.62-.62v-4.47h-2.74c-.42,0-.62-.21-.62-.62v-4.05c-.7.31-1.36.56-1.98.76-.07.03-.15.04-.22.04-.42,0-.62-.21-.62-.62,0-.25.13-.43.4-.53.55-.19,1.34-.51,2.38-.96l-.93-.98c-.16-.13-.24-.3-.24-.49,0-.16.06-.31.18-.45.12-.13.27-.2.45-.2.13,0,.26.05.38.16l1.36,1.36c1.07-.59,1.75-1.22,2.05-1.87h-4.81c-.42,0-.62-.21-.62-.62s.21-.62.62-.62h5.05v-.73c0-.39.21-.58.62-.58s.62.19.62.58v.73h5.03c.42,0,.62.21.62.62s-.21.62-.62.62l-5.16-.02c.83.86,1.71,1.52,2.63,1.98l1.45-1.45c.12-.1.24-.16.38-.16.18,0,.33.07.45.2.12.13.18.28.18.45,0,.19-.08.36-.24.49l-1.02,1.07c.65.3,1.11.5,1.38.6.55.21,1.02.36,1.42.45ZM90.62,17.43v-1.2h-5.54v1.2h5.54ZM90.62,19.72v-1.27h-5.54v1.27h5.54ZM89.97,15.16c-.34-.22-1.07-.79-2.18-1.69-.48.59-1.14,1.16-2,1.69h4.18ZM94.58,23.97c.24.12.36.3.36.53,0,.16-.06.31-.19.45-.13.13-.27.2-.43.2-.1,0-.21-.02-.31-.07-.5-.25-1.14-.67-1.91-1.26-.77-.59-1.31-1.06-1.62-1.44-.1-.12-.16-.25-.16-.4,0-.18.07-.33.2-.46s.29-.19.47-.19.33.08.47.25c.27.34.73.76,1.39,1.26.66.5,1.24.87,1.75,1.12Z"/>
      <path class="cls-2" d="M116.08,11.8c-1.02,2.36-2.72,4.58-5.1,6.65-.1.09-.22.13-.36.13-.18,0-.34-.08-.5-.24s-.23-.34-.23-.53c0-.15.06-.27.18-.38,1.77-1.48,3.2-3.18,4.3-5.1l-14.64,3.29s-.1.02-.16.02c-.33,0-.49-.23-.49-.69,0-.34.14-.55.41-.61.27-.07,2.93-.65,7.98-1.75,4.99-1.08,7.61-1.65,7.88-1.71.07-.03.15-.04.22-.04.16,0,.3.07.42.21.12.14.18.29.18.46,0,.12-.03.22-.09.29ZM116.61,23.72c-2.15.24-3.96.36-5.43.36-1.17,0-2.49-.07-3.94-.2-1.2-.1-2.02-.4-2.45-.89-.55-.61-.81-1.77-.78-3.47l.16-11.39c.03-.4.27-.6.71-.6s.67.2.67.6l-.18,11.39c-.01,1.17.13,1.97.42,2.4.25.36.76.57,1.54.65,1.48.13,2.78.2,3.89.2,1.56,0,3.32-.13,5.27-.4.19-.03.35.03.48.18.13.15.19.33.19.53,0,.39-.19.6-.56.65Z"/>
      <path class="cls-2" d="M139.16,14.71c-4.35,4.61-9.59,7.86-15.73,9.75-.21.06-.39,0-.56-.19-.16-.19-.24-.4-.24-.63,0-.27.12-.44.36-.51,3.34-1.08,6.23-2.41,8.68-3.98,2.69-1.72,4.9-3.55,6.65-5.5.12-.1.24-.16.38-.16.18,0,.33.08.47.23.13.16.2.33.2.52,0,.18-.07.33-.2.47ZM130.19,12.6c.15.13.22.29.22.47,0,.19-.07.37-.22.52-.15.16-.31.23-.49.23-.13,0-.25-.04-.36-.13-1.81-1.71-3.89-3.1-6.23-4.18-.18-.09-.27-.23-.27-.42s.07-.37.21-.53c.14-.16.31-.24.5-.24.09,0,.18.02.27.07,2.64,1.37,4.76,2.77,6.36,4.23Z"/>
      <path class="cls-2" d="M151.04,7.92c-.91,2.48-1.86,4.47-2.87,5.99-1.13,1.68-2.59,3.17-4.38,4.5-.15.12-.3.18-.47.18-.19,0-.36-.07-.49-.21s-.2-.31-.2-.5c0-.24.12-.43.36-.58,1.74-1.32,3.11-2.72,4.13-4.2,1.02-1.48,1.88-3.32,2.59-5.53.15-.28.37-.42.67-.42.47,0,.71.19.71.58,0,.06-.01.13-.04.2ZM159.3,10.75c-.7,3.59-2.08,6.64-4.14,9.15-2.24,2.71-5.02,4.44-8.35,5.16-.07.01-.14.02-.2.02-.46,0-.69-.26-.69-.78,0-.4.15-.62.45-.67,3.32-.52,6.16-2.35,8.5-5.5,1.38-1.85,2.37-4.23,2.98-7.12l-9.04.27.18-1.29c3.13-.1,6.28-.21,9.44-.33.31,0,.55.14.71.41.16.28.22.5.16.68ZM155.98,17.96l-.71,1.16c-1.28-.82-2.43-1.45-3.47-1.91-.93-.42-2.18-.86-3.74-1.33-.22-.07-.33-.21-.33-.42,0-.18.07-.35.22-.52.15-.17.32-.26.51-.26.06,0,.12.02.18.04,1.65.52,2.9.96,3.76,1.33.99.43,2.19,1.07,3.58,1.91Z"/>
      <path class="cls-2" d="M180.46,16.18h-16.36c-.45,0-.67-.22-.67-.67s.22-.67.67-.67h16.36c.45,0,.67.22.67.67s-.22.67-.67.67Z"/>
      <path class="cls-2" d="M202.69,23.84c0,.44-.22.67-.67.67h-13.82c-.45,0-.67-.22-.67-.67v-12.11c0-.45.22-.67.67-.67h4.9l1.42-3.87c.12-.33.34-.49.67-.49.42,0,.62.2.62.6,0,.09-.02.18-.04.27l-1.2,3.49h7.46c.45,0,.67.22.67.67v12.11ZM201.34,16.89v-4.47h-12.44v4.47h12.44ZM201.34,23.15v-4.87h-12.44v4.87h12.44Z"/>
      <path class="cls-2" d="M227.4,13.35c.27.12.4.31.4.58,0,.46-.22.69-.65.69-.09,0-.19-.02-.29-.07-1.08-.47-2.56-1.45-4.43-2.92-1.74-1.36-2.97-2.47-3.69-3.32-.28-.33-.6-.49-.96-.49-.33,0-.63.15-.91.45-.83.91-1.94,1.97-3.34,3.21-2.02,1.77-3.6,2.9-4.74,3.4-.1.04-.2.07-.29.07-.19,0-.35-.07-.47-.22-.12-.15-.18-.31-.18-.49,0-.28.13-.48.4-.6,1.04-.45,2.51-1.51,4.43-3.18,1.48-1.3,2.55-2.33,3.2-3.07.56-.64,1.19-.96,1.89-.96s1.39.35,1.98,1.05c.67.8,1.81,1.84,3.43,3.12,1.75,1.38,3.15,2.3,4.21,2.76ZM226.11,24.79h-16.11c-.45,0-.67-.22-.67-.67s.22-.67.67-.67h7.14v-5.94h-5.9c-.45,0-.67-.22-.67-.67s.22-.67.67-.67h5.9v-2.54h-3.67c-.45,0-.67-.22-.67-.67s.22-.67.67-.67h8.75c.45,0,.67.22.67.67s-.22.67-.67.67h-3.74v2.54h6.19c.45,0,.67.22.67.67s-.22.67-.67.67h-6.19v5.94h7.63c.45,0,.67.22.67.67s-.22.67-.67.67ZM214.98,21.83c.07.12.11.24.11.38,0,.18-.07.33-.22.47-.15.13-.31.2-.49.2-.24,0-.42-.11-.56-.33l-1.67-2.8c-.07-.12-.11-.24-.11-.38,0-.18.07-.33.22-.47.15-.13.31-.2.49-.2.24,0,.42.11.56.33l1.67,2.8ZM223.59,19.74l-1.69,2.8c-.13.22-.32.33-.56.33-.18,0-.34-.07-.49-.2-.15-.13-.22-.29-.22-.47,0-.13.04-.26.11-.38l1.69-2.8c.13-.22.32-.33.56-.33.18,0,.34.07.49.2.15.13.22.29.22.47,0,.13-.04.26-.11.38Z"/>
      <path class="cls-2" d="M246.85,10.79c.68.8,1.02,1.55,1.02,2.25s-.33,1.19-.98,1.54c-1.01.53-3.15.8-6.41.8s-5.56-.29-6.54-.87c-.64-.37-.96-.9-.96-1.58,0-.74.34-1.48,1.02-2.23.73-.8,2.38-2.1,4.96-3.89.4-.28.88-.42,1.45-.42.59,0,1.14.16,1.65.49.65.42,1.52,1.07,2.61,1.96,1.09.89,1.81,1.54,2.17,1.96ZM247.74,24.35c0,.42-.21.62-.62.62h-13.33c-.42,0-.62-.21-.62-.62v-7.21c0-.42.21-.62.62-.62h13.33c.42,0,.62.21.62.62v7.21ZM246.47,23.7v-5.92h-12.04v5.92h12.04ZM245.78,11.6c-.34-.37-1.05-1-2.14-1.89-1.01-.83-1.81-1.45-2.4-1.87-.25-.18-.5-.27-.73-.27-.22,0-.44.08-.65.24-.09.08-.96.7-2.6,1.87-1.23.91-1.97,1.51-2.23,1.8-.39.47-.58.9-.58,1.29,0,.25.11.45.33.58.85.47,2.75.71,5.72.71s4.8-.24,5.59-.71c.22-.13.33-.32.33-.56,0-.33-.22-.73-.65-1.2Z"/>
    </g>
  </g>
</svg>