<?xml version="1.0" encoding="UTF-8"?>
<svg id="_レイヤー_2" data-name="レイヤー 2" xmlns="http://www.w3.org/2000/svg" viewBox="0 0 311.55 30.97">
  <defs>
    <style>
      .cls-1 {
        fill: #231815;
        stroke: #231815;
        stroke-linecap: round;
        stroke-linejoin: round;
        stroke-width: .38px;
      }

      .cls-2 {
        fill: #fff;
        opacity: .7;
      }
    </style>
  </defs>
  <g id="_画像" data-name="画像">
    <rect class="cls-2" x="0" width="311.55" height="30.97"/>
    <g>
      <path class="cls-1" d="M24.79,11.93h-14.98c-.46.02-.69-.18-.69-.6,0-.45.23-.67.69-.67h14.98c.46.02.69.24.69.67,0,.4-.23.6-.69.6ZM20.62,16.76h-10.55c-.43,0-.65-.24-.65-.71,0-.37.21-.56.65-.56h10.66c.39.04.58.25.58.62,0,.43-.23.65-.69.65ZM25.92,20.65c.04,2.92-2.31,4.38-7.05,4.38-3.66,0-5.51-1.36-5.54-4.07-.01-1.11.29-3.19.91-6.23.56-2.85,1.15-5.31,1.76-7.39.09-.31.32-.47.69-.47.24,0,.44.06.6.19.16.13.21.29.16.48-.61,2.06-1.21,4.49-1.8,7.28-.64,3.01-.96,5.06-.96,6.14,0,1.82,1.39,2.74,4.18,2.74,3.77,0,5.65-1.02,5.65-3.05,0-1.22-.47-2.72-1.4-4.52-.03-.09-.04-.17-.04-.25,0-.36.23-.53.69-.53.34,0,.56.13.65.38.98,1.69,1.48,3.33,1.51,4.92Z"/>
      <path class="cls-1" d="M50.2,17.34c.28.1.42.3.42.6,0,.21-.06.4-.19.57-.13.17-.28.26-.46.26-.07,0-.15-.02-.22-.07-2.24-.85-4.16-1.44-5.76-1.78-1.74-.37-3.61-.56-5.61-.56-1.41,0-2.65.43-3.73,1.3-1.08.87-1.69,1.9-1.84,3.08-.06.43,0,.78.16,1.04.16.26.41.39.73.39.62,0,1.3-.41,2.03-1.22.61-.68,1.17-1.55,1.69-2.6,1.2-2.46,2.18-5.26,2.94-8.39l-6.03.36c-.19.03-.35-.03-.48-.18-.13-.15-.19-.32-.19-.51,0-.42.19-.64.58-.67,1.99-.07,4.17-.17,6.54-.29.34-.03.61.04.8.22.19.18.26.41.2.69-.76,3.47-1.8,6.58-3.14,9.32-.65,1.34-1.38,2.43-2.18,3.27-.95,1.01-1.87,1.51-2.76,1.49-.65-.01-1.2-.26-1.65-.72-.45-.47-.67-1.09-.67-1.86,0-1.63.77-3.06,2.31-4.27,1.44-1.14,3-1.71,4.67-1.71,3.66,0,7.6.75,11.82,2.25ZM47.55,12.2c.09,2.91-.22,5.32-.93,7.23-.85,2.3-2.32,4.12-4.43,5.45-.12.07-.24.11-.38.11-.22,0-.42-.08-.58-.23-.16-.16-.24-.33-.24-.52,0-.16.07-.3.22-.42,1.66-.96,2.92-2.33,3.78-4.09.82-1.68,1.22-3.7,1.22-6.08,0-.47-.02-.96-.04-1.45-.03-.4.2-.6.69-.6.45,0,.68.2.69.6Z"/>
      <path class="cls-1" d="M70.45,21.77c-1.37.8-2.85,1.46-4.45,1.98-1.78.58-3.39.87-4.83.87-3.01,0-4.6-1.62-4.76-4.85-.04-.99-.07-2.04-.07-3.14,0-2.42.13-5.24.38-8.46.03-.43.27-.65.73-.65.22,0,.4.07.55.2.14.13.18.3.12.51-.28,3.07-.42,5.85-.42,8.35,0,1.08.03,2.11.09,3.09.13,2.4,1.26,3.61,3.38,3.61,2.74,0,5.72-.93,8.92-2.8.09-.04.17-.07.24-.07.34,0,.51.22.51.67,0,.36-.13.59-.4.69ZM65.42,7.75l-1.27,3.14c-.09.22-.25.33-.49.33-.39,0-.58-.17-.58-.51,0-.07.01-.15.04-.22l1.27-3.14c.09-.22.25-.33.49-.33.39,0,.58.17.58.51,0,.07-.01.15-.04.22ZM68.09,8.19l-1.22,3.07c-.09.22-.24.33-.47.33-.4,0-.6-.19-.6-.56,0-.07.01-.15.04-.22l1.22-3.07c.09-.22.24-.33.47-.33.4,0,.6.19.6.56,0,.07-.02.15-.04.22Z"/>
      <path class="cls-1" d="M83.89,22.99v-14.76c0-.44.22-.67.67-.67s.67.22.67.67v14.76h6.16v-10.1c0-.44.22-.67.67-.67s.67.22.67.67v10.77c0,.45-.22.67-.67.67h-14.69c-.45,0-.67-.22-.67-.67v-10.77c0-.44.22-.67.67-.67s.67.22.67.67v10.1h5.85Z"/>
      <path class="cls-1" d="M117.12,25.04c-.91.37-2.02.56-3.34.56-1.97,0-4.09-.36-6.36-1.09-3.64-1.17-6.2-1.83-7.7-1.98l-.6.73c-.21.25-.45.38-.71.38-.42,0-.62-.19-.62-.58,0-.16.07-.32.2-.47,1.2-1.38,2.45-3.3,3.74-5.76.03-.07.04-.15.04-.22,0-.15-.08-.27-.23-.38s-.32-.21-.48-.31c-.43-.28-1.16-.61-2.18-.98-.25-.1-.38-.29-.38-.56,0-.46.2-.69.6-.69.09,0,.18.02.27.07.47.19,1.23.54,2.27,1.05,1.01.56,1.51,1.08,1.51,1.56,0,.27-.1.59-.31.98-.31.61-.63,1.22-.96,1.83-.48.88-.93,1.59-1.38,2.14,2.43.53,4.87,1.22,7.32,2.05,2.09.7,4.03,1.05,5.81,1.05,1.17,0,2.17-.17,3-.51.09-.03.18-.04.27-.04.4,0,.6.21.6.64,0,.27-.13.45-.38.56ZM103.54,10.46c.16.13.24.29.24.47s-.06.33-.19.46c-.13.13-.27.19-.43.19-.15,0-.29-.05-.42-.16-.22-.18-.74-.52-1.56-1.02-.86-.53-1.45-.88-1.78-1.05-.24-.12-.36-.29-.36-.51,0-.16.06-.31.19-.45.13-.13.28-.2.46-.2.12,0,.24.03.36.09,1.71.93,2.87,1.66,3.49,2.18ZM115.87,21.81c0,.42-.21.62-.62.62s-.62-.21-.62-.62v-3.14h-3.36v2.96c0,.42-.21.62-.62.62s-.62-.21-.62-.62v-2.96h-3.38c-.13,1.35-.85,2.46-2.14,3.32-.12.07-.24.11-.38.11-.42,0-.62-.2-.62-.6,0-.18.08-.33.24-.45,1.16-.85,1.74-2.14,1.74-3.87v-4.85c0-.42.21-.62.62-.62h3.72c-.49-.56-1.15-1.12-1.98-1.67-.19-.12-.29-.27-.29-.47,0-.15.07-.29.2-.41s.28-.19.45-.19c.13,0,.27.04.4.13.74.52,1.43,1.08,2.07,1.67.52-.31,1.25-.9,2.18-1.76.15-.13.22-.26.22-.38,0-.18-.16-.27-.47-.27h-6.34c-.42,0-.62-.21-.62-.62s.21-.62.62-.62h6.65c.49,0,.89.11,1.2.33.31.22.47.52.47.89,0,.48-.27.98-.8,1.51-.7.7-1.46,1.32-2.29,1.87h3.74c.43,0,.65.22.65.65v9.44ZM110.02,14.56v-1.65h-3.29v1.65h3.29ZM110.02,17.45v-1.67h-3.29v1.67h3.29ZM114.63,14.56v-1.65h-3.36v1.65h3.36ZM114.63,17.45v-1.67h-3.36v1.67h3.36Z"/>
      <path class="cls-1" d="M135.61,14.93c0,2.77-.83,5.04-2.49,6.79-1.74,1.84-4.24,2.94-7.5,3.29-.55.06-.82-.19-.82-.76,0-.37.16-.57.47-.6,2.85-.24,5.07-1.16,6.65-2.78,1.53-1.56,2.29-3.54,2.29-5.94,0-1.41-.19-2.57-.58-3.47-.49-1.16-1.26-1.74-2.31-1.74-1.71,0-3.23.89-4.58,2.67-1.22,1.62-1.82,3.47-1.82,5.56,0,.36.01.72.04,1.09.01.18-.06.34-.21.48-.16.14-.33.21-.52.21-.34,0-.54-.2-.6-.6-.27-1.57-.4-3.27-.4-5.1,0-2.24.19-4.46.58-6.65.06-.37.3-.56.73-.56.4,0,.6.16.6.49,0,.06,0,.13-.02.2-.39,2.15-.59,4.33-.62,6.54.24-.58.42-.99.53-1.22.25-.55.48-.96.69-1.25,1.56-2.08,3.43-3.12,5.61-3.12,1.57,0,2.72.7,3.45,2.09.56,1.08.85,2.54.85,4.36Z"/>
      <path class="cls-1" d="M161.14,21.57c.09.09.13.19.13.31,0,.18-.08.35-.24.52-.16.17-.33.26-.51.26-.13,0-.24-.05-.31-.16-.3-.3-3.7-3.66-10.22-10.1-.37-.37-.62-.56-.76-.56s-.31.16-.53.47l-5.23,7.46c-.1.13-.26.2-.47.2-.49,0-.73-.21-.73-.62,0-.1.03-.21.09-.33.24-.34,1.98-2.83,5.23-7.46.52-.74,1.05-1.11,1.58-1.11s1.11.33,1.76.98l10.21,10.15ZM158.83,10.57c0,.59-.21,1.11-.63,1.54s-.94.65-1.55.65-1.11-.21-1.54-.65c-.43-.43-.65-.94-.65-1.54s.21-1.12.65-1.55c.43-.42.94-.63,1.54-.63s1.12.21,1.55.63.63.94.63,1.55ZM157.94,10.57c0-.36-.13-.66-.38-.91-.25-.25-.56-.38-.91-.38s-.66.13-.91.38c-.25.25-.38.56-.38.91s.13.66.38.91c.25.25.56.38.91.38s.66-.13.91-.38c.25-.25.38-.56.38-.91Z"/>
      <path class="cls-1" d="M169.98,18.21c.01.06.02.12.02.18,0,.16-.07.31-.21.43-.14.13-.29.19-.46.19-.28,0-.46-.15-.53-.44-.55-2.06-1.3-4.01-2.25-5.83-.03-.04-.04-.1-.04-.16,0-.16.09-.32.28-.48.19-.16.37-.23.55-.23.19,0,.32.09.38.27,1.02,1.77,1.78,3.79,2.27,6.08ZM180.04,12.02c-.48,3.17-1.52,5.85-3.14,8.01-1.97,2.64-4.67,4.31-8.1,5.01-.07.01-.15.02-.22.02-.46,0-.69-.24-.69-.71,0-.34.14-.52.42-.53,3.22-.61,5.74-2.12,7.57-4.54,1.47-1.97,2.42-4.45,2.85-7.43.04-.33.24-.49.58-.49.19,0,.37.07.53.2.16.13.23.29.2.47ZM174.23,17.2c.04.21-.01.38-.18.51-.16.13-.36.2-.58.2-.27,0-.44-.1-.51-.29-.52-2.37-1.19-4.32-2-5.83-.04-.09-.07-.18-.07-.27,0-.16.08-.31.23-.43s.33-.19.52-.19c.21,0,.36.09.45.27.92,1.96,1.63,3.97,2.14,6.03Z"/>
      <path class="cls-1" d="M189.23,12.55c2.21.95,3.88,1.73,5.01,2.34,1.78.95,3.43,2.03,4.96,3.23.15.12.22.26.22.42,0,.21-.08.39-.23.56-.16.16-.33.25-.52.25-.1,0-.21-.04-.31-.11-2.31-1.88-5.36-3.62-9.12-5.21v10.35c0,.42-.24.62-.73.62-.43,0-.65-.21-.67-.62.01-5.56.01-11.22,0-16.98.03-.38.28-.58.76-.58.45,0,.66.19.65.58v5.16Z"/>
      <path class="cls-1" d="M213.17,7.72c-.88,2.43-1.83,4.41-2.87,5.94-1.11,1.65-2.57,3.14-4.38,4.47-.1.07-.22.11-.33.11-.19,0-.37-.07-.53-.22-.16-.15-.24-.31-.24-.49,0-.16.07-.3.22-.42,1.85-1.47,3.27-2.9,4.25-4.31.98-1.4,1.8-3.17,2.47-5.31.12-.28.34-.42.67-.42.22,0,.42.07.59.2.17.13.23.28.17.45ZM221.16,10.82c-.68,3.56-2.07,6.56-4.16,8.99-2.23,2.61-5.01,4.29-8.37,5.03-.07.01-.15.02-.22.02-.45,0-.67-.24-.67-.71,0-.37.15-.59.45-.65,3.49-.76,6.31-2.6,8.48-5.52,1.44-1.94,2.44-4.25,3-6.92l-8.97.27.18-1.27c3.06-.09,6.23-.2,9.53-.33.52.06.77.42.76,1.09Z"/>
      <path class="cls-1" d="M229.24,18.65c0,.43-.24.65-.73.65-.43,0-.65-.21-.65-.65v-10.37c.01-.42.23-.62.65-.62.47,0,.72.21.73.62v10.37ZM239.99,15.31c0,2.98-1.07,5.31-3.2,6.99-1.85,1.44-4.3,2.27-7.34,2.49-.19.01-.35-.05-.48-.21-.13-.16-.19-.34-.19-.54,0-.39.2-.59.6-.62,3.25-.25,5.66-1.17,7.23-2.74,1.31-1.31,1.96-3.09,1.96-5.36v-7.63c0-.45.23-.67.69-.67.49,0,.73.22.73.67v7.63Z"/>
      <path class="cls-1" d="M263.42,23.12h-17.09c-.34-.01-.51-.24-.51-.69,0-.42.17-.62.51-.62h17.09c.39.01.58.24.58.69,0,.42-.19.62-.58.62ZM261.78,11.46h-13.66c-.48-.01-.71-.23-.71-.65s.24-.62.71-.62h13.66c.43,0,.65.21.65.62s-.22.65-.65.65Z"/>
      <path class="cls-1" d="M272.79,18.21c.01.06.02.12.02.18,0,.16-.07.31-.21.43-.14.13-.29.19-.46.19-.28,0-.46-.15-.53-.44-.55-2.06-1.3-4.01-2.25-5.83-.03-.04-.04-.1-.04-.16,0-.16.09-.32.28-.48.19-.16.37-.23.55-.23.19,0,.32.09.38.27,1.02,1.77,1.78,3.79,2.27,6.08ZM282.85,12.02c-.48,3.17-1.52,5.85-3.14,8.01-1.97,2.64-4.67,4.31-8.1,5.01-.07.01-.15.02-.22.02-.46,0-.69-.24-.69-.71,0-.34.14-.52.42-.53,3.22-.61,5.74-2.12,7.57-4.54,1.47-1.97,2.42-4.45,2.85-7.43.04-.33.24-.49.58-.49.19,0,.37.07.53.2.16.13.23.29.2.47ZM277.04,17.2c.04.21-.01.38-.18.51-.16.13-.36.2-.58.2-.27,0-.44-.1-.51-.29-.52-2.37-1.19-4.32-2-5.83-.04-.09-.07-.18-.07-.27,0-.16.08-.31.23-.43s.33-.19.52-.19c.21,0,.36.09.45.27.92,1.96,1.63,3.97,2.14,6.03Z"/>
      <path class="cls-1" d="M296.41,7.72c-.88,2.43-1.83,4.41-2.87,5.94-1.11,1.65-2.57,3.14-4.38,4.47-.1.07-.22.11-.33.11-.19,0-.37-.07-.53-.22-.16-.15-.24-.31-.24-.49,0-.16.07-.3.22-.42,1.85-1.47,3.27-2.9,4.25-4.31.98-1.4,1.8-3.17,2.47-5.31.12-.28.34-.42.67-.42.22,0,.42.07.59.2.17.13.23.28.17.45ZM304.4,10.82c-.68,3.56-2.07,6.56-4.16,8.99-2.23,2.61-5.01,4.29-8.37,5.03-.07.01-.15.02-.22.02-.45,0-.67-.24-.67-.71,0-.37.15-.59.45-.65,3.49-.76,6.31-2.6,8.48-5.52,1.44-1.94,2.44-4.25,3-6.92l-8.97.27.18-1.27c3.06-.09,6.23-.2,9.53-.33.52.06.77.42.76,1.09Z"/>
    </g>
  </g>
</svg>