<?xml version="1.0" encoding="UTF-8"?>
<svg id="_レイヤー_2" data-name="レイヤー 2" xmlns="http://www.w3.org/2000/svg" viewBox="0 0 276.16 30.97">
  <defs>
    <style>
      .cls-1 {
        fill: #231815;
        stroke: #231815;
        stroke-linecap: round;
        stroke-linejoin: round;
        stroke-width: .38px;
      }

      .cls-2 {
        fill: #fff;
        opacity: .7;
      }
    </style>
  </defs>
  <g id="_画像" data-name="画像">
    <rect class="cls-2" x="0" width="276.16" height="30.97"/>
    <g>
      <path class="cls-1" d="M11.05,7.68c0-.45.22-.67.67-.67h12.55c.43,0,.65.22.65.67v16.78c0,.44-.22.67-.67.67h-12.53c-.45,0-.67-.22-.67-.67V7.68ZM12.39,12.51h11.19v-4.16h-11.19v4.16ZM23.58,13.78h-11.19v4.14h11.19v-4.14ZM23.58,19.16h-11.19v4.63h11.19v-4.63Z"/>
      <path class="cls-1" d="M46.02,23.84c0,.44-.22.67-.67.67h-13.82c-.45,0-.67-.22-.67-.67v-12.11c0-.45.22-.67.67-.67h4.9l1.42-3.87c.12-.33.34-.49.67-.49.42,0,.62.2.62.6,0,.09-.02.18-.04.27l-1.2,3.49h7.46c.45,0,.67.22.67.67v12.11ZM44.66,16.89v-4.47h-12.44v4.47h12.44ZM44.66,23.15v-4.87h-12.44v4.87h12.44Z"/>
      <path class="cls-1" d="M70.39,25.04c-.91.37-2.02.56-3.34.56-1.97,0-4.09-.36-6.36-1.09-3.64-1.17-6.2-1.83-7.7-1.98l-.6.73c-.21.25-.45.38-.71.38-.42,0-.62-.19-.62-.58,0-.16.07-.32.2-.47,1.2-1.38,2.45-3.3,3.74-5.76.03-.07.04-.15.04-.22,0-.15-.08-.27-.23-.38s-.32-.21-.48-.31c-.43-.28-1.16-.61-2.18-.98-.25-.1-.38-.29-.38-.56,0-.46.2-.69.6-.69.09,0,.18.02.27.07.47.19,1.23.54,2.27,1.05,1.01.56,1.51,1.08,1.51,1.56,0,.27-.1.59-.31.98-.31.61-.63,1.22-.96,1.83-.48.88-.93,1.59-1.38,2.14,2.43.53,4.87,1.22,7.32,2.05,2.09.7,4.03,1.05,5.81,1.05,1.17,0,2.17-.17,3-.51.09-.03.18-.04.27-.04.4,0,.6.21.6.64,0,.27-.13.45-.38.56ZM56.81,10.46c.16.13.24.29.24.47s-.06.33-.19.46c-.13.13-.27.19-.43.19-.15,0-.29-.05-.42-.16-.22-.18-.74-.52-1.56-1.02-.86-.53-1.45-.88-1.78-1.05-.24-.12-.36-.29-.36-.51,0-.16.06-.31.19-.45.13-.13.28-.2.46-.2.12,0,.24.03.36.09,1.71.93,2.87,1.66,3.49,2.18ZM69.14,21.81c0,.42-.21.62-.62.62s-.62-.21-.62-.62v-3.14h-3.36v2.96c0,.42-.21.62-.62.62s-.62-.21-.62-.62v-2.96h-3.38c-.13,1.35-.85,2.46-2.14,3.32-.12.07-.24.11-.38.11-.42,0-.62-.2-.62-.6,0-.18.08-.33.24-.45,1.16-.85,1.74-2.14,1.74-3.87v-4.85c0-.42.21-.62.62-.62h3.72c-.49-.56-1.15-1.12-1.98-1.67-.19-.12-.29-.27-.29-.47,0-.15.07-.29.2-.41s.28-.19.45-.19c.13,0,.27.04.4.13.74.52,1.43,1.08,2.07,1.67.52-.31,1.25-.9,2.18-1.76.15-.13.22-.26.22-.38,0-.18-.16-.27-.47-.27h-6.34c-.42,0-.62-.21-.62-.62s.21-.62.62-.62h6.65c.49,0,.89.11,1.2.33.31.22.47.52.47.89,0,.48-.27.98-.8,1.51-.7.7-1.46,1.32-2.29,1.87h3.74c.43,0,.65.22.65.65v9.44ZM63.29,14.56v-1.65h-3.29v1.65h3.29ZM63.29,17.45v-1.67h-3.29v1.67h3.29ZM67.89,14.56v-1.65h-3.36v1.65h3.36ZM67.89,17.45v-1.67h-3.36v1.67h3.36Z"/>
      <path class="cls-1" d="M87.99,14.94c0,2.77-.83,5.04-2.49,6.79-1.74,1.84-4.24,2.94-7.5,3.29-.55.06-.82-.19-.82-.76,0-.37.16-.57.47-.6,2.85-.24,5.07-1.16,6.65-2.78,1.53-1.56,2.29-3.54,2.29-5.94,0-1.41-.19-2.57-.58-3.47-.49-1.16-1.26-1.74-2.31-1.74-1.71,0-3.23.89-4.58,2.67-1.22,1.62-1.82,3.47-1.82,5.56,0,.36.01.72.04,1.09.01.18-.06.34-.21.48-.16.14-.33.21-.52.21-.34,0-.54-.2-.6-.6-.27-1.57-.4-3.27-.4-5.1,0-2.24.19-4.46.58-6.65.06-.37.3-.56.73-.56.4,0,.6.16.6.49,0,.06,0,.13-.02.2-.39,2.15-.59,4.33-.62,6.54.24-.58.42-.99.53-1.22.25-.55.48-.96.69-1.25,1.56-2.08,3.43-3.12,5.61-3.12,1.57,0,2.72.7,3.45,2.09.56,1.08.85,2.54.85,4.36Z"/>
      <path class="cls-1" d="M103.66,8.46v-1.58c0-.45.22-.67.67-.67s.67.22.67.67v1.58h7.48c.45,0,.67.22.67.67s-.22.67-.67.67h-16.29c-.45,0-.67-.22-.67-.67s.22-.67.67-.67h7.48ZM112.36,24.86c0,.45-.22.67-.67.67s-.67-.22-.67-.67v-7.3h-13.42v7.28c0,.45-.22.67-.67.67s-.67-.22-.67-.67v-7.95c0-.44.22-.67.67-.67h14.76c.45,0,.67.22.67.67v7.97ZM109.62,14.54c0,.44-.22.67-.67.67h-9.28c-.45,0-.67-.22-.67-.67v-3.12c0-.45.22-.67.67-.67h9.28c.45,0,.67.22.67.67v3.12ZM108.53,22.84c0,.45-.22.67-.67.67h-7.19c-.45,0-.67-.22-.67-.67v-3.52c0-.44.22-.67.67-.67h7.19c.45,0,.67.22.67.67v3.52ZM108.29,13.87v-1.78h-7.95v1.78h7.95ZM107.2,22.17v-2.18h-5.85v2.18h5.85Z"/>
      <path class="cls-1" d="M134.68,9.64h-14.24v7.61c0,1.33-.29,2.63-.87,3.88s-1.38,2.33-2.4,3.22c-.12.1-.25.16-.4.16-.16,0-.31-.07-.45-.2s-.2-.28-.2-.45c0-.19.08-.36.24-.49.89-.77,1.59-1.74,2.09-2.92.49-1.13.73-2.27.73-3.43v-8.01c0-.42.21-.62.62-.62h6.99v-1.76c0-.42.21-.62.62-.62s.62.21.62.62v1.76h6.63c.42,0,.62.21.62.62s-.21.62-.62.62ZM135.44,24.28c.36.06.53.26.53.6,0,.46-.24.66-.71.6-1.51-.19-2.91-.52-4.18-.98-.37-.15-1.43-.62-3.18-1.4-1.91,1.16-4.41,1.94-7.5,2.36-.22.03-.4-.02-.53-.16-.13-.13-.2-.29-.2-.47,0-.33.17-.51.51-.56,2.51-.34,4.7-.98,6.59-1.91-1.26-.88-2.1-1.54-2.51-1.98-.12-.12-.18-.25-.18-.4,0-.18.07-.33.2-.46s.29-.19.47-.19c.16,0,.31.07.45.2.61.65,1.51,1.36,2.72,2.11.71-.49,1.1-.76,1.16-.82.43-.33.8-.69,1.11-1.09.12-.15.18-.28.18-.4,0-.28-.16-.42-.49-.42h-6.57c-.42,0-.62-.21-.62-.62s.21-.62.62-.62h6.74c1.2,0,1.8.44,1.8,1.31,0,.31-.1.67-.31,1.07-.55.76-1.36,1.52-2.43,2.29,1.17.55,2.11.93,2.83,1.16.93.3,2.11.56,3.52.78ZM134.48,13.42h-3.58v2.47c0,.42-.21.62-.62.62h-5.36c-.42,0-.62-.21-.62-.62v-2.47h-2.89c-.42,0-.62-.21-.62-.62s.21-.62.62-.62h2.89v-1.42c0-.42.21-.62.62-.62s.62.21.62.62v1.42h4.12v-1.4c0-.42.21-.62.62-.62s.62.21.62.62v1.4h3.58c.42,0,.62.21.62.62s-.21.62-.62.62ZM129.65,15.25v-1.83h-4.12v1.83h4.12Z"/>
      <path class="cls-1" d="M157.4,24.57h-16.13c-.45,0-.67-.22-.67-.67v-15.71c0-.45.22-.67.67-.67h15.65c.45,0,.67.22.67.67s-.22.67-.67.67h-14.98v14.38h15.47c.45,0,.67.22.67.67s-.22.67-.67.67ZM149.01,12.47h-3.05c-.3.5-.76,1.22-1.4,2.14-.13.16-.29.25-.47.25s-.33-.07-.47-.21c-.13-.14-.2-.31-.2-.5,0-.16.05-.32.16-.47,1.07-1.42,1.82-2.8,2.25-4.12.1-.31.32-.47.65-.47.45,0,.67.2.67.6,0,.07,0,.15-.02.22-.07.27-.24.67-.51,1.22h7.54c.45,0,.67.22.67.67s-.22.67-.67.67h-3.81v2.65h5.94c.45,0,.67.22.67.67s-.22.67-.67.67h-6.16c-.27,1.74-1.1,3.14-2.49,4.21-1.17.92-2.61,1.51-4.32,1.76-.49.07-.73-.13-.73-.62,0-.37.19-.59.56-.67,1.44-.27,2.64-.76,3.61-1.49,1.11-.83,1.8-1.89,2.05-3.18h-5.52c-.45,0-.67-.22-.67-.67s.22-.67.67-.67h5.74v-2.65ZM156.22,21.41c.25.13.38.33.38.6,0,.45-.21.67-.62.67-.09,0-.19-.02-.29-.07-.73-.31-1.68-.92-2.86-1.83-1.18-.9-1.98-1.64-2.41-2.2-.1-.13-.16-.27-.16-.4,0-.4.24-.6.71-.6.22,0,.41.08.56.24.46.5,1.2,1.15,2.23,1.94,1.02.79,1.85,1.33,2.47,1.65Z"/>
      <path class="cls-1" d="M164.75,11.89c.25.13.38.31.38.53,0,.36-.2.53-.6.53-.12,0-.24-.03-.36-.09l-2.09-.94c-.25-.12-.38-.3-.38-.56,0-.18.06-.34.19-.48.13-.14.28-.21.46-.21.1,0,.21.03.31.09l2.09,1.11ZM164.61,17.5l-1.96.93c-.1.04-.21.07-.31.07-.18,0-.33-.07-.46-.2-.13-.13-.19-.29-.19-.47,0-.25.13-.44.38-.56l2.09-.93c.1-.04.2-.07.29-.07.39,0,.58.2.58.6,0,.28-.14.49-.42.62ZM180.75,9.64h-14.04v7.05c0,3.56-1.3,6.2-3.89,7.92-.12.07-.24.11-.36.11-.18,0-.33-.07-.46-.2-.13-.13-.19-.29-.19-.47,0-.21.1-.38.29-.51,2.21-1.48,3.32-3.84,3.32-7.08v-7.48c0-.43.21-.65.65-.65h6.63v-1.47c0-.43.21-.65.65-.65s.65.22.65.65v1.47h6.77c.43,0,.65.22.65.65s-.22.65-.65.65ZM171.09,22.39c-.31.37-.85.85-1.62,1.44-.77.59-1.41,1-1.91,1.26-.1.04-.21.07-.31.07-.16,0-.31-.07-.43-.2-.13-.13-.19-.28-.19-.45,0-.24.12-.42.36-.53.5-.25,1.09-.63,1.75-1.12.66-.5,1.12-.92,1.39-1.26.13-.16.29-.25.47-.25s.33.06.47.19.2.28.2.46c0,.15-.05.28-.16.4ZM180.88,15.98c.33.07.49.27.49.58,0,.19-.07.36-.21.49-.14.13-.32.18-.55.13-.52-.1-1.47-.46-2.85-1.07v4.09c0,.42-.21.62-.62.62h-2.8v4.47c0,.42-.21.62-.62.62s-.62-.21-.62-.62v-4.47h-2.74c-.42,0-.62-.21-.62-.62v-4.05c-.7.31-1.36.56-1.98.76-.07.03-.15.04-.22.04-.42,0-.62-.21-.62-.62,0-.25.13-.43.4-.53.55-.19,1.34-.51,2.38-.96l-.93-.98c-.16-.13-.24-.3-.24-.49,0-.16.06-.31.18-.45.12-.13.27-.2.45-.2.13,0,.26.05.38.16l1.36,1.36c1.07-.59,1.75-1.22,2.05-1.87h-4.81c-.42,0-.62-.21-.62-.62s.21-.62.62-.62h5.05v-.73c0-.39.21-.58.62-.58s.62.19.62.58v.73h5.03c.42,0,.62.21.62.62s-.21.62-.62.62l-5.16-.02c.83.86,1.71,1.52,2.63,1.98l1.45-1.45c.12-.1.24-.16.38-.16.18,0,.33.07.45.2.12.13.18.28.18.45,0,.19-.08.36-.24.49l-1.02,1.07c.65.3,1.11.5,1.38.6.55.21,1.02.36,1.42.45ZM176.52,17.43v-1.2h-5.54v1.2h5.54ZM176.52,19.72v-1.27h-5.54v1.27h5.54ZM175.87,15.16c-.34-.22-1.07-.79-2.18-1.69-.48.59-1.14,1.16-2,1.69h4.18ZM180.48,23.97c.24.12.36.3.36.53,0,.16-.06.31-.19.45-.13.13-.27.2-.43.2-.1,0-.21-.02-.31-.07-.5-.25-1.14-.67-1.91-1.26-.77-.59-1.31-1.06-1.62-1.44-.1-.12-.16-.25-.16-.4,0-.18.07-.33.2-.46s.29-.19.47-.19.33.08.47.25c.27.34.73.76,1.39,1.26.66.5,1.24.87,1.75,1.12Z"/>
      <path class="cls-1" d="M201.98,11.8c-1.02,2.36-2.72,4.58-5.1,6.65-.1.09-.22.13-.36.13-.18,0-.34-.08-.5-.24s-.23-.34-.23-.53c0-.15.06-.27.18-.38,1.77-1.48,3.2-3.18,4.3-5.1l-14.64,3.29s-.1.02-.16.02c-.33,0-.49-.23-.49-.69,0-.34.14-.55.41-.61.27-.07,2.93-.65,7.98-1.75,4.99-1.08,7.61-1.65,7.88-1.71.07-.03.15-.04.22-.04.16,0,.3.07.42.21.12.14.18.29.18.46,0,.12-.03.22-.09.29ZM202.51,23.73c-2.15.24-3.96.36-5.43.36-1.17,0-2.49-.07-3.94-.2-1.2-.1-2.02-.4-2.45-.89-.55-.61-.81-1.77-.78-3.47l.16-11.39c.03-.4.27-.6.71-.6s.67.2.67.6l-.18,11.39c-.01,1.17.13,1.97.42,2.4.25.36.76.57,1.54.65,1.48.13,2.78.2,3.89.2,1.56,0,3.32-.13,5.27-.4.19-.03.35.03.48.18.13.15.19.33.19.53,0,.39-.19.6-.56.65Z"/>
      <path class="cls-1" d="M223.72,14.71c-4.35,4.61-9.59,7.86-15.73,9.75-.21.06-.39,0-.56-.19-.16-.19-.24-.4-.24-.63,0-.27.12-.44.36-.51,3.34-1.08,6.23-2.41,8.68-3.98,2.69-1.72,4.9-3.55,6.65-5.5.12-.1.24-.16.38-.16.18,0,.33.08.47.23.13.16.2.33.2.52,0,.18-.07.33-.2.47ZM214.75,12.6c.15.13.22.29.22.47,0,.19-.07.37-.22.52-.15.16-.31.23-.49.23-.13,0-.25-.04-.36-.13-1.81-1.71-3.89-3.1-6.23-4.18-.18-.09-.27-.23-.27-.42s.07-.37.21-.53c.14-.16.31-.24.5-.24.09,0,.18.02.27.07,2.64,1.37,4.76,2.77,6.36,4.23Z"/>
      <path class="cls-1" d="M235.61,7.93c-.91,2.48-1.86,4.47-2.87,5.99-1.13,1.68-2.59,3.17-4.38,4.5-.15.12-.3.18-.47.18-.19,0-.36-.07-.49-.21s-.2-.31-.2-.5c0-.24.12-.43.36-.58,1.74-1.32,3.11-2.72,4.13-4.2,1.02-1.48,1.88-3.32,2.59-5.53.15-.28.37-.42.67-.42.47,0,.71.19.71.58,0,.06-.01.13-.04.2ZM243.86,10.75c-.7,3.59-2.08,6.64-4.14,9.15-2.24,2.71-5.02,4.44-8.35,5.16-.07.01-.14.02-.2.02-.46,0-.69-.26-.69-.78,0-.4.15-.62.45-.67,3.32-.52,6.16-2.35,8.5-5.5,1.38-1.85,2.37-4.23,2.98-7.12l-9.04.27.18-1.29c3.13-.1,6.28-.21,9.44-.33.31,0,.55.14.71.41.16.28.22.5.16.68ZM240.55,17.96l-.71,1.16c-1.28-.82-2.43-1.45-3.47-1.91-.93-.42-2.18-.86-3.74-1.33-.22-.07-.33-.21-.33-.42,0-.18.07-.35.22-.52.15-.17.32-.26.51-.26.06,0,.12.02.18.04,1.65.52,2.9.96,3.76,1.33.99.43,2.19,1.07,3.58,1.91Z"/>
      <path class="cls-1" d="M265.03,16.18h-16.36c-.45,0-.67-.22-.67-.67s.22-.67.67-.67h16.36c.45,0,.67.22.67.67s-.22.67-.67.67Z"/>
    </g>
  </g>
</svg>