<?xml version="1.0" encoding="UTF-8"?>
<svg id="_レイヤー_2" data-name="レイヤー 2" xmlns="http://www.w3.org/2000/svg" viewBox="0 0 176.11 30.97">
  <defs>
    <style>
      .cls-1 {
        fill: #231815;
        stroke: #231815;
        stroke-linecap: round;
        stroke-linejoin: round;
        stroke-width: .38px;
      }

      .cls-2 {
        fill: #fff;
        opacity: .7;
      }
    </style>
  </defs>
  <g id="_画像" data-name="画像">
    <rect class="cls-2" width="176.11" height="30.97"/>
    <g>
      <path class="cls-1" d="M14.24,12.69c-.33.98-1.11,2.31-2.34,3.98-1.19,1.6-2.16,2.69-2.92,3.27-.12.09-.25.13-.4.13-.19,0-.36-.07-.5-.22-.14-.15-.21-.31-.21-.49,0-.19.08-.36.24-.49.7-.53,1.6-1.55,2.7-3.05,1.1-1.5,1.81-2.67,2.13-3.52.1-.28.32-.42.65-.42.46,0,.69.19.69.58,0,.08-.01.15-.04.22ZM18.53,24.59c0,.45-.24.67-.71.67s-.73-.22-.73-.67V7.41c0-.45.24-.67.73-.67s.71.22.71.67v17.18ZM27.77,18.88c.16.13.24.3.24.49,0,.18-.07.34-.21.49-.14.15-.31.22-.5.22-.13,0-.27-.05-.4-.16-.76-.58-1.73-1.65-2.92-3.23-1.23-1.66-2.01-2.97-2.34-3.94-.03-.07-.04-.15-.04-.22,0-.43.24-.65.73-.65.3,0,.5.14.6.42.31.85,1.02,2.02,2.13,3.52,1.11,1.5,2.01,2.52,2.7,3.05Z"/>
      <path class="cls-1" d="M35.49,14.8c.33.07.49.27.49.58,0,.19-.07.36-.21.49-.14.13-.32.18-.55.13l-3.87-.8c-.33-.07-.49-.27-.49-.58,0-.19.07-.36.21-.49.14-.13.32-.18.55-.13l3.87.8ZM36.12,21.92l-4.21,2.34c-.1.06-.21.09-.31.09-.4,0-.6-.22-.6-.65,0-.25.11-.44.33-.56l4.21-2.34c.1-.06.21-.09.31-.09.4,0,.6.21.6.65,0,.25-.11.44-.33.56ZM35.87,8.99c.25.12.38.3.38.56,0,.45-.2.67-.6.67-.09,0-.18-.02-.27-.07l-3.27-1.47c-.25-.12-.38-.3-.38-.56,0-.44.2-.67.6-.67.09,0,.18.02.27.07l3.27,1.47ZM49.34,13.53h-13.18c-.42,0-.62-.2-.62-.6s.21-.6.62-.6h3.14l-.69-2.72h-1.18c-.42,0-.62-.2-.62-.6s.21-.6.62-.6h4.56v-1.65c0-.42.21-.62.62-.62s.62.21.62.62v1.65h4.78c.43,0,.65.2.65.6s-.22.6-.65.6h-1.31l-.73,2.72h3.36c.42,0,.62.2.62.6s-.21.6-.62.6ZM50.67,24.93c-.65.33-1.62.49-2.92.49-1.68,0-3.06-.25-4.14-.73-1.16-.52-1.74-1.27-1.74-2.25v-1.02h-4.03c-.42,0-.62-.21-.62-.62v-5.47c0-.42.21-.62.62-.62h9.53c.42,0,.62.21.62.62v5.47c0,.42-.21.62-.62.62h-4.25v.87c0,.36.08.62.24.8.1.13.34.3.71.49.9.46,2.09.69,3.56.69,1.11,0,1.94-.15,2.49-.45.1-.06.21-.09.31-.09.39,0,.58.21.58.64,0,.25-.12.44-.36.56ZM41.88,17.45v-1.51h-3.36v1.51h3.36ZM41.88,20.19v-1.58h-3.36v1.58h3.36ZM45.37,9.64h-5.45l.69,2.67h4.03l.73-2.67ZM46.73,17.45v-1.51h-3.61v1.51h3.61ZM46.73,20.19v-1.58h-3.61v1.58h3.61Z"/>
      <path class="cls-1" d="M56.7,12.07h-2.36c-.45,0-.67-.22-.67-.67s.22-.67.67-.67h2.36v-4.03c0-.45.22-.67.67-.67s.67.22.67.67v4.03h1.6c.45,0,.67.22.67.67s-.22.67-.67.67h-1.6v1.65l2.14,2.11c.12.15.18.3.18.47,0,.42-.22.62-.65.62-.18,0-.35-.07-.51-.2l-1.16-1.09v9.08c0,.45-.22.67-.67.67s-.67-.22-.67-.67v-8.43c-.86,1.39-1.68,2.4-2.47,3.03-.15.12-.3.18-.47.18-.19,0-.36-.07-.5-.22-.14-.15-.21-.31-.21-.49,0-.15.05-.27.16-.38,1.59-1.63,2.75-3.21,3.49-4.74v-1.58ZM65.38,8.71c-1.63.21-2.7.31-3.2.31-.45,0-.67-.22-.67-.67s.22-.67.67-.67c.74,0,2.02-.13,3.83-.4,1.94-.28,3.26-.56,3.94-.82.09-.04.18-.07.27-.07.45,0,.67.24.67.71,0,.28-.15.48-.45.6-.58.22-1.79.48-3.63.78-.09.43-.23.85-.42,1.27h5.34c.45,0,.67.22.67.67s-.22.67-.67.67h-3.18c.49.53,1.22,1.09,2.18,1.67.86.49,1.65.86,2.36,1.11.34.12.51.33.51.65,0,.21-.08.38-.23.5-.16.13-.35.17-.59.12-1.02-.22-2.2-.83-3.52-1.83v2.25c0,.45-.22.67-.67.67h-5.07c-.45,0-.67-.22-.67-.67v-1.91c-.8.55-1.6.96-2.4,1.22-.07.03-.15.04-.22.04-.42,0-.62-.23-.62-.69,0-.31.15-.53.45-.65,1.59-.61,2.88-1.44,3.87-2.49h-3.09c-.45,0-.67-.22-.67-.67s.22-.67.67-.67h4.09c.19-.33.35-.67.47-1.05ZM72.12,24.51c0,.45-.22.67-.67.67s-.67-.22-.67-.67v-6.23h-9.41v6.23c0,.45-.22.67-.67.67s-.67-.22-.67-.67v-6.85c0-.45.22-.67.67-.67h10.75c.45,0,.67.22.67.67v6.85ZM68.96,22.57c0,.44-.22.67-.67.67h-4.65c-.45,0-.67-.22-.67-.67v-2.54c0-.45.22-.67.67-.67h4.65c.45,0,.67.22.67.67v2.54ZM68.41,12.69c-.58-.45-1.12-.98-1.62-1.6h-1.18c-.43.56-.93,1.1-1.51,1.6h4.32ZM67.92,15.07v-1.2h-3.74v1.2h3.74ZM67.63,22.01v-1.45h-3.32v1.45h3.32Z"/>
      <path class="cls-1" d="M95.31,14.69c-.71,4.21-1.8,7.5-3.25,9.86-.13.21-.32.31-.56.31-.45,0-.67-.2-.67-.6,0-.12.04-.25.11-.38,1.51-2.67,2.55-5.78,3.12-9.33.01-.12.02-.23.02-.33,0-.71-.33-1.07-1-1.07h-1.78c-1.19,5.19-3.46,9.26-6.83,12.2-.12.1-.24.16-.38.16-.18,0-.33-.07-.47-.21-.13-.14-.2-.29-.2-.46,0-.19.08-.35.24-.47.28-.21.7-.62,1.25-1.22l-7.17.53c-.45.03-.67-.18-.67-.62,0-.39.19-.59.58-.62l3.89-.29v-1.56h-3.32c-.4,0-.6-.2-.6-.6,0-.43.22-.65.65-.65h3.27v-1.07h-3.03c-.42,0-.62-.21-.62-.62v-4.87c0-.42.21-.62.62-.62h3.03v-1.09h-4.12c-.42,0-.62-.21-.62-.62s.21-.62.62-.62h4.12v-1.16c-.79.1-1.82.21-3.09.31-.46.04-.69-.16-.69-.62,0-.36.19-.56.56-.6,3.53-.36,5.85-.76,6.94-1.22.09-.03.17-.04.24-.04.4,0,.6.21.6.65,0,.27-.13.45-.4.56-.8.33-1.76.58-2.87.76v1.38h3.87c.42,0,.62.21.62.62s-.21.62-.62.62h-3.87v1.09h3.12c.42,0,.62.21.62.62v4.87c0,.42-.21.62-.62.62h-3.12v1.07h3.23c.4,0,.6.2.6.6,0,.43-.22.65-.65.65h-3.18v1.42l3.2-.22c1.74-2.21,3.04-5.08,3.92-8.61h-2.4c-.42,0-.62-.21-.62-.62s.21-.62.62-.62h2.72c.34-2.14.52-3.79.53-4.96,0-.38.2-.58.6-.58.43,0,.65.21.67.65.01.95-.15,2.57-.49,4.87h1.74c.67,0,1.17.2,1.51.61.34.41.51.93.51,1.57,0,.19-.01.39-.04.6ZM81.56,14.67v-1.29h-2.38v1.29h2.38ZM81.56,17.09v-1.29h-2.38v1.29h2.38ZM85.32,14.67v-1.29h-2.47v1.29h2.47ZM85.32,17.09v-1.29h-2.47v1.29h2.47Z"/>
      <path class="cls-1" d="M106.46,16.63l-2.09.62c-.01,2.2-.22,3.8-.62,4.81-.53,1.39-1.6,2.43-3.2,3.09-.07.03-.15.04-.22.04-.39,0-.58-.22-.58-.67,0-.3.13-.5.4-.6,1.26-.5,2.11-1.32,2.54-2.45.28-.77.43-2.05.45-3.83l-2.8.8c-.06.01-.13.02-.2.02-.4,0-.6-.21-.6-.65,0-.3.15-.49.45-.58l3.18-.96v-3.92h-1.96c-.59,1.44-1.09,2.16-1.49,2.16-.16,0-.31-.06-.43-.19-.13-.13-.19-.27-.19-.43,0-.13.04-.27.13-.4.4-.53.76-1.31,1.09-2.33.33-1.02.54-1.99.65-2.93.04-.37.25-.56.62-.56.47,0,.68.23.62.69-.15,1.16-.33,2.07-.53,2.74h1.49v-4.23c0-.42.21-.62.62-.62s.62.21.62.62v4.23h1.45c.42,0,.62.21.62.62s-.21.62-.62.62h-1.45v3.52l1.71-.47c.06-.01.12-.02.18-.02.42,0,.62.22.62.65,0,.3-.15.49-.45.58ZM117.81,15.83c-1.77,4.32-3.46,7.45-5.1,9.39-.13.15-.28.22-.45.22-.18,0-.33-.06-.47-.19-.13-.13-.2-.28-.2-.46,0-.13.05-.26.16-.38.86-1.02,1.79-2.51,2.8-4.45.85-1.62,1.51-3.09,2-4.41.28-.76.42-1.21.42-1.36,0-.36-.3-.67-.91-.96l-.69-.25c-.8,1.84-1.95,3.95-3.44,6.33-1.49,2.38-2.76,4.11-3.79,5.2-.13.13-.28.2-.45.2-.18,0-.33-.07-.47-.2s-.2-.29-.2-.47c0-.16.06-.3.18-.42,1.02-1.02,2.26-2.69,3.69-5.01,1.42-2.27,2.51-4.29,3.27-6.05l-1.91-.69c-.65,1.51-1.68,3.35-3.07,5.51-1.39,2.16-2.63,3.82-3.69,4.97-.13.13-.28.2-.45.2-.18,0-.33-.07-.47-.2-.13-.13-.2-.29-.2-.47,0-.13.05-.26.16-.38,1.1-1.19,2.31-2.8,3.65-4.83,1.34-2.03,2.31-3.77,2.92-5.21l-1.69-.45c-.55.91-1.5,2.15-2.85,3.74-.13.15-.28.22-.45.22s-.31-.06-.43-.18c-.13-.12-.19-.25-.19-.4s.06-.28.18-.4c.7-.68,1.51-1.74,2.43-3.18.92-1.44,1.57-2.66,1.94-3.67.1-.28.29-.42.56-.42.42,0,.62.2.62.6,0,.07-.01.16-.04.25-.27.71-.65,1.51-1.14,2.38l5.99,1.89c1.47.46,2.2,1.19,2.2,2.2,0,.48-.14,1.06-.42,1.76Z"/>
      <path class="cls-1" d="M140.65,9.8h-13.8v8.41c0,1.62-.46,3.04-1.38,4.27-.83,1.13-1.88,1.9-3.16,2.31-.07.03-.14.04-.2.04-.39,0-.58-.21-.58-.62,0-.28.14-.47.42-.58,1.04-.37,1.89-1.03,2.56-1.98.71-1.04,1.07-2.24,1.07-3.61v-8.88c0-.42.21-.62.62-.62h6.81v-1.89c0-.42.21-.62.65-.62s.62.21.62.62v1.89h6.36c.42,0,.62.21.62.62s-.21.62-.62.62ZM124.85,17.59l-2.36,1.13c-.09.04-.19.07-.29.07-.4,0-.6-.21-.6-.64,0-.24.12-.42.36-.53l2.36-1.14c.09-.04.19-.07.29-.07.4,0,.6.21.6.65,0,.24-.12.42-.36.53ZM124.89,12.09c.22.12.33.29.33.51,0,.43-.21.65-.62.65-.12,0-.23-.03-.33-.09l-2.16-1.2c-.22-.12-.33-.29-.33-.51,0-.43.21-.65.62-.65.12,0,.23.03.33.09l2.16,1.2ZM140.65,12.84h-5.99v2.56h5.19c.42,0,.62.21.62.62v8.86c0,.42-.21.62-.62.62s-.62-.21-.62-.62v-8.21h-4.61c0,.06-.04.28-.13.65,1.04,1.4,2.34,2.5,3.89,3.32.22.12.33.29.33.51,0,.45-.21.67-.62.67-.1,0-.22-.04-.33-.11-1.69-1.02-2.95-2.06-3.76-3.12-.8,1.66-2.04,2.69-3.72,3.09-.21.04-.38,0-.52-.12-.14-.13-.21-.29-.21-.5,0-.31.16-.5.47-.58.79-.19,1.48-.61,2.07-1.25.67-.71,1.07-1.57,1.2-2.56h-4.21v7.88c0,.42-.21.62-.62.62s-.65-.21-.65-.62v-8.52c0-.42.21-.62.62-.62h4.92v-2.56h-5.27c-.42,0-.62-.21-.62-.62s.21-.62.62-.62h12.57c.42,0,.62.21.62.62s-.21.62-.62.62Z"/>
      <path class="cls-1" d="M149.88,13.56l-.71,1.02c-.13.19-.3.29-.51.29-.18,0-.34-.07-.48-.21-.14-.14-.21-.3-.21-.48,0-.16.06-.31.18-.45.58-.68,1.32-1.93,2.23-3.74.1-.19.16-.38.16-.56,0-.36-.19-.53-.56-.53h-3.96c-.42,0-.62-.23-.62-.69,0-.43.21-.65.62-.65h4.38c1.07,0,1.6.51,1.6,1.54,0,.48-.13.97-.4,1.49-.21.43-.53,1.04-.96,1.83,1.11,1.22,1.67,2.58,1.67,4.09,0,1.11-.32,2.06-.95,2.84-.63.78-1.44,1.17-2.41,1.17-.49,0-.99-.1-1.51-.31v4.79c0,.44-.22.67-.65.67s-.65-.22-.65-.67v-15.07c0-.44.21-.67.65-.67s.65.22.65.67v8.88c.46.24.9.36,1.34.36.65,0,1.19-.28,1.6-.85.39-.52.58-1.17.58-1.96,0-1.07-.36-2-1.07-2.8ZM156.85,18.54c-.16,1.65-.84,3.14-2.03,4.47-1.31,1.48-2.89,2.32-4.76,2.52-.24.03-.42-.03-.56-.17-.13-.14-.2-.32-.2-.52,0-.37.19-.59.58-.65,1.6-.24,2.95-.96,4.03-2.16.96-1.1,1.5-2.29,1.6-3.58.03-.42.25-.62.67-.62.49,0,.71.24.67.71ZM157.32,9.24v-1.98c0-.45.22-.67.67-.67s.67.22.67.67v1.98h4.61c.45,0,.67.22.67.67v2.74c0,.44-.22.67-.67.67s-.67-.22-.67-.67v-2.07h-8.95v2.09c0,.45-.22.67-.67.67s-.67-.22-.67-.67v-2.76c0-.45.22-.67.67-.67h4.34ZM158.47,17.52h-5.27c-.45,0-.67-.22-.67-.67s.22-.67.67-.67h10.3c.45,0,.67.22.67.67s-.22.67-.67.67h-3.69v4.76c0,.43.1.76.31.98.13.15.39.3.76.47.47.19,1.06.29,1.76.29.21,0,.5-.03.88-.1.38-.07.65-.1.81-.1.4,0,.6.22.6.67,0,.37-.18.6-.53.69-.55.15-1.15.22-1.8.22-.74,0-1.44-.09-2.09-.27-1.35-.46-2.03-1.29-2.03-2.49v-5.12ZM161.39,13.91h-6.68c-.45,0-.67-.22-.67-.67s.22-.67.67-.67h6.68c.45,0,.67.22.67.67s-.22.67-.67.67Z"/>
    </g>
  </g>
</svg>