<?xml version="1.0" encoding="UTF-8"?>
<svg id="_レイヤー_2" data-name="レイヤー 2" xmlns="http://www.w3.org/2000/svg" viewBox="0 0 44.32 10.27">
  <defs>
    <style>
      .cls-1 {
        fill: #fff;
      }
    </style>
  </defs>
  <g id="_テキスト" data-name="テキスト">
    <g>
      <path class="cls-1" d="M8.45,0h-.75c-.06,0-.11.04-.14.09l-3.22,7.31L1.04.09c-.02-.05-.08-.09-.14-.09H.15c-.08,0-.15.07-.15.15v9.88c0,.08.07.15.15.15h.75c.08,0,.15-.07.15-.15V2.59l2.76,6.12c.02.05.08.09.14.09h.75c.06,0,.11-.04.14-.09l2.71-6.1v7.43c0,.08.07.15.15.15h.75c.08,0,.15-.07.15-.15V.15c0-.08-.07-.15-.15-.15Z"/>
      <path class="cls-1" d="M19.99,0h-6c-.08,0-.15.07-.15.15v9.88c0,.08.07.15.15.15h6c.08,0,.15-.07.15-.15v-.67c0-.08-.07-.15-.15-.15h-5.1v-3.68h4.32c.08,0,.15-.07.15-.15v-.67c0-.08-.07-.15-.15-.15h-4.32V.97h5.1c.08,0,.15-.07.15-.15V.15c0-.08-.07-.15-.15-.15Z"/>
      <path class="cls-1" d="M31.99,0h-.75c-.08,0-.15.07-.15.15v8.06L25.66.07s-.08-.07-.13-.07h-.75c-.08,0-.15.07-.15.15v9.88c0,.08.07.15.15.15h.75c.08,0,.15-.07.15-.15V1.95l5.43,8.17s.08.07.13.07h.75c.08,0,.15-.07.15-.15V.15c0-.08-.07-.15-.15-.15Z"/>
      <path class="cls-1" d="M44.17,0h-.75c-.08,0-.15.07-.15.15v6.58c0,1.56-.98,2.57-2.49,2.57s-2.49-1.01-2.49-2.57V.15c0-.08-.07-.15-.15-.15h-.75c-.08,0-.15.07-.15.15v6.68c0,2.03,1.46,3.44,3.54,3.44s3.54-1.41,3.54-3.44V.15c0-.08-.07-.15-.15-.15Z"/>
    </g>
  </g>
</svg>