<?xml version="1.0" encoding="UTF-8"?>
<svg id="_レイヤー_2" data-name="レイヤー 2" xmlns="http://www.w3.org/2000/svg" viewBox="0 0 179.3 10.56">
  <defs>
    <style>
      .cls-1 {
        fill: #333;
      }
    </style>
  </defs>
  <g id="_テキスト" data-name="テキスト">
    <g>
      <path class="cls-1" d="M5.11,10.3c.05.1.01.15-.1.15h-.99c-.11,0-.19-.05-.24-.15l-1.92-4.37s-.04-.06-.07-.06c-.04,0-.07.01-.08.04l-.43.71c-.04.09-.06.17-.06.22v3.43c0,.11-.06.17-.17.17H.17c-.11,0-.17-.06-.17-.17V.28C0,.16.06.1.17.1h.88c.11,0,.17.06.17.18v3.82s.02.06.06.07c.03,0,.05,0,.07-.03L3.67.25c.07-.1.15-.15.25-.15h1.08c.12,0,.15.05.08.15l-2.44,4.09c-.07.11-.07.21-.01.31l2.48,5.66Z"/>
      <path class="cls-1" d="M10.4,10.29c0,.11-.06.17-.17.17h-.87c-.11,0-.17-.06-.17-.17V.28c0-.11.06-.17.17-.17h.87c.11,0,.17.06.17.17v10.01Z"/>
      <path class="cls-1" d="M19.63,4.02c0,.89-.37,1.58-1.11,2.07-.09.07-.13.15-.1.25l1.15,3.95c.03.11-.01.17-.13.17h-.92c-.1,0-.17-.06-.21-.17l-1.06-3.63c-.04-.11-.11-.17-.22-.17h-1.18c-.11,0-.17.06-.17.17v3.63c0,.11-.06.17-.18.17h-.87c-.11,0-.17-.06-.17-.17V.28c0-.12.06-.18.17-.18h2.53c.68,0,1.26.24,1.74.73s.72,1.07.72,1.75v1.44ZM18.41,4.02v-1.44c0-.35-.12-.64-.36-.89-.24-.25-.54-.37-.88-.37h-1.32c-.11,0-.17.06-.17.18v3.61c0,.11.06.17.17.17h1.32c.34,0,.64-.12.88-.37.24-.25.36-.54.36-.89Z"/>
      <path class="cls-1" d="M28.83,8.08c0,.68-.24,1.26-.72,1.75s-1.06.73-1.74.73h-.24c-.68,0-1.26-.24-1.74-.73-.48-.49-.72-1.07-.72-1.75V2.48c0-.68.24-1.26.72-1.75.48-.49,1.06-.73,1.74-.73h.24c.68,0,1.26.24,1.74.73s.72,1.07.72,1.75v5.6ZM27.61,8.08V2.48c0-.34-.12-.64-.36-.89s-.54-.37-.88-.37h-.24c-.35,0-.64.12-.88.37s-.36.54-.36.89v5.6c0,.34.12.64.36.89s.54.37.88.37h.24c.34,0,.64-.12.88-.37s.36-.54.36-.89Z"/>
      <path class="cls-1" d="M38.02,4.02c0,.89-.37,1.58-1.11,2.07-.09.07-.13.15-.1.25l1.15,3.95c.03.11-.01.17-.13.17h-.92c-.1,0-.17-.06-.21-.17l-1.06-3.63c-.04-.11-.11-.17-.22-.17h-1.18c-.11,0-.17.06-.17.17v3.63c0,.11-.06.17-.18.17h-.87c-.11,0-.17-.06-.17-.17V.28c0-.12.06-.18.17-.18h2.53c.68,0,1.26.24,1.74.73s.72,1.07.72,1.75v1.44ZM36.81,4.02v-1.44c0-.35-.12-.64-.36-.89-.24-.25-.54-.37-.88-.37h-1.32c-.11,0-.17.06-.17.18v3.61c0,.11.06.17.17.17h1.32c.34,0,.64-.12.88-.37.24-.25.36-.54.36-.89Z"/>
      <path class="cls-1" d="M47.22,8.08c0,.68-.24,1.26-.72,1.75s-1.06.73-1.74.73h-.24c-.68,0-1.26-.24-1.74-.73-.48-.49-.72-1.07-.72-1.75V2.48c0-.68.24-1.26.72-1.75.48-.49,1.06-.73,1.74-.73h.24c.68,0,1.26.24,1.74.73s.72,1.07.72,1.75v5.6ZM46,8.08V2.48c0-.34-.12-.64-.36-.89s-.54-.37-.88-.37h-.24c-.35,0-.64.12-.88.37s-.36.54-.36.89v5.6c0,.34.12.64.36.89s.54.37.88.37h.24c.34,0,.64-.12.88-.37s.36-.54.36-.89Z"/>
      <path class="cls-1" d="M61.67,10.29c.02.11-.03.17-.14.17h-.9c-.11,0-.18-.06-.2-.17l-.27-1.36c-.02-.11-.09-.17-.21-.17h-1.68c-.11,0-.18.06-.21.17l-.25,1.36c-.03.11-.1.17-.21.17h-.9c-.11,0-.16-.06-.14-.17l1.92-10.02c.03-.11.1-.17.21-.17h.85c.11,0,.18.06.2.17l1.92,10.02ZM59.88,7.38l-.69-3.57s-.03-.06-.07-.06-.06.02-.07.06l-.67,3.57c-.04.11,0,.17.14.17h1.22c.11,0,.16-.06.14-.17Z"/>
      <path class="cls-1" d="M70.73,10.29c0,.11-.06.17-.17.17h-.91c-.12,0-.2-.05-.24-.15l-2.51-6.55s-.04-.06-.07-.06c-.04,0-.06.03-.06.07v6.51c0,.12-.06.18-.18.18h-.87c-.11,0-.17-.06-.17-.18V.27c0-.11.06-.17.17-.17h.91c.11,0,.19.06.24.17l2.51,6.54s.03.05.07.04c.04,0,.06-.03.06-.07V.27c0-.11.06-.17.18-.17h.87c.11,0,.17.06.17.17v10.02Z"/>
      <path class="cls-1" d="M75.99,10.29c0,.11-.06.17-.17.17h-.87c-.11,0-.17-.06-.17-.17V.28c0-.11.06-.17.17-.17h.87c.11,0,.17.06.17.17v10.01Z"/>
      <path class="cls-1" d="M86.45,10.29c0,.11-.06.17-.17.17h-.87c-.12,0-.18-.06-.18-.17V3.84s-.02-.06-.06-.07c-.04,0-.06,0-.07.04l-1.33,3.53c-.05.11-.13.17-.24.17h-.57c-.11,0-.19-.06-.24-.17l-1.33-3.53s-.03-.05-.07-.04c-.04,0-.06.03-.06.07v6.45c0,.11-.06.17-.18.17h-.87c-.11,0-.17-.06-.17-.17V.28c0-.12.06-.18.17-.18h.91c.11,0,.19.06.24.17l1.82,4.83s.03.04.06.04c.04,0,.06-.01.07-.04l1.82-4.83c.05-.11.13-.17.24-.17h.91c.11,0,.17.06.17.18v10.01Z"/>
      <path class="cls-1" d="M95.44,10.29c.02.11-.03.17-.14.17h-.9c-.11,0-.18-.06-.2-.17l-.27-1.36c-.02-.11-.09-.17-.21-.17h-1.68c-.11,0-.18.06-.21.17l-.25,1.36c-.03.11-.1.17-.21.17h-.9c-.11,0-.16-.06-.14-.17l1.92-10.02c.03-.11.1-.17.21-.17h.85c.11,0,.18.06.2.17l1.92,10.02ZM93.65,7.38l-.69-3.57s-.03-.06-.07-.06-.06.02-.07.06l-.67,3.57c-.04.11,0,.17.14.17h1.22c.11,0,.16-.06.14-.17Z"/>
      <path class="cls-1" d="M104.51,10.29c0,.11-.06.17-.17.17h-4.84c-.11,0-.17-.06-.17-.17V.28c0-.12.06-.18.17-.18h.88c.11,0,.17.06.17.18v8.79c0,.11.06.17.17.17h3.63c.11,0,.17.06.17.17v.88Z"/>
      <path class="cls-1" d="M119.15,10.29c0,.11-.06.17-.17.17h-.87c-.12,0-.18-.06-.18-.17v-4.23c0-.11-.06-.17-.17-.17h-2.39c-.11,0-.17.06-.17.17v4.23c0,.11-.06.17-.18.17h-.87c-.11,0-.17-.06-.17-.17V.28c0-.11.06-.17.17-.17h.87c.12,0,.18.06.18.17v4.23c0,.11.06.17.17.17h2.39c.11,0,.17-.06.17-.17V.28c0-.11.06-.17.18-.17h.87c.11,0,.17.06.17.17v10.01Z"/>
      <path class="cls-1" d="M128.35,8.08c0,.68-.24,1.26-.72,1.75s-1.06.73-1.74.73h-.24c-.68,0-1.26-.24-1.74-.73-.48-.49-.72-1.07-.72-1.75V2.48c0-.68.24-1.26.72-1.75.48-.49,1.06-.73,1.74-.73h.24c.68,0,1.26.24,1.74.73s.72,1.07.72,1.75v5.6ZM127.13,8.08V2.48c0-.34-.12-.64-.36-.89s-.54-.37-.88-.37h-.24c-.35,0-.64.12-.88.37s-.36.54-.36.89v5.6c0,.34.12.64.36.89s.54.37.88.37h.24c.34,0,.64-.12.88-.37s.36-.54.36-.89Z"/>
      <path class="cls-1" d="M137.55,8.08c0,.68-.24,1.26-.72,1.75s-1.06.73-1.74.73h-.24c-.68,0-1.26-.24-1.74-.73-.48-.49-.72-1.07-.72-1.75v-.91c0-.11.06-.17.17-.17h.87c.12,0,.18.06.18.17v.91c0,.34.12.64.36.89s.54.37.88.37h.24c.34,0,.64-.12.88-.37s.36-.54.36-.89c0-.54-.18-.97-.53-1.27-1.52-1.32-2.34-2.03-2.46-2.14-.64-.92-.95-1.64-.95-2.18,0-.68.24-1.26.72-1.75.48-.49,1.06-.73,1.74-.73h.24c.68,0,1.26.24,1.74.73s.72,1.07.72,1.75v.91c0,.12-.06.18-.17.18h-.87c-.12,0-.18-.06-.18-.18v-.91c0-.34-.12-.64-.36-.89s-.54-.37-.88-.37h-.24c-.35,0-.64.12-.88.37s-.36.54-.36.89c0,.54.18.97.53,1.27l2.46,2.13c.63.55.95,1.28.95,2.2Z"/>
      <path class="cls-1" d="M146.75,4.02c0,.68-.24,1.26-.72,1.75s-1.06.73-1.74.73h-1.32c-.11,0-.17.06-.17.17v3.63c0,.11-.06.17-.18.17h-.87c-.11,0-.17-.06-.17-.17V.28c0-.12.06-.18.17-.18h2.53c.68,0,1.26.24,1.74.73s.72,1.07.72,1.75v1.44ZM145.53,4.02v-1.44c0-.35-.12-.64-.36-.89-.24-.25-.54-.37-.88-.37h-1.32c-.11,0-.17.06-.17.18v3.61c0,.11.06.17.17.17h1.32c.34,0,.64-.12.88-.37.24-.25.36-.54.36-.89Z"/>
      <path class="cls-1" d="M152.01,10.29c0,.11-.06.17-.17.17h-.87c-.11,0-.17-.06-.17-.17V.28c0-.11.06-.17.17-.17h.87c.11,0,.17.06.17.17v10.01Z"/>
      <path class="cls-1" d="M161.25,1.15c0,.11-.06.17-.17.17h-1.65c-.11,0-.17.06-.17.18v8.79c0,.11-.06.17-.17.17h-.88c-.11,0-.17-.06-.17-.17V1.5c0-.12-.06-.18-.17-.18h-1.64c-.11,0-.17-.06-.17-.17V.28c0-.12.06-.18.17-.18h4.84c.11,0,.17.06.17.18v.87Z"/>
      <path class="cls-1" d="M170.23,10.29c.02.11-.03.17-.14.17h-.9c-.11,0-.18-.06-.2-.17l-.27-1.36c-.02-.11-.09-.17-.21-.17h-1.68c-.11,0-.18.06-.21.17l-.25,1.36c-.03.11-.1.17-.21.17h-.9c-.11,0-.16-.06-.14-.17l1.92-10.02c.03-.11.1-.17.21-.17h.85c.11,0,.18.06.2.17l1.92,10.02ZM168.44,7.38l-.69-3.57s-.03-.06-.07-.06-.06.02-.07.06l-.67,3.57c-.04.11,0,.17.14.17h1.22c.11,0,.16-.06.14-.17Z"/>
      <path class="cls-1" d="M179.3,10.29c0,.11-.06.17-.17.17h-4.84c-.11,0-.17-.06-.17-.17V.28c0-.12.06-.18.17-.18h.88c.11,0,.17.06.17.18v8.79c0,.11.06.17.17.17h3.63c.11,0,.17.06.17.17v.88Z"/>
    </g>
  </g>
</svg>