<?xml version="1.0" encoding="UTF-8"?>
<svg id="_レイヤー_2" data-name="レイヤー 2" xmlns="http://www.w3.org/2000/svg" viewBox="0 0 321.59 30.97">
  <defs>
    <style>
      .cls-1, .cls-2 {
        fill: #231815;
      }

      .cls-2 {
        stroke: #231815;
        stroke-linecap: round;
        stroke-linejoin: round;
        stroke-width: .38px;
      }

      .cls-3 {
        fill: #fff;
        opacity: .7;
      }
    </style>
  </defs>
  <g id="_画像" data-name="画像">
    <rect class="cls-3" width="321.59" height="30.97"/>
    <g>
      <g>
        <path class="cls-2" d="M16.32,10.87h-.72l-.59,2.72h1.08c.37,0,.55.18.55.55s-.18.57-.55.57h-2.67v1.57h2.84c.37,0,.55.18.55.55s-.18.55-.55.55h-2.84v6.38c0,.37-.18.55-.55.55s-.57-.18-.57-.55v-6.38h-3.46c-.37,0-.55-.18-.55-.55s.18-.55.55-.55h3.46v-1.57h-3.16c-.37,0-.55-.18-.55-.55s.18-.55.55-.55h1.42l-.61-2.74h-.76c-.37,0-.55-.18-.55-.55s.18-.55.55-.55h3.1v-1.67c0-.37.19-.55.57-.55s.55.18.55.55v1.67h2.89c.37,0,.55.18.55.55s-.18.55-.55.55ZM11.59,19.06c-.66,1.4-1.35,2.47-2.08,3.22-.11.13-.25.19-.4.19s-.28-.06-.39-.17c-.11-.11-.16-.25-.16-.4,0-.14.05-.26.15-.38.71-.79,1.34-1.77,1.89-2.91.1-.2.26-.3.47-.3.38,0,.57.17.57.51,0,.09-.02.17-.06.25ZM14.43,10.87h-3.27l.53,2.74h2.18l.57-2.74ZM24.58,14.77h-2.4v8.83c0,.37-.19.55-.57.55s-.57-.18-.57-.55l.02-8.83h-2.93v3.22c0,2.22-.98,4.1-2.95,5.64-.11.09-.23.13-.34.13-.15,0-.28-.06-.4-.17-.11-.11-.17-.24-.17-.38,0-.16.07-.3.21-.42.2-.18.41-.36.62-.56.21-.2.4-.4.55-.61l-1.55-2.5c-.06-.1-.09-.2-.09-.3,0-.14.06-.26.17-.37.11-.11.25-.16.4-.16.18,0,.32.09.44.26l1.31,2.06c.48-.84.72-1.77.72-2.78v-6.94c0-.28.13-.45.38-.53,1.32-.39,2.87-1.2,4.63-2.42.1-.08.2-.11.3-.11.15,0,.28.06.39.18.11.12.16.25.16.41,0,.18-.08.32-.25.44-1.6,1.11-3.11,1.92-4.52,2.44v2.38h6.45c.37,0,.55.18.55.55s-.18.55-.55.55Z"/>
        <path class="cls-2" d="M28.59,8.91c0-.38.19-.57.57-.57h10.67c.37,0,.55.19.55.57v14.26c0,.38-.19.57-.57.57h-10.65c-.38,0-.57-.19-.57-.57v-14.26ZM29.73,13.01h9.52v-3.54h-9.52v3.54ZM39.24,14.09h-9.52v3.52h9.52v-3.52ZM39.24,18.67h-9.52v3.93h9.52v-3.93Z"/>
        <path class="cls-2" d="M58.31,22.64c0,.38-.19.57-.57.57h-11.75c-.38,0-.57-.19-.57-.57v-10.29c0-.38.19-.57.57-.57h4.16l1.21-3.29c.1-.28.29-.42.57-.42.35,0,.53.17.53.51,0,.08-.01.15-.04.23l-1.02,2.97h6.34c.38,0,.57.19.57.57v10.29ZM57.16,16.74v-3.8h-10.57v3.8h10.57ZM57.16,22.05v-4.14h-10.57v4.14h10.57Z"/>
        <path class="cls-2" d="M78.65,23.66c-.77.32-1.72.47-2.84.47-1.68,0-3.48-.31-5.41-.93-3.09-1-5.27-1.56-6.55-1.68l-.51.62c-.18.21-.38.32-.61.32-.35,0-.53-.16-.53-.49,0-.14.06-.27.17-.4,1.02-1.17,2.08-2.81,3.18-4.9.03-.06.04-.13.04-.19,0-.13-.07-.23-.2-.32-.13-.09-.27-.18-.41-.26-.37-.24-.98-.52-1.85-.83-.21-.09-.32-.25-.32-.47,0-.39.17-.59.51-.59.08,0,.15.02.23.06.4.16,1.05.46,1.93.89.86.48,1.29.92,1.29,1.32,0,.23-.09.5-.26.83-.26.52-.54,1.03-.81,1.55-.4.74-.79,1.35-1.17,1.82,2.07.45,4.14,1.03,6.22,1.74,1.78.59,3.42.89,4.94.89,1,0,1.85-.14,2.55-.43.08-.03.15-.04.23-.04.34,0,.51.18.51.55,0,.23-.11.38-.32.47ZM67.11,11.27c.14.11.21.25.21.4s-.05.28-.16.39c-.11.11-.23.16-.37.16-.13,0-.25-.04-.36-.13-.19-.15-.63-.44-1.32-.87-.73-.45-1.24-.75-1.51-.89-.2-.1-.3-.25-.3-.44,0-.14.05-.26.16-.38.11-.11.24-.17.39-.17.1,0,.2.03.3.08,1.45.79,2.44,1.41,2.97,1.85ZM77.59,20.92c0,.35-.18.53-.53.53s-.53-.18-.53-.53v-2.67h-2.86v2.52c0,.35-.18.53-.53.53s-.53-.18-.53-.53v-2.52h-2.88c-.11,1.15-.72,2.09-1.82,2.82-.1.06-.21.09-.32.09-.35,0-.53-.17-.53-.51,0-.15.07-.28.21-.38.98-.72,1.48-1.82,1.48-3.29v-4.12c0-.35.18-.53.53-.53h3.16c-.42-.48-.98-.95-1.68-1.42-.16-.1-.25-.23-.25-.4,0-.13.06-.24.17-.35s.24-.16.38-.16c.11,0,.23.04.34.11.63.44,1.22.92,1.76,1.42.44-.26,1.06-.76,1.85-1.49.13-.11.19-.22.19-.32,0-.15-.13-.23-.4-.23h-5.39c-.35,0-.53-.18-.53-.53s.18-.53.53-.53h5.66c.42,0,.76.09,1.02.28s.4.44.4.76c0,.4-.23.83-.68,1.29-.59.59-1.24,1.12-1.95,1.59h3.18c.37,0,.55.18.55.55v8.02ZM72.61,14.75v-1.4h-2.8v1.4h2.8ZM72.61,17.21v-1.42h-2.8v1.42h2.8ZM76.53,14.75v-1.4h-2.86v1.4h2.86ZM76.53,17.21v-1.42h-2.86v1.42h2.86Z"/>
        <path class="cls-2" d="M93.99,15.07c0,2.36-.71,4.28-2.12,5.77-1.48,1.56-3.6,2.5-6.38,2.8-.47.05-.7-.16-.7-.64,0-.32.13-.49.4-.51,2.42-.2,4.31-.99,5.66-2.36,1.3-1.32,1.95-3.01,1.95-5.05,0-1.2-.16-2.18-.49-2.95-.42-.98-1.07-1.48-1.97-1.48-1.45,0-2.75.76-3.9,2.27-1.03,1.38-1.55,2.95-1.55,4.73,0,.3.01.61.04.93.01.15-.05.29-.18.41-.13.12-.28.18-.44.18-.29,0-.46-.17-.51-.51-.23-1.34-.34-2.78-.34-4.33,0-1.9.16-3.79.49-5.66.05-.32.26-.47.62-.47.34,0,.51.14.51.42,0,.05,0,.11-.02.17-.33,1.83-.5,3.68-.53,5.56.2-.49.35-.84.45-1.04.21-.47.41-.82.59-1.06,1.32-1.77,2.91-2.65,4.77-2.65,1.34,0,2.31.59,2.93,1.78.48.92.72,2.16.72,3.71Z"/>
        <path class="cls-2" d="M118.06,20.28c-.49,1.45-1.12,2.78-1.89,3.98-.12.19-.3.29-.53.29-.18,0-.34-.06-.48-.17-.14-.11-.21-.25-.21-.41,0-.13.05-.26.16-.38.22-.27.58-.91,1.07-1.94.49-1.02.73-1.68.73-1.96,0-.3-.18-.45-.53-.45h-5.81v5.63c0,.42-.21.62-.62.62s-.62-.21-.62-.62l.02-4.21c-1.08.77-2.55,1.58-4.41,2.43-1.75.8-3.14,1.32-4.16,1.56-.22.06-.41.02-.56-.12-.15-.14-.22-.31-.22-.5,0-.31.16-.5.47-.58,1.02-.25,2.48-.83,4.36-1.74,1.84-.88,3.33-1.7,4.47-2.47h-6.43c-.42,0-.62-.18-.62-.53,0-.07,0-.16.02-.25l.73-3.4c.07-.31.27-.47.6-.47h5.7v-1.85h-5.74c-.42,0-.62-.21-.62-.65s.21-.62.62-.62h13.35c.42,0,.62.21.62.62v3.12c0,.42-.21.62-.62.62h-6.34v2.16h6.03c1.08,0,1.62.47,1.62,1.42,0,.25-.05.53-.16.85ZM105.99,9.71l.65.94c.04.09.07.17.07.24,0,.34-.22.51-.65.51-.28,0-.47-.12-.58-.36l-.91-1.34c-.22-.01-.6-.02-1.14-.02-.8,1.01-1.59,1.75-2.36,2.23-.12.07-.24.11-.36.11-.4,0-.6-.22-.6-.65,0-.21.1-.37.29-.49.52-.33,1.12-.9,1.8-1.72.68-.82,1.16-1.52,1.42-2.1.1-.24.3-.36.58-.36.47,0,.71.18.71.53,0,.12-.04.24-.13.36-.09.19-.28.5-.58.93h4.56c.37,0,.56.19.56.56,0,.43-.2.65-.6.65l-2.74-.02ZM109.29,18.01v-2.16h-5.19l-.42,2.16h5.61ZM114.9,9.71l.6.94c.04.09.07.17.07.24,0,.34-.22.51-.65.51-.28,0-.48-.12-.58-.36l-.87-1.34-1.51-.02c-.67.82-1.23,1.37-1.69,1.65-.12.07-.24.11-.36.11-.18,0-.33-.07-.47-.21-.13-.14-.2-.29-.2-.46,0-.19.09-.35.27-.47,1.02-.64,1.88-1.72,2.58-3.25.1-.24.3-.36.58-.36.47,0,.71.18.71.53,0,.12-.04.24-.13.36-.01.03-.21.34-.58.93h5.59c.37,0,.56.19.56.56,0,.43-.2.65-.6.65l-3.32-.02ZM116.25,14.6v-1.85h-5.7v1.85h5.7Z"/>
        <path class="cls-2" d="M149.81,8.46v-1.58c0-.45.22-.67.67-.67s.67.22.67.67v1.58h7.48c.45,0,.67.22.67.67s-.22.67-.67.67h-16.29c-.45,0-.67-.22-.67-.67s.22-.67.67-.67h7.48ZM158.52,24.86c0,.45-.22.67-.67.67s-.67-.22-.67-.67v-7.3h-13.42v7.28c0,.45-.22.67-.67.67s-.67-.22-.67-.67v-7.95c0-.44.22-.67.67-.67h14.76c.45,0,.67.22.67.67v7.97ZM155.78,14.54c0,.44-.22.67-.67.67h-9.28c-.45,0-.67-.22-.67-.67v-3.12c0-.45.22-.67.67-.67h9.28c.45,0,.67.22.67.67v3.12ZM154.69,22.84c0,.45-.22.67-.67.67h-7.19c-.45,0-.67-.22-.67-.67v-3.52c0-.44.22-.67.67-.67h7.19c.45,0,.67.22.67.67v3.52ZM154.44,13.87v-1.78h-7.95v1.78h7.95ZM153.35,22.17v-2.18h-5.85v2.18h5.85Z"/>
        <path class="cls-2" d="M181.28,9.64h-14.24v7.61c0,1.33-.29,2.63-.87,3.88s-1.38,2.33-2.4,3.22c-.12.1-.25.16-.4.16-.16,0-.31-.07-.45-.2s-.2-.28-.2-.45c0-.19.08-.36.24-.49.89-.77,1.59-1.74,2.09-2.92.49-1.13.73-2.27.73-3.43v-8.01c0-.42.21-.62.62-.62h6.99v-1.76c0-.42.21-.62.62-.62s.62.21.62.62v1.76h6.63c.42,0,.62.21.62.62s-.21.62-.62.62ZM182.04,24.28c.36.06.53.26.53.6,0,.46-.24.66-.71.6-1.51-.19-2.91-.52-4.18-.98-.37-.15-1.43-.62-3.18-1.4-1.91,1.16-4.41,1.94-7.5,2.36-.22.03-.4-.02-.53-.16-.13-.13-.2-.29-.2-.47,0-.33.17-.51.51-.56,2.51-.34,4.7-.98,6.59-1.91-1.26-.88-2.1-1.54-2.51-1.98-.12-.12-.18-.25-.18-.4,0-.18.07-.33.2-.46s.29-.19.47-.19c.16,0,.31.07.45.2.61.65,1.51,1.36,2.72,2.11.71-.49,1.1-.76,1.16-.82.43-.33.8-.69,1.11-1.09.12-.15.18-.28.18-.4,0-.28-.16-.42-.49-.42h-6.57c-.42,0-.62-.21-.62-.62s.21-.62.62-.62h6.74c1.2,0,1.8.44,1.8,1.31,0,.31-.1.67-.31,1.07-.55.76-1.36,1.52-2.43,2.29,1.17.55,2.11.93,2.83,1.16.93.3,2.11.56,3.52.78ZM181.08,13.42h-3.58v2.47c0,.42-.21.62-.62.62h-5.36c-.42,0-.62-.21-.62-.62v-2.47h-2.89c-.42,0-.62-.21-.62-.62s.21-.62.62-.62h2.89v-1.42c0-.42.21-.62.62-.62s.62.21.62.62v1.42h4.12v-1.4c0-.42.21-.62.62-.62s.62.21.62.62v1.4h3.58c.42,0,.62.21.62.62s-.21.62-.62.62ZM176.25,15.25v-1.83h-4.12v1.83h4.12Z"/>
        <path class="cls-2" d="M204.01,24.57h-16.13c-.45,0-.67-.22-.67-.67v-15.71c0-.45.22-.67.67-.67h15.65c.45,0,.67.22.67.67s-.22.67-.67.67h-14.98v14.38h15.47c.45,0,.67.22.67.67s-.22.67-.67.67ZM195.62,12.47h-3.05c-.3.5-.76,1.22-1.4,2.14-.13.16-.29.25-.47.25s-.33-.07-.47-.21c-.13-.14-.2-.31-.2-.5,0-.16.05-.32.16-.47,1.07-1.42,1.82-2.8,2.25-4.12.1-.31.32-.47.65-.47.45,0,.67.2.67.6,0,.07,0,.15-.02.22-.07.27-.24.67-.51,1.22h7.54c.45,0,.67.22.67.67s-.22.67-.67.67h-3.81v2.65h5.94c.45,0,.67.22.67.67s-.22.67-.67.67h-6.16c-.27,1.74-1.1,3.14-2.49,4.21-1.17.92-2.61,1.51-4.32,1.76-.49.07-.73-.13-.73-.62,0-.37.19-.59.56-.67,1.44-.27,2.64-.76,3.61-1.49,1.11-.83,1.8-1.89,2.05-3.18h-5.52c-.45,0-.67-.22-.67-.67s.22-.67.67-.67h5.74v-2.65ZM202.83,21.41c.25.13.38.33.38.6,0,.45-.21.67-.62.67-.09,0-.19-.02-.29-.07-.73-.31-1.68-.92-2.86-1.83-1.18-.9-1.98-1.64-2.41-2.2-.1-.13-.16-.27-.16-.4,0-.4.24-.6.71-.6.22,0,.41.08.56.24.46.5,1.2,1.15,2.23,1.94,1.02.79,1.85,1.33,2.47,1.65Z"/>
        <path class="cls-2" d="M210.9,11.89c.25.13.38.31.38.53,0,.36-.2.53-.6.53-.12,0-.24-.03-.36-.09l-2.09-.94c-.25-.12-.38-.3-.38-.56,0-.18.06-.34.19-.48.13-.14.28-.21.46-.21.1,0,.21.03.31.09l2.09,1.11ZM210.77,17.5l-1.96.93c-.1.04-.21.07-.31.07-.18,0-.33-.07-.46-.2-.13-.13-.19-.29-.19-.47,0-.25.13-.44.38-.56l2.09-.93c.1-.04.2-.07.29-.07.39,0,.58.2.58.6,0,.28-.14.49-.42.62ZM226.91,9.64h-14.04v7.05c0,3.56-1.3,6.2-3.89,7.92-.12.07-.24.11-.36.11-.18,0-.33-.07-.46-.2-.13-.13-.19-.29-.19-.47,0-.21.1-.38.29-.51,2.21-1.48,3.32-3.84,3.32-7.08v-7.48c0-.43.21-.65.65-.65h6.63v-1.47c0-.43.21-.65.65-.65s.65.22.65.65v1.47h6.77c.43,0,.65.22.65.65s-.22.65-.65.65ZM217.25,22.39c-.31.37-.85.85-1.62,1.44-.77.59-1.41,1-1.91,1.26-.1.04-.21.07-.31.07-.16,0-.31-.07-.43-.2-.13-.13-.19-.28-.19-.45,0-.24.12-.42.36-.53.5-.25,1.09-.63,1.75-1.12.66-.5,1.12-.92,1.39-1.26.13-.16.29-.25.47-.25s.33.06.47.19.2.28.2.46c0,.15-.05.28-.16.4ZM227.04,15.98c.33.07.49.27.49.58,0,.19-.07.36-.21.49-.14.13-.32.18-.55.13-.52-.1-1.47-.46-2.85-1.07v4.09c0,.42-.21.62-.62.62h-2.8v4.47c0,.42-.21.62-.62.62s-.62-.21-.62-.62v-4.47h-2.74c-.42,0-.62-.21-.62-.62v-4.05c-.7.31-1.36.56-1.98.76-.07.03-.15.04-.22.04-.42,0-.62-.21-.62-.62,0-.25.13-.43.4-.53.55-.19,1.34-.51,2.38-.96l-.93-.98c-.16-.13-.24-.3-.24-.49,0-.16.06-.31.18-.45.12-.13.27-.2.45-.2.13,0,.26.05.38.16l1.36,1.36c1.07-.59,1.75-1.22,2.05-1.87h-4.81c-.42,0-.62-.21-.62-.62s.21-.62.62-.62h5.05v-.73c0-.39.21-.58.62-.58s.62.19.62.58v.73h5.03c.42,0,.62.21.62.62s-.21.62-.62.62l-5.16-.02c.83.86,1.71,1.52,2.63,1.98l1.45-1.45c.12-.1.24-.16.38-.16.18,0,.33.07.45.2.12.13.18.28.18.45,0,.19-.08.36-.24.49l-1.02,1.07c.65.3,1.11.5,1.38.6.55.21,1.02.36,1.42.45ZM222.68,17.43v-1.2h-5.54v1.2h5.54ZM222.68,19.72v-1.27h-5.54v1.27h5.54ZM222.03,15.16c-.34-.22-1.07-.79-2.18-1.69-.48.59-1.14,1.16-2,1.69h4.18ZM226.64,23.97c.24.12.36.3.36.53,0,.16-.06.31-.19.45-.13.13-.27.2-.43.2-.1,0-.21-.02-.31-.07-.5-.25-1.14-.67-1.91-1.26-.77-.59-1.31-1.06-1.62-1.44-.1-.12-.16-.25-.16-.4,0-.18.07-.33.2-.46s.29-.19.47-.19.33.08.47.25c.27.34.73.76,1.39,1.26.66.5,1.24.87,1.75,1.12Z"/>
        <path class="cls-2" d="M248.14,11.8c-1.02,2.36-2.72,4.58-5.1,6.65-.1.09-.22.13-.36.13-.18,0-.34-.08-.5-.24s-.23-.34-.23-.53c0-.15.06-.27.18-.38,1.77-1.48,3.2-3.18,4.3-5.1l-14.64,3.29s-.1.02-.16.02c-.33,0-.49-.23-.49-.69,0-.34.14-.55.41-.61.27-.07,2.93-.65,7.98-1.75,4.99-1.08,7.61-1.65,7.88-1.71.07-.03.15-.04.22-.04.16,0,.3.07.42.21.12.14.18.29.18.46,0,.12-.03.22-.09.29ZM248.67,23.73c-2.15.24-3.96.36-5.43.36-1.17,0-2.49-.07-3.94-.2-1.2-.1-2.02-.4-2.45-.89-.55-.61-.81-1.77-.78-3.47l.16-11.39c.03-.4.27-.6.71-.6s.67.2.67.6l-.18,11.39c-.01,1.17.13,1.97.42,2.4.25.36.76.57,1.54.65,1.48.13,2.78.2,3.89.2,1.56,0,3.32-.13,5.27-.4.19-.03.35.03.48.18.13.15.19.33.19.53,0,.39-.19.6-.56.65Z"/>
        <path class="cls-2" d="M271.22,14.71c-4.35,4.61-9.59,7.86-15.73,9.75-.21.06-.39,0-.56-.19-.16-.19-.24-.4-.24-.63,0-.27.12-.44.36-.51,3.34-1.08,6.23-2.41,8.68-3.98,2.69-1.72,4.9-3.55,6.65-5.5.12-.1.24-.16.38-.16.18,0,.33.08.47.23.13.16.2.33.2.52,0,.18-.07.33-.2.47ZM262.25,12.6c.15.13.22.29.22.47,0,.19-.07.37-.22.52-.15.16-.31.23-.49.23-.13,0-.25-.04-.36-.13-1.81-1.71-3.89-3.1-6.23-4.18-.18-.09-.27-.23-.27-.42s.07-.37.21-.53c.14-.16.31-.24.5-.24.09,0,.18.02.27.07,2.64,1.37,4.76,2.77,6.36,4.23Z"/>
        <path class="cls-2" d="M283.1,7.93c-.91,2.48-1.86,4.47-2.87,5.99-1.13,1.68-2.59,3.17-4.38,4.5-.15.12-.3.18-.47.18-.19,0-.36-.07-.49-.21s-.2-.31-.2-.5c0-.24.12-.43.36-.58,1.74-1.32,3.11-2.72,4.13-4.2,1.02-1.48,1.88-3.32,2.59-5.53.15-.28.37-.42.67-.42.47,0,.71.19.71.58,0,.06-.01.13-.04.2ZM291.36,10.75c-.7,3.59-2.08,6.64-4.14,9.15-2.24,2.71-5.02,4.44-8.35,5.16-.07.01-.14.02-.2.02-.46,0-.69-.26-.69-.78,0-.4.15-.62.45-.67,3.32-.52,6.16-2.35,8.5-5.5,1.38-1.85,2.37-4.23,2.98-7.12l-9.04.27.18-1.29c3.13-.1,6.28-.21,9.44-.33.31,0,.55.14.71.41.16.28.22.5.16.68ZM288.04,17.96l-.71,1.16c-1.28-.82-2.43-1.45-3.47-1.91-.93-.42-2.18-.86-3.74-1.33-.22-.07-.33-.21-.33-.42,0-.18.07-.35.22-.52.15-.17.32-.26.51-.26.06,0,.12.02.18.04,1.65.52,2.9.96,3.76,1.33.99.43,2.19,1.07,3.58,1.91Z"/>
        <path class="cls-2" d="M312.52,16.18h-16.36c-.45,0-.67-.22-.67-.67s.22-.67.67-.67h16.36c.45,0,.67.22.67.67s-.22.67-.67.67Z"/>
      </g>
      <path class="cls-1" d="M135.82,23.05h-9.49l5.82-4.9c1.82-1.56,3.9-3.64,3.9-5.9,0-3.22-2.69-5.47-6.55-5.47-3.59,0-6.3,2.15-6.46,5.13,0,.2.07.4.21.54.16.17.41.27.66.27h.16c.39,0,.86-.32.88-.76.1-1.98,2.01-3.41,4.55-3.41,2.77,0,4.63,1.49,4.63,3.7,0,1.54-1.77,3.25-3.31,4.58l-7.32,6.25c-.17.14-.41.49-.41.79v.14c0,.39.35.82.85.82h11.88c.51,0,.85-.44.85-.91,0-.41-.34-.86-.85-.86Z"/>
    </g>
  </g>
</svg>