<?xml version="1.0" encoding="UTF-8"?>
<svg id="_レイヤー_2" data-name="レイヤー 2" xmlns="http://www.w3.org/2000/svg" viewBox="0 0 176.11 30.97">
  <defs>
    <style>
      .cls-1 {
        fill: #231815;
        stroke: #231815;
        stroke-linecap: round;
        stroke-linejoin: round;
        stroke-width: .38px;
      }

      .cls-2 {
        fill: #fff;
        opacity: .7;
      }
    </style>
  </defs>
  <g id="_画像" data-name="画像">
    <rect class="cls-2" width="176.11" height="30.97"/>
    <g>
      <path class="cls-1" d="M17.4,11.98h-7.32c-.45,0-.67-.22-.67-.67s.22-.67.67-.67h7.32v-3.67c0-.44.22-.67.67-.67s.67.22.67.67v3.67h7.39c.45,0,.67.22.67.67s-.22.67-.67.67h-7.39v.65c.96,1.28,2.24,2.64,3.83,4.09,1.85,1.69,3.49,2.86,4.92,3.52.28.13.42.35.42.65,0,.18-.06.34-.19.49-.13.15-.28.22-.46.22-.1,0-.21-.02-.31-.07-1.25-.59-2.71-1.6-4.38-3.03-1.47-1.26-2.75-2.51-3.83-3.76v5.1h3.36c.45,0,.67.22.67.67s-.22.67-.67.67h-3.36v4.01c0,.45-.22.67-.67.67s-.67-.22-.67-.67v-4.01h-3.34c-.45,0-.67-.22-.67-.67s.22-.67.67-.67h3.34v-5.07c-1.32,1.47-2.7,2.83-4.14,4.09-1.68,1.47-3.05,2.46-4.12,2.96-.1.04-.21.07-.31.07-.18,0-.33-.07-.47-.21-.13-.14-.2-.31-.2-.5,0-.27.13-.47.4-.6,1.22-.62,2.79-1.82,4.72-3.58,1.82-1.66,3.2-3.12,4.12-4.36v-.65Z"/>
      <path class="cls-1" d="M32.75,23.62c.03.19-.02.35-.14.48-.13.13-.28.19-.46.19-.27,0-.42-.13-.47-.4l-.65-3.54c-.03-.19.01-.35.13-.48.12-.13.27-.19.45-.19.28,0,.45.13.49.4l.65,3.54ZM36.58,10.48h2.03c.45,0,.67.22.67.65s-.22.67-.67.67h-2.03v1.85h1.98c.45,0,.67.22.67.65s-.22.67-.67.67h-1.98v1.98h1.69c1.14,0,1.71.52,1.71,1.56,0,.15-.01.3-.04.47-.3,2.09-.81,4.15-1.54,6.19-.1.3-.31.45-.62.45-.47,0-.71-.21-.71-.62,0-.07.01-.15.04-.22.79-2.3,1.25-4.2,1.38-5.7.06-.22.09-.37.09-.45,0-.22-.18-.33-.53-.33h-5.16c-.49,0-.73-.22-.73-.67V7.99c0-.45.22-.67.67-.67h6.34c.45,0,.67.22.67.67s-.22.67-.67.67h-2.58v1.83ZM34.49,23.17c.04.21,0,.38-.12.52-.13.14-.28.21-.46.21-.27,0-.43-.14-.49-.42l-.67-3.38c-.04-.21,0-.38.12-.52.13-.14.28-.21.46-.21.27,0,.43.14.49.42l.67,3.38ZM33.42,10.48h1.85v-1.83h-1.85v1.83ZM35.27,11.8h-1.85v1.85h1.85v-1.85ZM35.27,14.96h-1.85v1.98h1.85v-1.98ZM36.14,22.66c.04.19.01.35-.1.48-.11.13-.25.19-.41.19-.3,0-.48-.16-.56-.49l-.65-2.87c-.04-.21,0-.38.12-.52.13-.14.28-.21.46-.21.27,0,.43.14.49.42l.65,3ZM37.69,21.72c.04.21,0,.38-.11.51-.12.13-.26.2-.42.2-.25,0-.41-.13-.47-.4l-.58-2.38c-.04-.19,0-.35.11-.48.12-.13.27-.19.45-.19.28,0,.45.14.51.42l.51,2.31ZM49.38,19.76c0,1.71-.54,3.06-1.61,4.07-1.08,1.01-2.47,1.51-4.2,1.51-.45,0-.67-.23-.67-.69s.22-.71.67-.71c1.32,0,2.4-.4,3.23-1.19.83-.79,1.25-1.83,1.25-3.1v-7.99c0-.53-.26-.8-.78-.8h-5.92c-.39.79-.9,1.58-1.54,2.38-.13.16-.3.25-.49.25-.18,0-.34-.07-.48-.21-.14-.14-.21-.3-.21-.48,0-.16.06-.31.18-.45.53-.65,1.09-1.57,1.67-2.76.53-1.08.9-2.01,1.11-2.78.09-.33.3-.49.62-.49.46,0,.69.21.69.64,0,.22-.31,1.08-.93,2.56h5.3c.58,0,1.06.16,1.45.49.45.37.67.9.67,1.58v8.17ZM46.17,19.21c0,.45-.22.67-.67.67h-4.07c-.45,0-.67-.22-.67-.67v-5.25c0-.45.22-.67.67-.67h4.07c.45,0,.67.22.67.67v5.25ZM44.84,18.54v-3.92h-2.74v3.92h2.74Z"/>
      <path class="cls-1" d="M56.3,20.5c2.2.49,4.5,1.14,6.9,1.96,2.06.7,4.16,1.05,6.3,1.05,1.29,0,2.34-.17,3.16-.51.09-.04.19-.07.29-.07.18,0,.33.07.46.22.13.15.19.31.19.49,0,.28-.13.48-.4.6-.92.39-2.12.58-3.61.58-2.4,0-4.68-.37-6.83-1.11-3.31-1.13-5.79-1.76-7.43-1.89l-.69.89c-.19.25-.4.38-.62.38-.4,0-.6-.23-.6-.69,0-.19.07-.37.2-.53,1.6-1.94,2.86-3.78,3.76-5.5.03-.07.04-.14.04-.2,0-.15-.08-.27-.23-.37-.16-.1-.31-.19-.46-.28-.43-.28-1.15-.61-2.16-.98-.27-.12-.4-.31-.4-.58,0-.46.21-.69.65-.69.09,0,.19.02.29.07.53.21,1.28.54,2.25,1,.55.33.93.58,1.14.76.27.25.4.53.4.85,0,.27-.1.59-.31.98-.59,1.14-1.35,2.34-2.27,3.58ZM58.86,9.86c.16.15.24.32.24.51,0,.18-.06.33-.19.47-.13.13-.28.2-.46.2-.16,0-.31-.05-.45-.16-.22-.18-.75-.53-1.58-1.05-.83-.52-1.41-.86-1.74-1.02-.25-.12-.38-.3-.38-.56,0-.18.07-.34.2-.48.13-.14.3-.21.49-.21.12,0,.24.03.36.09,1.78.99,2.95,1.73,3.49,2.2ZM65.2,11.35c-.27-.73-.45-1.4-.56-2.03h-2.76c-.45,0-.67-.22-.67-.67s.22-.67.67-.67h3.34c.4,0,.62.21.67.62.13,1.39.75,3.12,1.85,5.19,1.39,2.63,3.06,4.58,5.01,5.85.18.12.27.28.27.49,0,.19-.07.36-.2.51s-.29.22-.47.22c-.12,0-.24-.04-.36-.11-2.73-1.9-4.77-4.49-6.12-7.77-.82,1.42-1.82,2.82-3.03,4.18-1.29,1.47-2.46,2.5-3.52,3.09-.12.06-.24.09-.36.09-.18,0-.33-.07-.47-.2-.13-.13-.2-.29-.2-.47,0-.25.12-.45.36-.58,1.14-.7,2.43-1.92,3.87-3.67,1.35-1.65,2.24-3.01,2.67-4.09Z"/>
      <path class="cls-1" d="M96.65,14.69c-.71,4.21-1.8,7.5-3.25,9.86-.13.21-.32.31-.56.31-.45,0-.67-.2-.67-.6,0-.12.04-.25.11-.38,1.51-2.67,2.55-5.78,3.12-9.33.01-.12.02-.23.02-.33,0-.71-.33-1.07-1-1.07h-1.78c-1.19,5.19-3.46,9.26-6.83,12.2-.12.1-.24.16-.38.16-.18,0-.33-.07-.47-.21-.13-.14-.2-.29-.2-.46,0-.19.08-.35.24-.47.28-.21.7-.62,1.25-1.22l-7.17.53c-.45.03-.67-.18-.67-.62,0-.39.19-.59.58-.62l3.89-.29v-1.56h-3.32c-.4,0-.6-.2-.6-.6,0-.43.22-.65.65-.65h3.27v-1.07h-3.03c-.42,0-.62-.21-.62-.62v-4.87c0-.42.21-.62.62-.62h3.03v-1.09h-4.12c-.42,0-.62-.21-.62-.62s.21-.62.62-.62h4.12v-1.16c-.79.1-1.82.21-3.09.31-.46.04-.69-.16-.69-.62,0-.36.19-.56.56-.6,3.53-.36,5.85-.76,6.94-1.22.09-.03.17-.04.24-.04.4,0,.6.21.6.65,0,.27-.13.45-.4.56-.8.33-1.76.58-2.87.76v1.38h3.87c.42,0,.62.21.62.62s-.21.62-.62.62h-3.87v1.09h3.12c.42,0,.62.21.62.62v4.87c0,.42-.21.62-.62.62h-3.12v1.07h3.23c.4,0,.6.2.6.6,0,.43-.22.65-.65.65h-3.18v1.42l3.2-.22c1.74-2.21,3.04-5.08,3.92-8.61h-2.4c-.42,0-.62-.21-.62-.62s.21-.62.62-.62h2.72c.34-2.14.52-3.79.53-4.96,0-.38.2-.58.6-.58.43,0,.65.21.67.65.01.95-.15,2.57-.49,4.87h1.74c.67,0,1.17.2,1.51.61.34.41.51.93.51,1.57,0,.19-.01.39-.04.6ZM82.89,14.67v-1.29h-2.38v1.29h2.38ZM82.89,17.09v-1.29h-2.38v1.29h2.38ZM86.65,14.67v-1.29h-2.47v1.29h2.47ZM86.65,17.09v-1.29h-2.47v1.29h2.47Z"/>
      <path class="cls-1" d="M107.8,16.63l-2.09.62c-.01,2.2-.22,3.8-.62,4.81-.53,1.39-1.6,2.43-3.2,3.09-.07.03-.15.04-.22.04-.39,0-.58-.22-.58-.67,0-.3.13-.5.4-.6,1.26-.5,2.11-1.32,2.54-2.45.28-.77.43-2.05.45-3.83l-2.8.8c-.06.01-.13.02-.2.02-.4,0-.6-.21-.6-.65,0-.3.15-.49.45-.58l3.18-.96v-3.92h-1.96c-.59,1.44-1.09,2.16-1.49,2.16-.16,0-.31-.06-.43-.19-.13-.13-.19-.27-.19-.43,0-.13.04-.27.13-.4.4-.53.76-1.31,1.09-2.33.33-1.02.54-1.99.65-2.93.04-.37.25-.56.62-.56.47,0,.68.23.62.69-.15,1.16-.33,2.07-.53,2.74h1.49v-4.23c0-.42.21-.62.62-.62s.62.21.62.62v4.23h1.45c.42,0,.62.21.62.62s-.21.62-.62.62h-1.45v3.52l1.71-.47c.06-.01.12-.02.18-.02.42,0,.62.22.62.65,0,.3-.15.49-.45.58ZM119.15,15.83c-1.77,4.32-3.46,7.45-5.1,9.39-.13.15-.28.22-.45.22-.18,0-.33-.06-.47-.19-.13-.13-.2-.28-.2-.46,0-.13.05-.26.16-.38.86-1.02,1.79-2.51,2.8-4.45.85-1.62,1.51-3.09,2-4.41.28-.76.42-1.21.42-1.36,0-.36-.3-.67-.91-.96l-.69-.25c-.8,1.84-1.95,3.95-3.44,6.33-1.49,2.38-2.76,4.11-3.79,5.2-.13.13-.28.2-.45.2-.18,0-.33-.07-.47-.2s-.2-.29-.2-.47c0-.16.06-.3.18-.42,1.02-1.02,2.26-2.69,3.69-5.01,1.42-2.27,2.51-4.29,3.27-6.05l-1.91-.69c-.65,1.51-1.68,3.35-3.07,5.51-1.39,2.16-2.63,3.82-3.69,4.97-.13.13-.28.2-.45.2-.18,0-.33-.07-.47-.2-.13-.13-.2-.29-.2-.47,0-.13.05-.26.16-.38,1.1-1.19,2.31-2.8,3.65-4.83,1.34-2.03,2.31-3.77,2.92-5.21l-1.69-.45c-.55.91-1.5,2.15-2.85,3.74-.13.15-.28.22-.45.22s-.31-.06-.43-.18c-.13-.12-.19-.25-.19-.4s.06-.28.18-.4c.7-.68,1.51-1.74,2.43-3.18.92-1.44,1.57-2.66,1.94-3.67.1-.28.29-.42.56-.42.42,0,.62.2.62.6,0,.07-.01.16-.04.25-.27.71-.65,1.51-1.14,2.38l5.99,1.89c1.47.46,2.2,1.19,2.2,2.2,0,.48-.14,1.06-.42,1.76Z"/>
      <path class="cls-1" d="M141.98,9.8h-13.8v8.41c0,1.62-.46,3.04-1.38,4.27-.83,1.13-1.88,1.9-3.16,2.31-.07.03-.14.04-.2.04-.39,0-.58-.21-.58-.62,0-.28.14-.47.42-.58,1.04-.37,1.89-1.03,2.56-1.98.71-1.04,1.07-2.24,1.07-3.61v-8.88c0-.42.21-.62.62-.62h6.81v-1.89c0-.42.21-.62.65-.62s.62.21.62.62v1.89h6.36c.42,0,.62.21.62.62s-.21.62-.62.62ZM126.18,17.58l-2.36,1.13c-.09.04-.19.07-.29.07-.4,0-.6-.21-.6-.64,0-.24.12-.42.36-.53l2.36-1.14c.09-.04.19-.07.29-.07.4,0,.6.21.6.65,0,.24-.12.42-.36.53ZM126.22,12.09c.22.12.33.29.33.51,0,.43-.21.65-.62.65-.12,0-.23-.03-.33-.09l-2.16-1.2c-.22-.12-.33-.29-.33-.51,0-.43.21-.65.62-.65.12,0,.23.03.33.09l2.16,1.2ZM141.98,12.84h-5.99v2.56h5.19c.42,0,.62.21.62.62v8.86c0,.42-.21.62-.62.62s-.62-.21-.62-.62v-8.21h-4.61c0,.06-.04.28-.13.65,1.04,1.4,2.34,2.5,3.89,3.32.22.12.33.29.33.51,0,.45-.21.67-.62.67-.1,0-.22-.04-.33-.11-1.69-1.02-2.95-2.06-3.76-3.12-.8,1.66-2.04,2.69-3.72,3.09-.21.04-.38,0-.52-.12-.14-.13-.21-.29-.21-.5,0-.31.16-.5.47-.58.79-.19,1.48-.61,2.07-1.25.67-.71,1.07-1.57,1.2-2.56h-4.21v7.88c0,.42-.21.62-.62.62s-.65-.21-.65-.62v-8.52c0-.42.21-.62.62-.62h4.92v-2.56h-5.27c-.42,0-.62-.21-.62-.62s.21-.62.62-.62h12.57c.42,0,.62.21.62.62s-.21.62-.62.62Z"/>
      <path class="cls-1" d="M151.22,13.56l-.71,1.02c-.13.19-.3.29-.51.29-.18,0-.34-.07-.48-.21-.14-.14-.21-.3-.21-.48,0-.16.06-.31.18-.45.58-.68,1.32-1.93,2.23-3.74.1-.19.16-.38.16-.56,0-.36-.19-.53-.56-.53h-3.96c-.42,0-.62-.23-.62-.69,0-.43.21-.65.62-.65h4.38c1.07,0,1.6.51,1.6,1.54,0,.48-.13.97-.4,1.49-.21.43-.53,1.04-.96,1.83,1.11,1.22,1.67,2.58,1.67,4.09,0,1.11-.32,2.06-.95,2.84-.63.78-1.44,1.17-2.41,1.17-.49,0-.99-.1-1.51-.31v4.79c0,.44-.22.67-.65.67s-.65-.22-.65-.67v-15.07c0-.44.21-.67.65-.67s.65.22.65.67v8.88c.46.24.9.36,1.34.36.65,0,1.19-.28,1.6-.85.39-.52.58-1.17.58-1.96,0-1.07-.36-2-1.07-2.8ZM158.18,18.54c-.16,1.65-.84,3.14-2.03,4.47-1.31,1.48-2.89,2.32-4.76,2.52-.24.03-.42-.03-.56-.17-.13-.14-.2-.32-.2-.52,0-.37.19-.59.58-.65,1.6-.24,2.95-.96,4.03-2.16.96-1.1,1.5-2.29,1.6-3.58.03-.42.25-.62.67-.62.49,0,.71.24.67.71ZM158.65,9.24v-1.98c0-.45.22-.67.67-.67s.67.22.67.67v1.98h4.61c.45,0,.67.22.67.67v2.74c0,.44-.22.67-.67.67s-.67-.22-.67-.67v-2.07h-8.95v2.09c0,.45-.22.67-.67.67s-.67-.22-.67-.67v-2.76c0-.45.22-.67.67-.67h4.34ZM159.81,17.52h-5.27c-.45,0-.67-.22-.67-.67s.22-.67.67-.67h10.3c.45,0,.67.22.67.67s-.22.67-.67.67h-3.69v4.76c0,.43.1.76.31.98.13.15.39.3.76.47.47.19,1.06.29,1.76.29.21,0,.5-.03.88-.1.38-.07.65-.1.81-.1.4,0,.6.22.6.67,0,.37-.18.6-.53.69-.55.15-1.15.22-1.8.22-.74,0-1.44-.09-2.09-.27-1.35-.46-2.03-1.29-2.03-2.49v-5.12ZM162.72,13.91h-6.68c-.45,0-.67-.22-.67-.67s.22-.67.67-.67h6.68c.45,0,.67.22.67.67s-.22.67-.67.67Z"/>
    </g>
  </g>
</svg>