<?xml version="1.0" encoding="UTF-8"?>
<svg id="_レイヤー_2" data-name="レイヤー 2" xmlns="http://www.w3.org/2000/svg" viewBox="0 0 277.61 18.02">
  <defs>
    <style>
      .cls-1 {
        fill: #231815;
        stroke: #231815;
        stroke-linecap: round;
        stroke-linejoin: round;
        stroke-width: .38px;
      }
    </style>
  </defs>
  <g id="_画像" data-name="画像">
    <g>
      <path class="cls-1" d="M16.34,10.32c-.31.03-2.9.35-7.76.94-4.86.59-7.44.91-7.75.95-.19.03-.34-.02-.46-.15-.12-.13-.18-.28-.18-.45,0-.31.17-.49.52-.56,4.96-.6,10.12-1.23,15.48-1.88.19-.01.34.04.45.17s.17.28.17.45c0,.32-.16.5-.47.53ZM14.78,5.01c-.31.03-2.52.26-6.61.7-4.13.45-6.34.7-6.62.74-.36.05-.54-.13-.54-.56,0-.32.14-.51.42-.58.2-.03,2.41-.27,6.62-.73,4.21-.46,6.42-.7,6.62-.71.39-.04.58.14.58.54,0,.37-.16.57-.47.6ZM10.21,16.93c.04.19,0,.34-.14.45-.13.11-.3.17-.5.17-.36,0-.56-.15-.6-.46-.05-.37-.41-2.96-1.06-7.76-.65-4.92-.99-7.51-1.02-7.78-.04-.4.18-.6.66-.6.36,0,.55.15.58.44.67,4.97,1.36,10.15,2.08,15.54Z"/>
      <path class="cls-1" d="M35.33,15.37c-.24.43-.52.64-.84.64h-11.38c-.52,0-.81-.27-.88-.82V4.05c.36-.4.63-.6.8-.6h11.46c.4,0,.68.21.84.62v11.3ZM34.07,14.87V4.61h-10.64v10.26h10.64Z"/>
      <path class="cls-1" d="M55.73,15.37c-.24.43-.52.64-.84.64h-11.38c-.52,0-.81-.27-.88-.82V4.05c.36-.4.63-.6.8-.6h11.46c.4,0,.68.21.84.62v11.3ZM54.47,14.87V4.61h-10.64v10.26h10.64Z"/>
      <path class="cls-1" d="M77.93,7.97c-.64,3.79-1.61,6.74-2.92,8.86-.12.19-.29.28-.5.28-.4,0-.6-.18-.6-.54,0-.11.03-.22.1-.34,1.36-2.4,2.29-5.19,2.8-8.38.01-.11.02-.21.02-.3,0-.64-.3-.96-.9-.96h-1.6c-1.07,4.67-3.11,8.32-6.14,10.96-.11.09-.22.14-.34.14-.16,0-.3-.06-.42-.19-.12-.13-.18-.26-.18-.41,0-.17.07-.31.22-.42.25-.19.63-.55,1.12-1.1l-6.44.48c-.4.03-.6-.16-.6-.56,0-.35.17-.53.52-.56l3.5-.26v-1.4h-2.98c-.36,0-.54-.18-.54-.54,0-.39.19-.58.58-.58h2.94v-.96h-2.72c-.37,0-.56-.19-.56-.56v-4.38c0-.37.19-.56.56-.56h2.72v-.98h-3.7c-.37,0-.56-.19-.56-.56s.19-.56.56-.56h3.7v-1.04c-.71.09-1.63.19-2.78.28-.41.04-.62-.15-.62-.56,0-.32.17-.5.5-.54,3.17-.32,5.25-.69,6.24-1.1.08-.03.15-.04.22-.04.36,0,.54.19.54.58,0,.24-.12.41-.36.5-.72.29-1.58.52-2.58.68v1.24h3.48c.37,0,.56.19.56.56s-.19.56-.56.56h-3.48v.98h2.8c.37,0,.56.19.56.56v4.38c0,.37-.19.56-.56.56h-2.8v.96h2.9c.36,0,.54.18.54.54,0,.39-.19.58-.58.58h-2.86v1.28l2.88-.2c1.56-1.99,2.73-4.57,3.52-7.74h-2.16c-.37,0-.56-.19-.56-.56s.19-.56.56-.56h2.44c.31-1.92.47-3.41.48-4.46,0-.35.18-.52.54-.52.39,0,.59.19.6.58.01.85-.13,2.31-.44,4.38h1.56c.6,0,1.05.18,1.36.55.31.37.46.84.46,1.41,0,.17-.01.35-.04.54ZM65.57,7.95v-1.16h-2.14v1.16h2.14ZM65.57,10.13v-1.16h-2.14v1.16h2.14ZM68.95,7.95v-1.16h-2.22v1.16h2.22ZM68.95,10.13v-1.16h-2.22v1.16h2.22Z"/>
      <path class="cls-1" d="M87.95,9.71l-1.88.56c-.01,1.97-.2,3.41-.56,4.32-.48,1.25-1.44,2.18-2.88,2.78-.07.03-.13.04-.2.04-.35,0-.52-.2-.52-.6,0-.27.12-.45.36-.54,1.13-.45,1.89-1.19,2.28-2.2.25-.69.39-1.84.4-3.44l-2.52.72c-.05.01-.11.02-.18.02-.36,0-.54-.19-.54-.58,0-.27.13-.44.4-.52l2.86-.86v-3.52h-1.76c-.53,1.29-.98,1.94-1.34,1.94-.15,0-.28-.06-.39-.17-.11-.11-.17-.24-.17-.39,0-.12.04-.24.12-.36.36-.48.69-1.18.98-2.09.29-.91.49-1.79.58-2.63.04-.33.23-.5.56-.5.43,0,.61.21.56.62-.13,1.04-.29,1.86-.48,2.46h1.34V.97c0-.37.19-.56.56-.56s.56.19.56.56v3.8h1.3c.37,0,.56.19.56.56s-.19.56-.56.56h-1.3v3.16l1.54-.42c.05-.01.11-.02.16-.02.37,0,.56.19.56.58,0,.27-.13.44-.4.52ZM98.15,8.99c-1.59,3.88-3.11,6.69-4.58,8.44-.12.13-.25.2-.4.2-.16,0-.3-.06-.42-.17-.12-.11-.18-.25-.18-.41,0-.12.05-.23.14-.34.77-.92,1.61-2.25,2.52-4,.76-1.45,1.36-2.77,1.8-3.96.25-.68.38-1.09.38-1.22,0-.32-.27-.61-.82-.86l-.62-.22c-.72,1.65-1.75,3.55-3.09,5.69s-2.48,3.7-3.41,4.67c-.12.12-.25.18-.4.18-.16,0-.3-.06-.42-.18s-.18-.26-.18-.42c0-.15.05-.27.16-.38.92-.92,2.03-2.42,3.32-4.5,1.28-2.04,2.26-3.85,2.94-5.44l-1.72-.62c-.59,1.36-1.51,3.01-2.76,4.95-1.25,1.94-2.36,3.43-3.32,4.47-.12.12-.25.18-.4.18-.16,0-.3-.06-.42-.18-.12-.12-.18-.26-.18-.42,0-.12.05-.23.14-.34.99-1.07,2.08-2.51,3.28-4.34,1.2-1.83,2.07-3.39,2.62-4.68l-1.52-.4c-.49.81-1.35,1.93-2.56,3.36-.12.13-.25.2-.4.2s-.28-.05-.39-.16-.17-.23-.17-.36.05-.25.16-.36c.63-.61,1.35-1.57,2.18-2.86s1.41-2.39,1.74-3.3c.09-.25.26-.38.5-.38.37,0,.56.18.56.54,0,.07-.01.14-.04.22-.24.64-.58,1.35-1.02,2.14l5.38,1.7c1.32.41,1.98,1.07,1.98,1.98,0,.43-.13.95-.38,1.58Z"/>
      <path class="cls-1" d="M118.67,3.57h-12.4v7.56c0,1.45-.41,2.73-1.24,3.84-.75,1.01-1.69,1.71-2.84,2.08-.07.03-.13.04-.18.04-.35,0-.52-.19-.52-.56,0-.25.13-.43.38-.52.93-.33,1.7-.93,2.3-1.78.64-.93.96-2.01.96-3.24V3.01c0-.37.19-.56.56-.56h6.12V.75c0-.37.19-.56.58-.56s.56.19.56.56v1.7h5.72c.37,0,.56.19.56.56s-.19.56-.56.56ZM104.47,10.57l-2.12,1.02c-.08.04-.17.06-.26.06-.36,0-.54-.19-.54-.58,0-.21.11-.37.32-.48l2.12-1.02c.08-.04.17-.06.26-.06.36,0,.54.19.54.58,0,.21-.11.37-.32.48ZM104.51,5.63c.2.11.3.26.3.46,0,.39-.19.58-.56.58-.11,0-.21-.03-.3-.08l-1.94-1.08c-.2-.11-.3-.26-.3-.46,0-.39.19-.58.56-.58.11,0,.21.03.3.08l1.94,1.08ZM118.67,6.31h-5.38v2.3h4.66c.37,0,.56.19.56.56v7.96c0,.37-.19.56-.56.56s-.56-.19-.56-.56v-7.38h-4.14c0,.05-.04.25-.12.58.93,1.25,2.1,2.25,3.5,2.98.2.11.3.26.3.46,0,.4-.19.6-.56.6-.09,0-.19-.03-.3-.1-1.52-.92-2.65-1.85-3.38-2.8-.72,1.49-1.83,2.42-3.34,2.78-.19.04-.34,0-.47-.11-.13-.11-.19-.26-.19-.45,0-.28.14-.45.42-.52.71-.17,1.33-.55,1.86-1.12.6-.64.96-1.41,1.08-2.3h-3.78v7.08c0,.37-.19.56-.56.56s-.58-.19-.58-.56v-7.66c0-.37.19-.56.56-.56h4.42v-2.3h-4.74c-.37,0-.56-.19-.56-.56s.19-.56.56-.56h11.3c.37,0,.56.19.56.56s-.19.56-.56.56Z"/>
      <path class="cls-1" d="M126.57,6.95l-.64.92c-.12.17-.27.26-.46.26-.16,0-.3-.06-.43-.19-.13-.13-.19-.27-.19-.43,0-.15.05-.28.16-.4.52-.61,1.19-1.73,2-3.36.09-.17.14-.34.14-.5,0-.32-.17-.48-.5-.48h-3.56c-.37,0-.56-.21-.56-.62,0-.39.19-.58.56-.58h3.94c.96,0,1.44.46,1.44,1.38,0,.43-.12.87-.36,1.34-.19.39-.47.93-.86,1.64,1,1.09,1.5,2.32,1.5,3.68,0,1-.28,1.85-.85,2.55-.57.7-1.29,1.05-2.17,1.05-.44,0-.89-.09-1.36-.28v4.3c0,.4-.19.6-.58.6s-.58-.2-.58-.6V3.69c0-.4.19-.6.58-.6s.58.2.58.6v7.98c.41.21.81.32,1.2.32.59,0,1.07-.25,1.44-.76.35-.47.52-1.05.52-1.76,0-.96-.32-1.8-.96-2.52ZM132.83,11.43c-.15,1.48-.75,2.82-1.82,4.02-1.17,1.33-2.6,2.09-4.28,2.26-.21.03-.38-.02-.5-.15-.12-.13-.18-.28-.18-.47,0-.33.17-.53.52-.58,1.44-.21,2.65-.86,3.62-1.94.87-.99,1.35-2.06,1.44-3.22.03-.37.23-.56.6-.56.44,0,.64.21.6.64ZM133.25,3.07v-1.78c0-.4.2-.6.6-.6s.6.2.6.6v1.78h4.14c.4,0,.6.2.6.6v2.46c0,.4-.2.6-.6.6s-.6-.2-.6-.6v-1.86h-8.04v1.88c0,.4-.2.6-.6.6s-.6-.2-.6-.6v-2.48c0-.4.2-.6.6-.6h3.9ZM134.29,10.51h-4.74c-.4,0-.6-.2-.6-.6s.2-.6.6-.6h9.26c.4,0,.6.2.6.6s-.2.6-.6.6h-3.32v4.28c0,.39.09.68.28.88.12.13.35.27.68.42.43.17.95.26,1.58.26.19,0,.45-.03.79-.09.34-.06.58-.09.73-.09.36,0,.54.2.54.6,0,.33-.16.54-.48.62-.49.13-1.03.2-1.62.2-.67,0-1.29-.08-1.88-.24-1.21-.41-1.82-1.16-1.82-2.24v-4.6ZM136.91,7.27h-6c-.4,0-.6-.2-.6-.6s.2-.6.6-.6h6c.4,0,.6.2.6.6s-.2.6-.6.6Z"/>
      <path class="cls-1" d="M155.66,2.5c-.9.55-1.63,1.39-2.19,2.51-.61,1.21-.91,2.52-.91,3.95s.3,2.8.91,4.06c.58,1.19,1.29,2.04,2.14,2.54.14.09.21.2.21.34,0,.29-.13.43-.4.43-.07,0-.15-.02-.22-.06-.96-.55-1.77-1.49-2.42-2.8-.7-1.4-1.06-2.9-1.06-4.51s.35-3.05,1.04-4.38c.64-1.26,1.47-2.19,2.48-2.78.07-.04.14-.06.21-.06.28,0,.42.14.42.43,0,.14-.07.25-.21.34Z"/>
      <path class="cls-1" d="M172.43,14.19c.16.09.24.21.24.37,0,.12-.05.23-.14.33s-.2.15-.33.15c-.06,0-.13-.02-.19-.05-2.44-1.06-4.45-2.41-6.02-4.05v4.66c0,.3-.15.45-.45.45-.28,0-.42-.14-.42-.43v-4.7c-.89.93-1.8,1.71-2.74,2.35-.84.58-1.89,1.15-3.14,1.73-.06.03-.13.05-.21.05-.13,0-.24-.05-.33-.15-.09-.1-.14-.21-.14-.33,0-.17.08-.29.26-.37,1.62-.68,3.31-1.76,5.07-3.25h-2.75c-.3,0-.45-.15-.45-.45v-4.35c0-.3.15-.45.45-.45h3.95v-1.07h-5.26c-.3,0-.45-.15-.45-.45s.15-.45.45-.45h5.26v-1.33c0-.3.15-.45.45-.45s.45.15.45.45v1.33h5.41c.3,0,.45.15.45.45s-.15.45-.45.45h-5.41v1.07h4.02c.3,0,.45.15.45.45v4.35c0,.3-.15.45-.45.45h-2.9c.68.63,1.53,1.24,2.54,1.82.35.2,1.27.68,2.75,1.42ZM165.11,7.83v-1.22h-3.49v1.22h3.49ZM165.11,10.07v-1.34h-3.49v1.34h3.49ZM169.56,7.83v-1.22h-3.55v1.22h3.55ZM169.56,10.07v-1.34h-3.55v1.34h3.55Z"/>
      <path class="cls-1" d="M188.54,5.25h-13.1c-.32,0-.48-.16-.48-.48s.16-.48.48-.48h5.81v-1.68c0-.32.16-.48.48-.48s.48.16.48.48v1.68h6.34c.32,0,.48.16.48.48s-.16.48-.48.48ZM179.53,12.03c-.31.47-.79,1.02-1.44,1.66-.68.68-1.27,1.18-1.78,1.5-.09.05-.18.08-.27.08-.14,0-.26-.05-.36-.15-.1-.1-.15-.22-.15-.34,0-.16.07-.29.22-.38.47-.3,1.01-.75,1.62-1.34.61-.6,1.06-1.11,1.34-1.54.1-.15.23-.22.4-.22.13,0,.25.04.35.14.11.09.16.2.16.33,0,.1-.03.19-.1.27ZM186.44,10.43c0,.32-.16.48-.48.48h-3.76v4.91c0,.32-.16.48-.48.48s-.48-.16-.48-.48v-4.91h-3.6c-.32,0-.48-.16-.48-.48v-3.54c0-.32.16-.48.48-.48h8.32c.32,0,.48.16.48.48v3.54ZM185.48,9.95v-2.58h-7.36v2.58h7.36ZM187.77,14.4c.15.1.22.22.22.38,0,.13-.05.24-.15.34-.1.1-.22.15-.36.15-.1,0-.19-.03-.27-.08-.51-.32-1.11-.82-1.81-1.5-.68-.65-1.17-1.21-1.47-1.66-.06-.08-.1-.18-.1-.27,0-.13.05-.24.16-.33.11-.09.22-.14.35-.14.17,0,.3.07.4.22.27.43.73.94,1.38,1.55.62.58,1.17,1.02,1.65,1.33Z"/>
      <path class="cls-1" d="M199.23,7.97h-2.88c-.58.49-1.01.84-1.31,1.06h3.2c.3,0,.45.15.45.45v5.44c0,.3-.15.45-.45.45h-4.16c-.3,0-.45-.15-.45-.45v-4.88c-.48.34-1.05.66-1.7.96-.1.04-.19.06-.29.06-.29,0-.43-.15-.43-.45,0-.2.09-.35.27-.43.96-.45,2.12-1.18,3.49-2.21h-3.25c-.3,0-.45-.15-.45-.45s.15-.45.45-.45l3.15-.02v-2.06h-2.03c-.3,0-.45-.15-.45-.45s.15-.45.45-.45h2.03v-1.71c0-.3.15-.45.45-.45s.45.15.45.45v1.71h1.15c.3,0,.45.15.45.45s-.15.45-.45.45h-1.15v2.06h.24c.7-.59,1.47-1.71,2.3-3.36.07-.15.19-.22.35-.22.12,0,.22.05.32.14.1.09.14.2.14.33,0,.06-.02.13-.05.21-.58,1.19-1.18,2.17-1.82,2.93h1.97c.3,0,.45.15.45.45s-.15.45-.45.45ZM197.77,11.57v-1.66h-3.23v1.66h3.23ZM197.77,14.45v-1.95h-3.23v1.95h3.23ZM204.62,5.06c-.16.22-.43.64-.82,1.25.71.84,1.07,1.88,1.07,3.1,0,.93-.18,1.64-.53,2.14-.52.74-1.32,1.1-2.38,1.1-.33,0-.66-.04-.98-.13v3.07c0,.3-.15.45-.45.45s-.45-.15-.45-.45V4.6c0-.3.15-.45.45-.45s.45.15.45.45v6.96c.31.08.6.13.88.13.66,0,1.19-.23,1.58-.69.36-.44.54-.99.54-1.65,0-.79-.25-1.53-.75-2.21l-.61.78c-.1.12-.21.18-.35.18-.13,0-.24-.05-.34-.14-.1-.1-.15-.21-.15-.35,0-.1.04-.19.11-.29.46-.57.79-.99.99-1.26.36-.5.66-.98.88-1.42.06-.13.1-.25.1-.37,0-.29-.15-.43-.46-.43h-3.58c-.28,0-.42-.15-.42-.45s.14-.45.42-.45h3.79c.83,0,1.25.4,1.25,1.2,0,.31-.08.62-.24.93Z"/>
      <path class="cls-1" d="M212.31,6.72c-.22,1.49-.73,3.01-1.52,4.54-.79,1.53-1.66,2.68-2.62,3.46-.11.08-.22.13-.34.13-.13,0-.24-.05-.33-.15-.09-.1-.14-.22-.14-.34,0-.15.06-.28.19-.4.93-.8,1.74-1.88,2.44-3.25.7-1.37,1.15-2.75,1.35-4.14.04-.29.2-.43.48-.43.14,0,.26.05.37.16.11.11.14.25.11.43ZM221.71,14.43c.1.1.14.2.14.32,0,.13-.05.24-.14.34-.1.1-.21.15-.34.15s-.24-.05-.34-.14c-1.48-1.44-2.64-2.99-3.47-4.64-.78-1.54-1.34-3.29-1.68-5.26h-3.57c-.32,0-.48-.16-.48-.48s.16-.48.48-.48h4c.29,0,.45.14.5.42.52,3.74,2.15,7,4.9,9.78Z"/>
      <path class="cls-1" d="M230.17,4.64h-4.74c-.32,0-.48-.16-.48-.48s.16-.48.48-.48h10.61c.32,0,.48.16.48.48s-.16.48-.48.48h-4.91v3.94h4.35c.32,0,.48.16.48.48s-.16.48-.48.48h-4.35v4.62h6.24c.32,0,.48.16.48.48s-.16.48-.48.48h-12.94c-.32,0-.48-.16-.48-.48s.16-.48.48-.48h5.74v-4.62h-4.11c-.32,0-.48-.16-.48-.48s.16-.48.48-.48h4.11v-3.94Z"/>
      <path class="cls-1" d="M246.94,6.39c.61-.32,1.22-.64,1.84-.96.73-.41,1.21-.78,1.46-1.14.04-.06.06-.13.06-.19,0-.17-.11-.26-.32-.26h-7.04c-.31,0-.46-.16-.46-.48s.15-.48.46-.48h7.15c.37,0,.7.1.97.29.27.19.41.44.41.75,0,.22-.08.46-.24.7-.31.49-.9.99-1.76,1.5-.68.35-1.36.71-2.03,1.07l.37.8h6.11c.32,0,.48.16.48.48s-.16.48-.48.48h-5.76c.36.93.54,1.81.54,2.64,0,1.4-.49,2.5-1.46,3.3-.97.8-2.29,1.16-3.95,1.07-.3-.02-.45-.18-.45-.46,0-.34.17-.51.51-.5,1.37.03,2.43-.27,3.18-.9.76-.63,1.14-1.5,1.14-2.61,0-.78-.19-1.63-.58-2.54h-6.43c-.32,0-.48-.16-.48-.48s.16-.48.48-.48h6.03c-.54-1.05-1.12-1.92-1.73-2.61-.07-.08-.11-.18-.11-.29,0-.14.06-.26.17-.37.11-.11.24-.16.39-.16.14,0,.26.06.35.18.49.57.88,1.11,1.17,1.63Z"/>
      <path class="cls-1" d="M270.03,5.27h-13.01c-.32,0-.48-.16-.48-.48s.16-.48.48-.48h6.02v-1.81c0-.32.16-.48.48-.48s.48.16.48.48v1.81h6.03c.32,0,.48.16.48.48s-.16.48-.48.48ZM268.59,13.59c0,.32-.16.48-.48.48s-.48-.16-.48-.48v-5.46h-3.62v7.42c0,.32-.16.48-.48.48s-.48-.16-.48-.48v-7.42h-3.34v2.24c0,1.55-.54,2.76-1.63,3.63-.09.06-.18.1-.27.1-.14,0-.26-.05-.36-.15-.1-.1-.15-.22-.15-.34s.06-.24.18-.34c.85-.73,1.28-1.74,1.28-3.06v-2.56c0-.32.16-.48.48-.48h3.82v-1.23c0-.32.16-.48.48-.48s.48.16.48.48v1.23h4.1c.32,0,.48.16.48.48v5.94Z"/>
      <path class="cls-1" d="M277.42,8.96c0,1.61-.35,3.11-1.06,4.51-.65,1.31-1.46,2.25-2.42,2.8-.07.04-.15.06-.22.06-.27,0-.4-.14-.4-.43,0-.14.07-.25.21-.34.85-.5,1.57-1.35,2.14-2.54.61-1.26.91-2.61.91-4.06s-.3-2.75-.91-3.95c-.57-1.12-1.3-1.96-2.19-2.51-.14-.09-.21-.2-.21-.34,0-.29.14-.43.42-.43.06,0,.13.02.21.06,1.01.6,1.84,1.53,2.48,2.78.69,1.33,1.04,2.79,1.04,4.38Z"/>
    </g>
  </g>
</svg>