<?xml version="1.0" encoding="UTF-8"?>
<svg id="_レイヤー_2" data-name="レイヤー 2" xmlns="http://www.w3.org/2000/svg" viewBox="0 0 33.81 33.81">
  <defs>
    <style>
      .cls-1 {
        fill: none;
        stroke: #6e9072;
        stroke-miterlimit: 10;
        stroke-width: 1.55px;
      }

      .cls-2 {
        fill: #6e9072;
      }
    </style>
  </defs>
  <g id="_テキスト" data-name="テキスト">
    <g>
      <path class="cls-2" d="M15.94,18.09c1.68,1.68,3.13,3.67,3.57,4.07s.74.02.74-.47c0-.49.25-1.41.79-2.27.52-.86,1.06-.67,1.6-.39.57.27,3.4,1.82,3.89,2.17,1.23.81.07,2.14-.62,2.83s-4.09,2.86-5.08,2.64c-1.36-.32-5.67-3.82-7.67-5.82-2-2-5.5-6.31-5.82-7.67-.22-.99,1.95-4.39,2.64-5.08.69-.69,2.02-1.85,2.83-.62.35.49,1.9,3.33,2.17,3.89.27.54.47,1.08-.39,1.6-.86.54-1.77.79-2.27.79s-.86.3-.47.74,2.39,1.9,4.07,3.57Z"/>
      <circle class="cls-1" cx="16.9" cy="16.9" r="16.13"/>
    </g>
  </g>
</svg>